<?xml version="1.0" encoding="utf-8"?>
<!-- Generator: Adobe Illustrator 28.1.0, SVG Export Plug-In . SVG Version: 6.00 Build 0)  -->
<svg version="1.1" xmlns="http://www.w3.org/2000/svg" xmlns:xlink="http://www.w3.org/1999/xlink" x="0px" y="0px"
	 viewBox="0 0 366.2 127.9" style="enable-background:new 0 0 366.2 127.9;" xml:space="preserve">
<style type="text/css">
	.st0{fill:#F6ECA9;}
	.st1{fill:#5A6FB5;}
	.st2{fill:#C6CF9A;}
	.st3{fill:#F5EBA8;}
	.st4{fill:#202759;}
	.st5{fill:none;stroke:#231F20;stroke-width:2;stroke-miterlimit:10;}
</style>
<g id="Layer_2">
	<rect class="st0" width="366.2" height="127.9"/>
</g>
<g id="Layer_1">
	<g>
		<g>
			<path class="st1" d="M67.9,65c2.7,1.2,3.7,4.8,1.6,6.9c-1.5,1.6-4.4,2-6.7,0.9c-0.3-0.1-0.5-0.3-0.8-0.5l0,0
				c0.6-1,0.9-2.1,0.8-3.3c-0.1-0.6-0.2-1.2-0.5-1.7c-0.2-0.5-0.5-0.9-0.8-1.2l0.2-0.1C63.5,64.6,66,64.2,67.9,65L67.9,65z"/>
			<path class="st2" d="M62.8,72.9c1.9,0.9,3,2.7,2.8,4.4c-0.3,2.7-3.7,4.7-6.8,3.9c-2.4-0.7-2.1-5.9-3.2-5.9v-0.1
				c1,0.1,2.1,0,3.1-0.3c0.1,0,0.2-0.1,0.3-0.1c1.3-0.5,2.3-1.3,2.9-2.3l0,0C62.3,72.6,62.5,72.7,62.8,72.9L62.8,72.9L62.8,72.9z"/>
			<path class="st1" d="M60,16.6c5.1,2.2,6.9,9,3.1,13c-2.9,3-8.2,3.9-12.5,1.8c-0.5-0.2-1-0.5-1.5-0.9l-0.1,0
				c1.2-1.8,1.8-4,1.5-6.2c-0.1-1.1-0.4-2.2-0.9-3.2c-0.4-0.8-1-1.6-1.6-2.3l0.5-0.1C51.8,15.8,56.5,15,60,16.6L60,16.6z"/>
			<path class="st3" d="M60.1,65.1c0.5,0.3,1,0.7,1.3,1.1c0.3,0.4,0.6,0.8,0.8,1.2c0.3,0.6,0.4,1.1,0.5,1.7c0.1,1.2-0.2,2.3-0.8,3.3
				c-0.7,1-1.7,1.8-2.9,2.3c-0.1,0-0.2,0.1-0.3,0.1c-1,0.3-2.1,0.4-3.1,0.3c-2.1-0.3-4-1.4-4.9-3.2c-0.1-0.3-0.3-0.6-0.3-0.9
				c-0.6-2.2,0.4-4.5,2.5-5.8c0.3-0.2,0.7-0.4,1.1-0.6C56.1,63.8,58.4,64,60.1,65.1L60.1,65.1z"/>
			<path class="st4" d="M52.6,64.5c-1.3-1.6-1.4-3.6-0.4-5.1c1.6-2.3,5.8-2.8,8-0.8c1.9,1.6,2,4.6-0.1,6.5c-1.7-1-4-1.3-6.1-0.5
				c-0.4,0.2-0.8,0.3-1.1,0.6C52.8,64.9,52.7,64.7,52.6,64.5L52.6,64.5L52.6,64.5z"/>
			<path class="st4" d="M50.5,31.5c3.6,1.8,5.7,5.1,5.4,8.2c-0.5,5-7,8.9-12.7,7.2c-4.3-1.3-7.1-5.4-6.4-9.8
				c0.1-0.5,0.2-0.9,0.4-1.4l0-0.2c1.9,0.2,3.9,0.1,5.8-0.6c0.2-0.1,0.4-0.1,0.6-0.2c2.4-0.9,4.3-2.5,5.5-4.3l0.1,0
				C49.6,30.8,50.1,31.1,50.5,31.5L50.5,31.5L50.5,31.5z"/>
			<path class="st2" d="M55.7,75.1L55.7,75.1c-0.2,0.1-0.3,0.2-0.5,0.3c-0.5,0.5-1.2,1.8-1.8,3.7c-0.5,0.4-1.1,0.6-1.7,0.8
				c-2.9,0.7-6.4-1.4-6.5-4.1c-0.1-2.1,1.7-4.2,4.3-4.7c0.3,0,0.5-0.1,0.8-0.1l0.1,0c0.1,0.3,0.2,0.6,0.3,0.9
				C51.7,73.7,53.6,74.8,55.7,75.1z"/>
			<path class="st1" d="M49.5,71c-2.2,0.5-4.4-0.1-5.6-1.5c-1.8-2.1-0.9-5.7,2-6.9c2.2-0.9,5-0.1,6.5,1.8c0.2,0.2,0.3,0.4,0.4,0.6
				c-2.1,1.3-3.1,3.6-2.5,5.8l-0.1,0C50.1,71,49.8,71,49.5,71L49.5,71L49.5,71z"/>
			<path class="st3" d="M45.5,16.7c1,0.6,1.8,1.3,2.5,2.1c0.6,0.7,1.2,1.5,1.6,2.3c0.5,1,0.8,2.1,0.9,3.2c0.2,2.2-0.3,4.3-1.5,6.2
				c-1.2,1.9-3.1,3.4-5.5,4.3c-0.2,0.1-0.4,0.2-0.6,0.2c-1.9,0.6-3.9,0.8-5.8,0.6c-3.9-0.5-7.5-2.7-9.2-6.1
				c-0.3-0.5-0.5-1.1-0.6-1.7c-1.2-4.1,0.7-8.5,4.6-11c0.6-0.4,1.4-0.8,2.1-1.1C37.9,14.3,42.2,14.8,45.5,16.7L45.5,16.7z"/>
			<path class="st2" d="M31.3,15.6c-2.4-3-2.7-6.8-0.7-9.6c3-4.3,10.8-5.2,15.1-1.5c3.5,3.1,3.7,8.6-0.1,12.3
				c-3.3-2-7.6-2.4-11.4-0.9c-0.8,0.3-1.5,0.6-2.1,1.1c-0.2-0.4-0.5-0.8-0.8-1.2L31.3,15.6L31.3,15.6z"/>
			<path class="st1" d="M36.6,37.2c-0.5,3.7-3.3,6.6-6.8,7.5c-5.5,1.4-12-2.6-12.3-7.8c-0.2-3.9,3.1-7.7,7.9-8.8
				c0.6-0.1,1.2-0.2,1.8-0.2l0.1,0c0.2,0.6,0.4,1.1,0.6,1.7c1.7,3.4,5.2,5.6,9.2,6.1l0,0.2c-0.2,0.5-0.3,0.9-0.4,1.4L36.6,37.2
				L36.6,37.2z"/>
			<path class="st4" d="M25.4,28c-4,0.8-8.1-0.4-10.3-2.9c-3.5-4-1.6-10.8,3.8-12.9c4.2-1.6,9.5-0.2,12.3,3.4
				c0.3,0.4,0.5,0.8,0.8,1.2c-4,2.5-5.8,6.8-4.6,11l-0.1,0c-0.6,0-1.2,0.1-1.8,0.2L25.4,28L25.4,28z"/>
			<path class="st4" d="M24.7,66.8c2.6,1.1,3.5,4.6,1.6,6.6c-1.5,1.5-4.2,2-6.4,0.9c-0.3-0.1-0.5-0.3-0.8-0.4l0,0
				c0.6-0.9,0.9-2,0.8-3.1c-0.1-0.6-0.2-1.1-0.5-1.6c-0.2-0.4-0.5-0.8-0.8-1.2l0.2-0.1C20.5,66.4,22.9,66,24.7,66.8L24.7,66.8z"/>
			<path class="st1" d="M19.9,74.3c1.8,0.9,2.9,2.6,2.7,4.2c-0.3,2.6-3.6,4.5-6.5,3.7c-2.2-0.6-3.6-2.8-3.3-5c0-0.2,0.1-0.5,0.2-0.7
				v-0.1c1,0.1,2,0,2.9-0.3c0.1,0,0.2-0.1,0.3-0.1c1.2-0.5,2.2-1.3,2.8-2.2l0,0C19.4,74,19.7,74.2,19.9,74.3
				C19.9,74.3,19.9,74.3,19.9,74.3z"/>
			<path class="st2" d="M10.5,66.9c0.3-0.2,0.7-0.4,1.1-0.5c2-0.8,4.2-0.5,5.8,0.5c0.5,0.3,0.9,0.6,1.3,1c0.3,0.4,0.6,0.7,0.8,1.2
				c0.3,0.5,0.4,1.1,0.5,1.6c0.1,1.1-0.2,2.2-0.8,3.1c-0.6,0.9-1.6,1.7-2.8,2.2c-0.1,0-0.2,0.1-0.3,0.1c-1,0.3-2,0.4-2.9,0.3
				c-2-0.2-3.8-1.4-4.6-3.1c-0.1-0.3-0.2-0.6-0.3-0.8C7.5,70.4,8.5,68.2,10.5,66.9L10.5,66.9z"/>
			<path class="st1" d="M10.1,66.3c-1.2-1.5-1.4-3.5-0.4-4.9c1.5-2.2,5.5-2.7,7.7-0.8c1.8,1.6,1.9,4.4-0.1,6.2
				c-1.7-1-3.8-1.2-5.8-0.5c-0.4,0.1-0.7,0.3-1.1,0.5C10.4,66.7,10.2,66.5,10.1,66.3L10.1,66.3z"/>
			<path class="st2" d="M12.8,77.2c-0.3,1.9-1.7,3.4-3.5,3.8c-2.8,0.7-6.1-1.3-6.2-4c-0.1-2,1.6-4,4.1-4.5c0.2,0,0.5-0.1,0.8-0.1
				l0.1,0c0.1,0.3,0.2,0.6,0.3,0.8c0.9,1.7,2.7,2.8,4.7,3.1v0.1C13,76.7,12.9,77,12.8,77.2L12.8,77.2L12.8,77.2z"/>
			<path class="st4" d="M7.2,72.5C5.2,73,3,72.4,1.9,71.1c-1.8-2-0.8-5.5,2-6.5c2.1-0.8,4.8-0.1,6.2,1.8c0.1,0.2,0.3,0.4,0.4,0.6
				c-2,1.3-2.9,3.5-2.3,5.6l-0.1,0C7.8,72.5,7.5,72.5,7.2,72.5L7.2,72.5L7.2,72.5z"/>
		</g>
		<g>
			<path class="st5" d="M37.1,35.6c-3.9-0.5-7.5-2.7-9.2-6.1c-0.3-0.5-0.5-1.1-0.6-1.7c-1.2-4.1,0.7-8.5,4.6-11
				c0.6-0.4,1.4-0.8,2.1-1.1c3.9-1.5,8.2-1,11.4,0.9c1,0.6,1.8,1.3,2.5,2.1c0.6,0.7,1.2,1.5,1.6,2.3c0.5,1,0.8,2.1,0.9,3.2
				c0.2,2.2-0.3,4.3-1.5,6.2c-1.2,1.9-3.1,3.4-5.5,4.3c-0.2,0.1-0.4,0.2-0.6,0.2C41,35.7,39,35.8,37.1,35.6L37.1,35.6z"/>
			<path class="st5" d="M31.9,16.3c-0.2-0.2-0.4-0.5-0.6-0.7c-2.4-3-2.7-6.8-0.7-9.6c3-4.3,10.8-5.2,15.1-1.5
				c3.5,3.1,3.7,8.6-0.1,12.3c0,0-0.1,0.1-0.1,0.1"/>
			<path class="st5" d="M26.5,27.7c-0.4,0.1-0.8,0.2-1.1,0.3c-4,0.8-8.1-0.4-10.3-2.9c-3.5-4-1.6-10.8,3.8-12.9
				c4.2-1.6,9.5-0.2,12.3,3.4c0.3,0.4,0.5,0.8,0.8,1.2c0,0,0,0,0,0"/>
			<path class="st5" d="M36.7,36.3c0,0.3,0,0.6-0.1,0.9c-0.5,3.7-3.3,6.6-6.8,7.5c-5.5,1.4-12-2.6-12.3-7.8
				c-0.2-3.9,3.1-7.7,7.9-8.8c0.6-0.1,1.2-0.2,1.8-0.2"/>
			<path class="st5" d="M49.4,31c0.4,0.1,0.7,0.3,1.1,0.5c3.6,1.8,5.7,5.1,5.4,8.2c-0.5,5-7,8.9-12.7,7.2c-4.3-1.3-7.1-5.4-6.4-9.8
				c0.1-0.5,0.2-0.9,0.4-1.4"/>
			<path class="st5" d="M48.5,18.7c3.3-2.9,8-3.7,11.6-2.1c5.1,2.2,6.9,9,3.1,13c-2.9,3-8.2,3.9-12.5,1.8c-0.5-0.2-1-0.5-1.5-0.9"/>
			<path class="st5" d="M37,41.7c-3.2,6.3-6.4,15.1-4.5,24.1c1.5,7,5.2,9.3,7.5,14.8c2.9,6.9,3.6,18.7-6.6,40"/>
			<path class="st5" d="M55.7,75.1c-2.1-0.3-4-1.4-4.9-3.2c-0.1-0.3-0.3-0.6-0.3-0.9c-0.6-2.2,0.4-4.5,2.5-5.8
				c0.3-0.2,0.7-0.4,1.1-0.6c2.1-0.8,4.3-0.5,6.1,0.5c0.5,0.3,1,0.7,1.3,1.1c0.3,0.4,0.6,0.8,0.8,1.2c0.3,0.6,0.4,1.1,0.5,1.7
				c0.1,1.2-0.2,2.3-0.8,3.3c-0.7,1-1.7,1.8-2.9,2.3c-0.1,0-0.2,0.1-0.3,0.1C57.7,75.1,56.7,75.2,55.7,75.1L55.7,75.1z"/>
			<path class="st5" d="M52.9,64.8c-0.1-0.1-0.2-0.2-0.3-0.4c-1.3-1.6-1.4-3.6-0.4-5.1c1.6-2.3,5.8-2.8,8-0.8c1.9,1.6,2,4.6-0.1,6.5
				c0,0,0,0-0.1,0.1"/>
			<path class="st5" d="M50,70.9c-0.2,0-0.3,0.1-0.5,0.1c-2.2,0.5-4.4-0.1-5.6-1.5c-1.8-2.1-0.9-5.7,2-6.9c2.2-0.9,5-0.1,6.5,1.8
				c0.2,0.2,0.3,0.4,0.4,0.6c0,0,0,0,0,0"/>
			<path class="st5" d="M55.4,75.5c-0.1,1.5-0.8,2.8-2,3.7c-0.5,0.4-1.1,0.6-1.7,0.8c-2.9,0.7-6.4-1.4-6.5-4.1
				c-0.1-2.1,1.7-4.2,4.3-4.7c0.3,0,0.5-0.1,0.8-0.1"/>
			<path class="st5" d="M62.2,72.7c0.2,0.1,0.4,0.2,0.6,0.3c1.9,0.9,3,2.7,2.8,4.4c-0.3,2.7-3.7,4.7-6.8,3.9
				c-2.4-0.7-2.1-5.9-3.2-5.9c-0.2,0-0.3,0.1-0.5,0.2c-0.5,0.5-1.2,1.8-1.8,3.7c-1.2,4.1-2.2,10.8-1.7,17.7c0.6,8,2.7,10.7,2.3,18.4
				c-0.2,4.6-1.2,8.2-2,10.6"/>
			<path class="st5" d="M61.7,66.1c1.7-1.5,4.3-2,6.1-1.1c2.7,1.2,3.7,4.8,1.6,6.9c-1.5,1.6-4.4,2-6.7,0.9c-0.3-0.1-0.5-0.3-0.8-0.5
				"/>
			<path class="st5" d="M13.1,76.4c-2-0.2-3.8-1.4-4.6-3.1c-0.1-0.3-0.2-0.6-0.3-0.8c-0.6-2.1,0.3-4.3,2.4-5.6
				c0.3-0.2,0.7-0.4,1.1-0.5c2-0.8,4.1-0.5,5.8,0.5c0.5,0.3,0.9,0.6,1.3,1c0.3,0.4,0.6,0.7,0.8,1.2c0.3,0.5,0.4,1.1,0.5,1.6
				c0.1,1.1-0.2,2.2-0.8,3.1c-0.6,0.9-1.6,1.7-2.8,2.2c-0.1,0-0.2,0.1-0.3,0.1C15.1,76.5,14.1,76.5,13.1,76.4L13.1,76.4z"/>
			<path class="st5" d="M10.4,66.6c-0.1-0.1-0.2-0.2-0.3-0.4c-1.2-1.5-1.4-3.5-0.4-4.9c1.5-2.2,5.5-2.7,7.7-0.8
				c1.8,1.6,1.9,4.4-0.1,6.2c0,0,0,0-0.1,0.1"/>
			<path class="st5" d="M7.7,72.4c-0.2,0-0.3,0.1-0.5,0.1C5.2,73,3,72.4,1.9,71.1c-1.8-2-0.8-5.5,2-6.5c2.1-0.8,4.8-0.1,6.2,1.8
				c0.1,0.2,0.3,0.4,0.4,0.6c0,0,0,0,0,0"/>
			<path class="st5" d="M12.9,76.7c0,0.2,0,0.3-0.1,0.5c-0.3,1.9-1.7,3.4-3.5,3.8c-2.8,0.7-6.1-1.3-6.2-4c-0.1-2,1.6-4,4.1-4.5
				c0.2,0,0.5-0.1,0.8-0.1"/>
			<path class="st5" d="M19.3,74.1c0.2,0.1,0.4,0.2,0.5,0.2c1.8,0.9,2.9,2.6,2.7,4.2c-0.3,2.6-3.6,4.5-6.5,3.7
				c-2.2-0.6-3.6-2.8-3.3-5c0-0.2,0.1-0.5,0.2-0.7"/>
			<path class="st5" d="M18.8,67.8c1.7-1.5,4.1-1.9,5.9-1.1c2.6,1.1,3.5,4.6,1.6,6.6c-1.5,1.5-4.2,2-6.4,0.9
				c-0.3-0.1-0.5-0.3-0.8-0.4"/>
			<path class="st5" d="M11.5,80.1c0.6,7.8,2.4,13.5,3.9,17.3c2,4.9,4,7.5,4.5,12.4c0.5,5-0.9,9.3-2.1,12.1"/>
		</g>
	</g>
	<g>
		<g>
			<path class="st1" d="M143.5,65.3c2.7,1.2,3.7,4.8,1.6,6.9c-1.5,1.6-4.4,2-6.7,0.9c-0.3-0.1-0.5-0.3-0.8-0.5l0,0
				c0.6-1,0.9-2.1,0.8-3.3c-0.1-0.6-0.2-1.1-0.5-1.7c-0.2-0.5-0.5-0.9-0.9-1.2l0.2-0.1C139,64.9,141.6,64.4,143.5,65.3z"/>
			<path class="st2" d="M138.4,73.2c1.9,1,3,2.7,2.9,4.4c-0.3,2.7-3.8,4.7-6.8,3.8c-2.4-0.7-2.1-5.9-3.2-5.9v-0.1
				c1,0.1,2.1,0,3.1-0.3c0.1,0,0.2-0.1,0.3-0.1c1.3-0.5,2.3-1.3,2.9-2.3l0,0C137.9,72.8,138.1,73,138.4,73.2
				C138.4,73.1,138.4,73.2,138.4,73.2z"/>
			<path class="st1" d="M135.6,17.1c5.1,2.2,6.9,9,3.1,13c-2.9,3-8.2,3.8-12.6,1.8c-0.5-0.2-1-0.5-1.5-0.9l-0.1,0
				c1.2-1.8,1.8-4,1.5-6.1c-0.1-1.1-0.4-2.1-0.9-3.2c-0.4-0.8-1-1.6-1.6-2.3l0.5-0.1C127.3,16.3,132.1,15.5,135.6,17.1L135.6,17.1z"
				/>
			<path class="st3" d="M128.5,65.4c0.3-0.2,0.7-0.4,1.1-0.6c2.1-0.8,4.4-0.5,6.1,0.5c0.5,0.3,1,0.7,1.4,1.1
				c0.3,0.4,0.6,0.8,0.9,1.2c0.3,0.6,0.4,1.1,0.5,1.7c0.1,1.1-0.2,2.3-0.8,3.3c-0.6,1-1.6,1.8-2.9,2.3c-0.1,0-0.2,0.1-0.3,0.1
				c-1,0.3-2.1,0.4-3.1,0.3c-2.1-0.3-4-1.4-4.9-3.2c-0.1-0.3-0.3-0.6-0.3-0.9C125.4,69,126.4,66.7,128.5,65.4L128.5,65.4z"/>
			<path class="st4" d="M128.2,64.8c-1.3-1.6-1.4-3.6-0.4-5.1c1.6-2.3,5.8-2.8,8-0.8c1.9,1.6,2,4.6-0.1,6.5c-1.7-1-4-1.3-6.1-0.5
				c-0.4,0.2-0.8,0.3-1.1,0.6C128.4,65.2,128.2,65,128.2,64.8L128.2,64.8z"/>
			<path class="st4" d="M126.1,31.9c3.6,1.8,5.7,5,5.4,8.2c-0.5,5-7.1,8.9-12.7,7.2c-4.3-1.3-7.1-5.4-6.4-9.7
				c0.1-0.5,0.2-0.9,0.4-1.4l0-0.2c1.9,0.2,3.9,0.1,5.8-0.6c0.2-0.1,0.4-0.1,0.6-0.2c2.4-0.9,4.3-2.5,5.5-4.3l0.1,0
				C125.2,31.3,125.7,31.6,126.1,31.9L126.1,31.9L126.1,31.9z"/>
			<path class="st2" d="M131.3,75.3L131.3,75.3c-0.2,0.1-0.3,0.2-0.5,0.3c-0.6,0.5-1.2,1.8-1.7,3.7c-0.5,0.4-1.1,0.6-1.7,0.8
				c-2.9,0.7-6.4-1.4-6.5-4.1c-0.1-2.1,1.7-4.1,4.3-4.6c0.3,0,0.5-0.1,0.8-0.1l0.1,0c0.1,0.3,0.2,0.6,0.3,0.9
				C127.3,73.9,129.2,75.1,131.3,75.3L131.3,75.3z"/>
			<path class="st1" d="M125.1,71.3c-2.2,0.5-4.4-0.1-5.6-1.5c-1.8-2.1-0.9-5.7,2-6.8c2.2-0.9,5-0.1,6.5,1.8
				c0.1,0.2,0.3,0.4,0.4,0.6c-2.1,1.3-3.1,3.6-2.5,5.8l-0.1,0C125.7,71.3,125.4,71.3,125.1,71.3L125.1,71.3L125.1,71.3z"/>
			<path class="st3" d="M107.5,17.4c0.7-0.4,1.3-0.8,2.1-1c3.9-1.5,8.2-1,11.4,0.9c0.9,0.6,1.8,1.3,2.5,2.1c0.6,0.7,1.2,1.5,1.6,2.3
				c0.5,1,0.8,2.1,0.9,3.2c0.2,2.1-0.3,4.3-1.5,6.1c-1.2,1.9-3.1,3.4-5.5,4.3c-0.2,0.1-0.4,0.2-0.6,0.2c-1.9,0.6-3.9,0.8-5.8,0.6
				c-3.9-0.5-7.5-2.7-9.2-6.1c-0.3-0.5-0.5-1.1-0.6-1.6C101.7,24.2,103.6,19.8,107.5,17.4L107.5,17.4z"/>
			<path class="st2" d="M106.9,16.1c-2.4-3-2.7-6.8-0.8-9.6c3-4.3,10.8-5.2,15.1-1.5c3.5,3.1,3.7,8.6-0.1,12.2
				c-3.3-2-7.6-2.4-11.4-0.9c-0.8,0.3-1.5,0.6-2.1,1c-0.2-0.4-0.5-0.8-0.8-1.2L106.9,16.1L106.9,16.1z"/>
			<path class="st1" d="M112.2,37.6c-0.6,3.6-3.3,6.6-6.8,7.5c-5.5,1.4-12-2.5-12.3-7.8c-0.2-3.9,3.1-7.7,7.9-8.7
				c0.6-0.1,1.2-0.2,1.8-0.2l0.1,0c0.2,0.6,0.4,1.1,0.6,1.6c1.7,3.4,5.2,5.6,9.2,6.1l0,0.2c-0.2,0.5-0.3,0.9-0.4,1.4L112.2,37.6
				L112.2,37.6z"/>
			<path class="st4" d="M100.9,28.5c-4,0.8-8.1-0.4-10.3-2.9c-3.5-4-1.6-10.7,3.8-12.8c4.2-1.6,9.5-0.2,12.3,3.5
				c0.3,0.4,0.5,0.8,0.8,1.2c-3.9,2.5-5.8,6.8-4.6,10.9l-0.1,0c-0.6,0-1.2,0.1-1.8,0.2L100.9,28.5L100.9,28.5z"/>
			<path class="st4" d="M100.3,67c2.6,1.1,3.5,4.5,1.6,6.6c-1.4,1.5-4.2,2-6.4,0.9c-0.3-0.1-0.5-0.3-0.8-0.4l0,0
				c0.6-0.9,0.9-2,0.8-3.1c-0.1-0.5-0.2-1.1-0.5-1.6c-0.2-0.4-0.5-0.8-0.8-1.2l0.2-0.1C96.1,66.7,98.5,66.2,100.3,67L100.3,67z"/>
			<path class="st1" d="M95.5,74.6c1.8,0.9,2.9,2.5,2.7,4.2c-0.3,2.5-3.6,4.5-6.5,3.7c-2.2-0.6-3.6-2.7-3.2-4.9
				c0-0.2,0.1-0.5,0.2-0.7v-0.1c1,0.1,2,0,2.9-0.3c0.1,0,0.2-0.1,0.3-0.1c1.2-0.5,2.2-1.2,2.8-2.2l0,0C95,74.2,95.2,74.4,95.5,74.6
				C95.5,74.5,95.5,74.6,95.5,74.6z"/>
			<path class="st2" d="M92.9,67.1c0.5,0.3,0.9,0.6,1.3,1c0.3,0.4,0.6,0.7,0.8,1.2c0.3,0.5,0.4,1.1,0.5,1.6c0.1,1.1-0.2,2.2-0.8,3.1
				c-0.6,0.9-1.6,1.7-2.8,2.2c-0.1,0-0.2,0.1-0.3,0.1c-1,0.3-2,0.4-2.9,0.3c-2-0.2-3.8-1.4-4.7-3.1c-0.1-0.3-0.2-0.5-0.3-0.8
				c-0.6-2.1,0.3-4.3,2.3-5.6c0.3-0.2,0.7-0.4,1.1-0.5C89.1,65.9,91.3,66.1,92.9,67.1L92.9,67.1z"/>
			<path class="st1" d="M85.7,66.6c-1.2-1.5-1.4-3.5-0.4-4.9c1.5-2.2,5.5-2.6,7.7-0.8c1.8,1.6,1.9,4.3-0.1,6.2
				c-1.7-1-3.8-1.2-5.8-0.5c-0.4,0.1-0.7,0.3-1.1,0.5C85.9,67,85.8,66.8,85.7,66.6L85.7,66.6L85.7,66.6z"/>
			<path class="st2" d="M88.4,77.4c-0.3,1.8-1.7,3.3-3.5,3.8c-2.8,0.7-6.1-1.3-6.2-3.9c-0.1-2,1.6-4,4.1-4.4c0.2,0,0.5-0.1,0.8-0.1
				l0.1,0c0.1,0.3,0.2,0.6,0.3,0.8c0.9,1.7,2.7,2.8,4.7,3.1v0.1C88.6,77,88.5,77.2,88.4,77.4L88.4,77.4L88.4,77.4z"/>
			<path class="st4" d="M82.8,72.8c-2.1,0.5-4.2-0.1-5.3-1.4c-1.8-2-0.8-5.4,1.9-6.5c2.1-0.8,4.8-0.1,6.2,1.8
				c0.1,0.2,0.3,0.4,0.4,0.6c-2,1.2-2.9,3.5-2.3,5.6l-0.1,0C83.4,72.8,83.1,72.8,82.8,72.8L82.8,72.8L82.8,72.8z"/>
		</g>
		<g>
			<path class="st5" d="M112.7,36c-3.9-0.5-7.5-2.7-9.2-6.1c-0.3-0.5-0.5-1.1-0.6-1.6c-1.2-4.1,0.7-8.5,4.6-10.9
				c0.7-0.4,1.3-0.8,2.1-1c3.9-1.5,8.2-1,11.4,0.9c0.9,0.6,1.8,1.3,2.5,2.1c0.6,0.7,1.2,1.5,1.6,2.3c0.5,1,0.8,2.1,0.9,3.2
				c0.2,2.1-0.3,4.3-1.5,6.1c-1.2,1.9-3.1,3.4-5.5,4.3c-0.2,0.1-0.4,0.2-0.6,0.2C116.6,36.1,114.6,36.3,112.7,36L112.7,36z"/>
			<path class="st5" d="M107.5,16.8c-0.2-0.2-0.4-0.5-0.6-0.7c-2.4-3-2.7-6.8-0.8-9.6c3-4.3,10.8-5.2,15.1-1.5
				c3.5,3.1,3.7,8.6-0.1,12.2c0,0-0.1,0.1-0.1,0.1"/>
			<path class="st5" d="M102.1,28.2c-0.4,0.1-0.8,0.2-1.2,0.3c-4,0.8-8.1-0.4-10.3-2.9c-3.5-4-1.6-10.7,3.8-12.8
				c4.2-1.6,9.5-0.2,12.3,3.5c0.3,0.4,0.5,0.8,0.8,1.2c0,0,0,0,0,0"/>
			<path class="st5" d="M112.3,36.7c0,0.3-0.1,0.6-0.1,0.9c-0.6,3.6-3.3,6.6-6.8,7.5c-5.5,1.4-12-2.5-12.3-7.8
				c-0.2-3.9,3.1-7.7,7.9-8.7c0.6-0.1,1.2-0.2,1.8-0.2"/>
			<path class="st5" d="M125,31.5c0.4,0.1,0.7,0.3,1.1,0.5c3.6,1.8,5.7,5,5.4,8.2c-0.5,5-7.1,8.9-12.7,7.2c-4.3-1.3-7.1-5.4-6.4-9.7
				c0.1-0.5,0.2-0.9,0.4-1.4"/>
			<path class="st5" d="M124.1,19.2c3.3-2.9,8-3.7,11.6-2.1c5.1,2.2,6.9,9,3.1,13c-2.9,3-8.2,3.8-12.6,1.8c-0.5-0.2-1-0.5-1.5-0.9"
				/>
			<path class="st5" d="M112.6,42.1c-3.2,6.2-6.4,15.1-4.5,24c1.5,7,5.2,9.3,7.5,14.7c2.9,6.9,3.6,18.6-6.6,39.8"/>
			<path class="st5" d="M131.3,75.3c-2.1-0.3-4-1.4-4.9-3.2c-0.1-0.3-0.3-0.6-0.3-0.9c-0.6-2.2,0.4-4.5,2.5-5.8
				c0.3-0.2,0.7-0.4,1.1-0.6c2.1-0.8,4.4-0.5,6.1,0.5c0.5,0.3,1,0.7,1.4,1.1c0.3,0.4,0.6,0.8,0.9,1.2c0.3,0.6,0.4,1.1,0.5,1.7
				c0.1,1.1-0.2,2.3-0.8,3.3c-0.6,1-1.6,1.8-2.9,2.3c-0.1,0-0.2,0.1-0.3,0.1C133.3,75.4,132.3,75.5,131.3,75.3L131.3,75.3z"/>
			<path class="st5" d="M128.5,65.1c-0.1-0.1-0.2-0.2-0.3-0.4c-1.3-1.6-1.4-3.6-0.4-5.1c1.6-2.3,5.8-2.8,8-0.8
				c1.9,1.6,2,4.6-0.1,6.5l-0.1,0.1"/>
			<path class="st5" d="M125.6,71.2c-0.2,0-0.3,0.1-0.5,0.1c-2.2,0.5-4.4-0.1-5.6-1.5c-1.8-2.1-0.9-5.7,2-6.8c2.2-0.9,5-0.1,6.5,1.8
				c0.1,0.2,0.3,0.4,0.4,0.6c0,0,0,0,0,0"/>
			<path class="st5" d="M131,75.7c-0.1,1.5-0.9,2.8-2,3.7c-0.5,0.4-1.1,0.6-1.7,0.8c-2.9,0.7-6.4-1.4-6.5-4.1
				c-0.1-2.1,1.7-4.1,4.3-4.6c0.3,0,0.5-0.1,0.8-0.1"/>
			<path class="st5" d="M137.8,72.9c0.2,0.1,0.4,0.2,0.6,0.3c1.9,1,3,2.7,2.9,4.4c-0.3,2.7-3.8,4.7-6.8,3.8
				c-2.4-0.7-2.1-5.9-3.2-5.9c-0.1,0-0.3,0.1-0.5,0.2c-0.6,0.5-1.2,1.8-1.7,3.7c-1.2,4.1-2.2,10.7-1.7,17.6
				c0.6,7.9,2.7,10.7,2.4,18.3c-0.2,4.6-1.2,8.2-2,10.5"/>
			<path class="st5" d="M137.3,66.4c1.7-1.5,4.3-2,6.1-1.1c2.7,1.2,3.7,4.8,1.6,6.9c-1.5,1.6-4.4,2-6.7,0.9
				c-0.3-0.1-0.5-0.3-0.8-0.5"/>
			<path class="st5" d="M88.7,76.6c-2-0.2-3.8-1.4-4.7-3.1c-0.1-0.3-0.2-0.5-0.3-0.8c-0.6-2.1,0.3-4.3,2.3-5.6
				c0.3-0.2,0.7-0.4,1.1-0.5c2-0.8,4.2-0.5,5.8,0.5c0.5,0.3,0.9,0.6,1.3,1c0.3,0.4,0.6,0.7,0.8,1.2c0.3,0.5,0.4,1.1,0.5,1.6
				c0.1,1.1-0.2,2.2-0.8,3.1c-0.6,0.9-1.6,1.7-2.8,2.2c-0.1,0-0.2,0.1-0.3,0.1C90.7,76.7,89.7,76.8,88.7,76.6L88.7,76.6z"/>
			<path class="st5" d="M86,66.9c-0.1-0.1-0.2-0.2-0.3-0.3c-1.2-1.5-1.4-3.5-0.4-4.9c1.5-2.2,5.5-2.6,7.7-0.8
				c1.8,1.6,1.9,4.3-0.1,6.2c0,0,0,0-0.1,0.1"/>
			<path class="st5" d="M83.3,72.7c-0.2,0-0.3,0.1-0.5,0.1c-2.1,0.5-4.2-0.1-5.3-1.4c-1.8-2-0.8-5.4,1.9-6.5
				c2.1-0.8,4.8-0.1,6.2,1.8c0.1,0.2,0.3,0.4,0.4,0.6c0,0,0,0,0,0"/>
			<path class="st5" d="M88.5,77c0,0.2,0,0.3-0.1,0.5c-0.3,1.8-1.7,3.3-3.5,3.8c-2.8,0.7-6.1-1.3-6.2-3.9c-0.1-2,1.6-4,4.1-4.4
				c0.2,0,0.5-0.1,0.8-0.1"/>
			<path class="st5" d="M94.9,74.3c0.2,0.1,0.4,0.2,0.6,0.2c1.8,0.9,2.9,2.5,2.7,4.2c-0.3,2.5-3.6,4.5-6.5,3.7
				c-2.2-0.6-3.6-2.7-3.2-4.9c0-0.2,0.1-0.5,0.2-0.7"/>
			<path class="st5" d="M94.4,68.1c1.7-1.5,4.1-1.9,5.9-1.1c2.6,1.1,3.5,4.5,1.6,6.6c-1.4,1.5-4.2,2-6.4,0.9
				c-0.3-0.1-0.5-0.3-0.8-0.4"/>
			<path class="st5" d="M87.1,80.3c0.6,7.7,2.4,13.4,3.9,17.3c2,4.9,4,7.5,4.5,12.3c0.5,5-0.9,9.3-2.1,12.1"/>
		</g>
	</g>
	<g>
		<g>
			<path class="st1" d="M219,65.5c2.7,1.2,3.7,4.7,1.6,6.9c-1.5,1.6-4.4,2-6.7,0.9c-0.3-0.1-0.5-0.3-0.8-0.5l0,0
				c0.6-1,0.9-2.1,0.8-3.2c-0.1-0.6-0.2-1.1-0.5-1.7c-0.2-0.4-0.5-0.9-0.9-1.2l0.2-0.1C214.6,65.1,217.1,64.7,219,65.5z"/>
			<path class="st2" d="M214,73.4c1.9,0.9,3,2.7,2.9,4.3c-0.3,2.6-3.8,4.7-6.8,3.8c-2.4-0.7-2.1-5.9-3.2-5.9v-0.1
				c1,0.1,2.1,0,3.1-0.3c0.1,0,0.2-0.1,0.3-0.1c1.3-0.5,2.3-1.3,2.9-2.3l0,0C213.5,73.1,213.7,73.2,214,73.4
				C214,73.3,214,73.4,214,73.4z"/>
			<path class="st1" d="M211.2,17.6c5.1,2.2,6.9,8.9,3.1,12.9c-2.9,3-8.2,3.8-12.6,1.8c-0.5-0.2-1-0.5-1.5-0.9l-0.1,0
				c1.2-1.8,1.8-4,1.5-6.1c-0.1-1.1-0.4-2.1-0.9-3.2c-0.4-0.8-1-1.6-1.6-2.3l0.5-0.1C202.9,16.8,207.7,16,211.2,17.6L211.2,17.6z"/>
			<path class="st3" d="M204.1,65.7c0.3-0.2,0.7-0.4,1.1-0.6c2.1-0.8,4.4-0.5,6.1,0.5c0.5,0.3,1,0.7,1.4,1.1
				c0.3,0.4,0.6,0.8,0.9,1.2c0.3,0.6,0.4,1.1,0.5,1.7c0.1,1.1-0.2,2.3-0.8,3.2c-0.6,1-1.6,1.8-2.9,2.3c-0.1,0-0.2,0.1-0.3,0.1
				c-1,0.3-2.1,0.4-3.1,0.3c-2.1-0.3-4-1.4-4.9-3.2c-0.1-0.3-0.3-0.6-0.3-0.9C201,69.3,202,67,204.1,65.7L204.1,65.7z"/>
			<path class="st4" d="M203.7,65c-1.3-1.6-1.4-3.6-0.4-5.1c1.6-2.3,5.8-2.8,8-0.8c1.9,1.6,2,4.5-0.1,6.5c-1.7-1-4-1.3-6.1-0.5
				c-0.4,0.2-0.8,0.3-1.1,0.6C204,65.5,203.8,65.3,203.7,65L203.7,65z"/>
			<path class="st4" d="M201.7,32.4c3.6,1.8,5.7,5,5.4,8.1c-0.5,5-7.1,8.8-12.7,7.2c-4.3-1.2-7.1-5.4-6.4-9.7
				c0.1-0.5,0.2-0.9,0.4-1.4l0-0.2c1.9,0.2,3.9,0.1,5.8-0.6c0.2-0.1,0.4-0.1,0.6-0.2c2.4-0.9,4.3-2.4,5.5-4.3l0.1,0
				C200.7,31.7,201.2,32,201.7,32.4L201.7,32.4L201.7,32.4z"/>
			<path class="st2" d="M206.8,75.6L206.8,75.6c-0.2,0.1-0.3,0.2-0.5,0.3c-0.6,0.5-1.2,1.8-1.7,3.7c-0.5,0.4-1.1,0.6-1.7,0.8
				c-2.9,0.7-6.4-1.3-6.5-4.1c-0.1-2.1,1.7-4.1,4.3-4.6c0.3,0,0.5-0.1,0.8-0.1l0.1,0c0.1,0.3,0.2,0.6,0.3,0.9
				C202.9,74.2,204.8,75.3,206.8,75.6L206.8,75.6z"/>
			<path class="st1" d="M200.7,71.5c-2.2,0.5-4.4-0.1-5.6-1.5c-1.9-2.1-0.9-5.7,2-6.8c2.2-0.8,5-0.1,6.5,1.8
				c0.1,0.2,0.3,0.4,0.4,0.6c-2.1,1.3-3.1,3.6-2.5,5.8l-0.1,0C201.3,71.5,201,71.5,200.7,71.5L200.7,71.5L200.7,71.5z"/>
			<path class="st3" d="M196.6,17.8c0.9,0.6,1.8,1.2,2.5,2c0.6,0.7,1.2,1.5,1.6,2.3c0.5,1,0.8,2.1,0.9,3.2c0.2,2.1-0.3,4.3-1.5,6.1
				c-1.2,1.8-3.1,3.4-5.5,4.3c-0.2,0.1-0.4,0.2-0.6,0.2c-1.9,0.6-3.9,0.8-5.8,0.6c-3.9-0.5-7.5-2.7-9.2-6c-0.3-0.5-0.5-1.1-0.6-1.6
				c-1.2-4.1,0.7-8.4,4.6-10.9c0.6-0.4,1.4-0.8,2.1-1C189.1,15.3,193.4,15.8,196.6,17.8L196.6,17.8z"/>
			<path class="st2" d="M182.5,16.7c-2.4-3-2.7-6.8-0.8-9.5c3-4.3,10.8-5.2,15.1-1.5c3.5,3.1,3.7,8.5-0.1,12.1
				c-3.3-1.9-7.6-2.4-11.4-0.9c-0.8,0.3-1.5,0.6-2.1,1c-0.2-0.4-0.5-0.8-0.8-1.2L182.5,16.7L182.5,16.7z"/>
			<path class="st1" d="M187.8,38c-0.6,3.6-3.3,6.6-6.8,7.4c-5.5,1.4-12-2.5-12.3-7.7c-0.2-3.9,3.1-7.7,7.9-8.7
				c0.6-0.1,1.2-0.2,1.8-0.2l0.1,0c0.2,0.6,0.4,1.1,0.6,1.6c1.7,3.4,5.2,5.6,9.2,6l0,0.2c-0.2,0.5-0.3,0.9-0.4,1.4H187.8L187.8,38z"
				/>
			<path class="st4" d="M176.5,28.9c-4,0.8-8.1-0.4-10.3-2.9c-3.5-4-1.6-10.7,3.8-12.8c4.2-1.6,9.5-0.2,12.3,3.4
				c0.3,0.4,0.5,0.8,0.8,1.2c-3.9,2.4-5.8,6.8-4.6,10.9l-0.1,0c-0.6,0-1.2,0.1-1.8,0.2L176.5,28.9L176.5,28.9z"/>
			<path class="st4" d="M175.9,67.3c2.6,1.1,3.5,4.5,1.6,6.6c-1.4,1.5-4.2,1.9-6.4,0.9c-0.3-0.1-0.5-0.3-0.8-0.4l0,0
				c0.6-0.9,0.9-2,0.8-3.1c-0.1-0.5-0.2-1.1-0.5-1.6c-0.2-0.4-0.5-0.8-0.8-1.2l0.2-0.1C171.7,66.9,174.1,66.5,175.9,67.3L175.9,67.3
				z"/>
			<path class="st1" d="M171.1,74.8c1.8,0.9,2.9,2.5,2.7,4.1c-0.3,2.5-3.6,4.5-6.5,3.6c-2.2-0.6-3.6-2.7-3.2-4.9
				c0-0.2,0.1-0.5,0.2-0.7v-0.1c1,0.1,2,0,2.9-0.3c0.1,0,0.2-0.1,0.3-0.1c1.2-0.5,2.2-1.2,2.8-2.2l0,0
				C170.6,74.5,170.8,74.6,171.1,74.8L171.1,74.8L171.1,74.8z"/>
			<path class="st2" d="M168.5,67.4c0.5,0.3,0.9,0.6,1.3,1c0.3,0.4,0.6,0.7,0.8,1.2c0.3,0.5,0.4,1.1,0.5,1.6
				c0.1,1.1-0.2,2.2-0.8,3.1c-0.6,0.9-1.6,1.7-2.8,2.2c-0.1,0-0.2,0.1-0.3,0.1c-1,0.3-2,0.4-2.9,0.3c-2-0.2-3.8-1.3-4.6-3.1
				c-0.1-0.3-0.2-0.5-0.3-0.8c-0.6-2.1,0.4-4.3,2.4-5.5c0.3-0.2,0.7-0.4,1.1-0.5C164.7,66.2,166.9,66.4,168.5,67.4L168.5,67.4z"/>
			<path class="st1" d="M161.3,66.8c-1.2-1.5-1.4-3.4-0.4-4.8c1.5-2.2,5.5-2.6,7.6-0.8c1.8,1.6,1.9,4.3-0.1,6.2
				c-1.6-1-3.8-1.2-5.8-0.5c-0.4,0.1-0.7,0.3-1.1,0.5C161.5,67.2,161.4,67,161.3,66.8L161.3,66.8L161.3,66.8z"/>
			<path class="st2" d="M164,77.6c-0.3,1.8-1.7,3.3-3.5,3.8c-2.8,0.7-6.1-1.3-6.2-3.9c-0.1-2,1.6-3.9,4.1-4.4c0.2,0,0.5-0.1,0.8-0.1
				l0.1,0c0.1,0.3,0.2,0.6,0.3,0.8c0.9,1.7,2.7,2.8,4.6,3.1v0.1C164.2,77.2,164.1,77.4,164,77.6L164,77.6L164,77.6z"/>
			<path class="st4" d="M158.4,73c-2.1,0.4-4.2-0.1-5.3-1.4c-1.8-2-0.8-5.4,1.9-6.5c2.1-0.8,4.8-0.1,6.2,1.7
				c0.1,0.2,0.3,0.4,0.4,0.6c-2,1.2-2.9,3.4-2.4,5.5l-0.1,0C158.9,73,158.7,73,158.4,73L158.4,73L158.4,73z"/>
		</g>
		<g>
			<path class="st5" d="M188.3,36.5c-3.9-0.5-7.5-2.7-9.2-6c-0.3-0.5-0.5-1.1-0.6-1.6c-1.2-4.1,0.7-8.4,4.6-10.9
				c0.6-0.4,1.4-0.8,2.1-1c3.9-1.5,8.2-1,11.4,0.9c0.9,0.6,1.8,1.2,2.5,2c0.6,0.7,1.2,1.5,1.6,2.3c0.5,1,0.8,2.1,0.9,3.2
				c0.2,2.1-0.3,4.3-1.5,6.1c-1.2,1.8-3.1,3.4-5.5,4.3c-0.2,0.1-0.4,0.2-0.6,0.2C192.2,36.5,190.2,36.7,188.3,36.5L188.3,36.5z"/>
			<path class="st5" d="M183.1,17.3c-0.2-0.2-0.4-0.4-0.6-0.7c-2.4-3-2.7-6.8-0.8-9.5c3-4.3,10.8-5.2,15.1-1.5
				c3.5,3.1,3.7,8.5-0.1,12.1c0,0-0.1,0.1-0.1,0.1"/>
			<path class="st5" d="M177.7,28.7c-0.4,0.1-0.8,0.2-1.1,0.3c-4,0.8-8.1-0.4-10.3-2.9c-3.5-4-1.6-10.7,3.8-12.8
				c4.2-1.6,9.5-0.2,12.3,3.4c0.3,0.4,0.5,0.8,0.8,1.2c0,0,0,0,0,0"/>
			<path class="st5" d="M187.9,37.1c0,0.3-0.1,0.6-0.1,0.9c-0.6,3.6-3.3,6.6-6.8,7.4c-5.5,1.4-12-2.5-12.3-7.7
				c-0.2-3.9,3.1-7.7,7.9-8.7c0.6-0.1,1.2-0.2,1.8-0.2"/>
			<path class="st5" d="M200.6,31.9c0.4,0.1,0.7,0.3,1.1,0.5c3.6,1.8,5.7,5,5.4,8.1c-0.5,5-7.1,8.8-12.7,7.2
				c-4.3-1.2-7.1-5.4-6.4-9.7c0.1-0.5,0.2-0.9,0.4-1.4"/>
			<path class="st5" d="M199.6,19.7c3.3-2.8,8-3.6,11.6-2.1c5.1,2.2,6.9,8.9,3.1,12.9c-2.9,3-8.2,3.8-12.6,1.8
				c-0.5-0.2-1-0.5-1.5-0.9"/>
			<path class="st5" d="M188.2,42.5c-3.2,6.2-6.4,15-4.5,23.8c1.5,6.9,5.2,9.2,7.5,14.6c2.9,6.8,3.6,18.5-6.6,39.6"/>
			<path class="st5" d="M206.8,75.6c-2.1-0.3-4-1.4-4.9-3.2c-0.1-0.3-0.3-0.6-0.3-0.9c-0.6-2.2,0.4-4.5,2.5-5.8
				c0.3-0.2,0.7-0.4,1.1-0.6c2.1-0.8,4.4-0.5,6.1,0.5c0.5,0.3,1,0.7,1.4,1.1c0.3,0.4,0.6,0.8,0.9,1.2c0.3,0.6,0.4,1.1,0.5,1.7
				c0.1,1.1-0.2,2.3-0.8,3.2c-0.6,1-1.6,1.8-2.9,2.3c-0.1,0-0.2,0.1-0.3,0.1C208.9,75.6,207.9,75.7,206.8,75.6L206.8,75.6z"/>
			<path class="st5" d="M204.1,65.4c-0.1-0.1-0.2-0.2-0.3-0.4c-1.3-1.6-1.4-3.6-0.4-5.1c1.6-2.3,5.8-2.8,8-0.8
				c1.9,1.6,2,4.5-0.1,6.5l-0.1,0.1"/>
			<path class="st5" d="M201.2,71.4c-0.2,0-0.3,0.1-0.5,0.1c-2.2,0.5-4.4-0.1-5.6-1.5c-1.9-2.1-0.9-5.7,2-6.8c2.2-0.8,5-0.1,6.5,1.8
				c0.1,0.2,0.3,0.4,0.4,0.6c0,0,0,0,0,0"/>
			<path class="st5" d="M206.6,75.9c-0.1,1.5-0.9,2.8-2,3.6c-0.5,0.4-1.1,0.6-1.7,0.8c-2.9,0.7-6.4-1.3-6.5-4.1
				c-0.1-2.1,1.7-4.1,4.3-4.6c0.3,0,0.5-0.1,0.8-0.1"/>
			<path class="st5" d="M213.4,73.1c0.2,0.1,0.4,0.2,0.6,0.3c1.9,0.9,3,2.7,2.9,4.3c-0.3,2.6-3.8,4.7-6.8,3.8
				c-2.4-0.7-2.1-5.9-3.2-5.9c-0.1,0-0.3,0.1-0.5,0.2c-0.6,0.5-1.2,1.8-1.7,3.7c-1.2,4-2.2,10.7-1.7,17.5c0.6,7.9,2.7,10.6,2.4,18.2
				c-0.2,4.5-1.2,8.1-2,10.5"/>
			<path class="st5" d="M212.9,66.7c1.7-1.5,4.3-1.9,6.1-1.1c2.7,1.2,3.7,4.7,1.6,6.9c-1.5,1.6-4.4,2-6.7,0.9
				c-0.3-0.1-0.5-0.3-0.8-0.5"/>
			<path class="st5" d="M164.3,76.9c-2-0.2-3.8-1.3-4.6-3.1c-0.1-0.3-0.2-0.5-0.3-0.8c-0.6-2.1,0.4-4.3,2.4-5.5
				c0.3-0.2,0.7-0.4,1.1-0.5c2-0.8,4.1-0.5,5.8,0.5c0.5,0.3,0.9,0.6,1.3,1c0.3,0.4,0.6,0.7,0.8,1.2c0.3,0.5,0.4,1.1,0.5,1.6
				c0.1,1.1-0.2,2.2-0.8,3.1c-0.6,0.9-1.6,1.7-2.8,2.2c-0.1,0-0.2,0.1-0.3,0.1C166.3,76.9,165.3,77,164.3,76.9L164.3,76.9z"/>
			<path class="st5" d="M161.6,67.2c-0.1-0.1-0.2-0.2-0.3-0.3c-1.2-1.5-1.4-3.4-0.4-4.8c1.5-2.2,5.5-2.6,7.6-0.8
				c1.8,1.6,1.9,4.3-0.1,6.2c0,0,0,0-0.1,0.1"/>
			<path class="st5" d="M158.9,72.9c-0.2,0-0.3,0.1-0.5,0.1c-2.1,0.4-4.2-0.1-5.3-1.4c-1.8-2-0.8-5.4,1.9-6.5
				c2.1-0.8,4.8-0.1,6.2,1.7c0.1,0.2,0.3,0.4,0.4,0.6c0,0,0,0,0,0"/>
			<path class="st5" d="M164,77.2c0,0.2,0,0.3-0.1,0.4c-0.3,1.8-1.7,3.3-3.5,3.8c-2.8,0.7-6.1-1.3-6.2-3.9c-0.1-2,1.6-3.9,4.1-4.4
				c0.2,0,0.5-0.1,0.8-0.1"/>
			<path class="st5" d="M170.5,74.6c0.2,0.1,0.4,0.2,0.6,0.2c1.8,0.9,2.9,2.5,2.7,4.1c-0.3,2.5-3.6,4.5-6.5,3.6
				c-2.2-0.6-3.6-2.7-3.2-4.9c0-0.2,0.1-0.5,0.2-0.7"/>
			<path class="st5" d="M170,68.4c1.7-1.4,4.1-1.9,5.9-1.1c2.6,1.1,3.5,4.5,1.6,6.6c-1.4,1.5-4.2,1.9-6.4,0.9
				c-0.3-0.1-0.5-0.3-0.8-0.4"/>
			<path class="st5" d="M162.7,80.5c0.6,7.7,2.4,13.4,3.9,17.2c2,4.9,4,7.5,4.5,12.3c0.5,5-0.9,9.2-2.1,12"/>
		</g>
	</g>
	<g>
		<g>
			<path class="st1" d="M292.8,65.2c2.7,1.2,3.7,4.8,1.6,6.9c-1.5,1.6-4.4,2-6.7,0.9c-0.3-0.1-0.5-0.3-0.8-0.5l0,0
				c0.6-1,0.9-2.1,0.8-3.3c-0.1-0.6-0.2-1.1-0.5-1.7c-0.2-0.5-0.5-0.9-0.9-1.2l0.2-0.1C288.4,64.8,290.9,64.3,292.8,65.2z"/>
			<path class="st2" d="M287.8,73.1c1.9,1,3,2.7,2.9,4.4c-0.3,2.7-3.8,4.7-6.8,3.8c-2.4-0.7-2.1-5.9-3.2-5.9v-0.1
				c1,0.1,2.1,0,3.1-0.3c0.1,0,0.2-0.1,0.3-0.1c1.3-0.5,2.3-1.3,2.9-2.3l0,0C287.2,72.7,287.5,72.9,287.8,73.1
				C287.8,73,287.8,73.1,287.8,73.1z"/>
			<path class="st1" d="M285,16.9c5.1,2.2,6.9,9,3.1,13c-2.9,3-8.2,3.8-12.5,1.8c-0.5-0.2-1-0.5-1.5-0.9l-0.1,0
				c1.2-1.8,1.8-4,1.5-6.1c-0.1-1.1-0.4-2.2-0.9-3.2c-0.4-0.8-1-1.6-1.6-2.3l0.5-0.1C276.7,16.1,281.4,15.3,285,16.9L285,16.9z"/>
			<path class="st3" d="M285.1,65.2c0.5,0.3,1,0.7,1.4,1.1c0.3,0.4,0.6,0.8,0.9,1.2c0.3,0.6,0.4,1.1,0.5,1.7
				c0.1,1.1-0.2,2.3-0.8,3.3c-0.6,1-1.6,1.8-2.9,2.3c-0.1,0-0.2,0.1-0.3,0.1c-1,0.3-2.1,0.4-3.1,0.3c-2.1-0.3-4-1.4-4.9-3.2
				c-0.1-0.3-0.3-0.6-0.3-0.9c-0.6-2.2,0.4-4.5,2.5-5.8c0.3-0.2,0.7-0.4,1.1-0.6C281.1,64,283.4,64.2,285.1,65.2L285.1,65.2z"/>
			<path class="st4" d="M277.5,64.6c-1.3-1.6-1.4-3.6-0.4-5.1c1.6-2.3,5.8-2.8,8-0.8c1.9,1.6,2,4.6-0.1,6.5c-1.7-1-4-1.3-6.1-0.5
				c-0.4,0.2-0.8,0.3-1.1,0.6C277.7,65.1,277.6,64.9,277.5,64.6L277.5,64.6L277.5,64.6z"/>
			<path class="st4" d="M275.5,31.8c3.6,1.8,5.7,5,5.4,8.2c-0.5,5-7.1,8.9-12.7,7.2c-4.3-1.3-7.1-5.4-6.4-9.8
				c0.1-0.5,0.2-0.9,0.4-1.4l0-0.2c1.9,0.2,3.9,0.1,5.8-0.6c0.2-0.1,0.4-0.1,0.6-0.2c2.4-0.9,4.3-2.5,5.5-4.3l0.1,0
				C274.5,31.1,275,31.4,275.5,31.8L275.5,31.8L275.5,31.8z"/>
			<path class="st2" d="M280.6,75.3L280.6,75.3c-0.2,0.1-0.3,0.2-0.5,0.3c-0.5,0.5-1.2,1.8-1.7,3.7c-0.5,0.4-1.1,0.6-1.7,0.8
				c-2.9,0.7-6.4-1.4-6.5-4.1c-0.1-2.1,1.7-4.2,4.3-4.7c0.3,0,0.5-0.1,0.8-0.1l0.1,0c0.1,0.3,0.2,0.6,0.3,0.9
				C276.7,73.8,278.5,75,280.6,75.3L280.6,75.3z"/>
			<path class="st1" d="M274.5,71.2c-2.2,0.5-4.4-0.1-5.6-1.5c-1.9-2.1-0.9-5.7,2-6.8c2.2-0.9,5-0.1,6.5,1.8
				c0.1,0.2,0.3,0.4,0.4,0.6c-2.1,1.3-3.1,3.6-2.5,5.8l-0.1,0C275,71.2,274.8,71.2,274.5,71.2L274.5,71.2L274.5,71.2z"/>
			<path class="st3" d="M270.4,17.1c1,0.6,1.8,1.3,2.5,2.1c0.6,0.7,1.2,1.5,1.6,2.3c0.5,1,0.8,2.1,0.9,3.2c0.2,2.2-0.3,4.3-1.5,6.1
				c-1.2,1.9-3.1,3.4-5.5,4.3c-0.2,0.1-0.4,0.2-0.6,0.2c-1.9,0.6-3.9,0.8-5.8,0.6c-3.9-0.5-7.5-2.7-9.2-6.1
				c-0.3-0.5-0.5-1.1-0.6-1.7c-1.2-4.1,0.7-8.5,4.6-11c0.6-0.4,1.4-0.8,2.1-1.1C262.9,14.6,267.2,15.1,270.4,17.1L270.4,17.1z"/>
			<path class="st2" d="M256.2,15.9c-2.4-3-2.7-6.8-0.8-9.6c3-4.3,10.8-5.2,15.1-1.5c3.5,3.1,3.7,8.6-0.1,12.2
				c-3.3-2-7.6-2.4-11.4-0.9c-0.8,0.3-1.5,0.6-2.1,1.1c-0.2-0.4-0.5-0.8-0.8-1.2L256.2,15.9L256.2,15.9z"/>
			<path class="st1" d="M261.6,37.4c-0.5,3.6-3.3,6.6-6.8,7.5c-5.5,1.4-12-2.5-12.3-7.8c-0.2-3.9,3.1-7.7,7.9-8.7
				c0.6-0.1,1.2-0.2,1.8-0.2l0.1,0c0.2,0.6,0.4,1.1,0.6,1.7c1.7,3.4,5.2,5.6,9.2,6.1l0,0.2c-0.2,0.5-0.3,0.9-0.4,1.4H261.6
				L261.6,37.4z"/>
			<path class="st4" d="M250.3,28.3c-4,0.8-8.1-0.4-10.3-2.9c-3.5-4-1.6-10.7,3.8-12.9c4.2-1.6,9.5-0.2,12.3,3.5
				c0.3,0.4,0.5,0.8,0.8,1.2c-3.9,2.5-5.8,6.8-4.6,11l-0.1,0c-0.6,0-1.2,0.1-1.8,0.2L250.3,28.3L250.3,28.3z"/>
			<path class="st4" d="M249.7,66.9c2.6,1.1,3.5,4.5,1.6,6.6c-1.4,1.5-4.2,2-6.4,0.9c-0.3-0.1-0.5-0.3-0.8-0.4l0,0
				c0.6-0.9,0.9-2,0.8-3.1c-0.1-0.5-0.2-1.1-0.5-1.6c-0.2-0.4-0.5-0.8-0.8-1.2l0.2-0.1C245.5,66.5,247.9,66.1,249.7,66.9L249.7,66.9
				z"/>
			<path class="st1" d="M244.8,74.5c1.8,0.9,2.9,2.6,2.7,4.2c-0.3,2.5-3.6,4.5-6.5,3.7c-2.2-0.6-3.6-2.8-3.2-5
				c0-0.2,0.1-0.5,0.2-0.7v-0.1c1,0.1,2,0,2.9-0.3c0.1,0,0.2-0.1,0.3-0.1c1.2-0.5,2.2-1.2,2.8-2.2l0,0
				C244.3,74.2,244.6,74.3,244.8,74.5L244.8,74.5L244.8,74.5z"/>
			<path class="st2" d="M242.3,67c0.5,0.3,0.9,0.6,1.3,1.1c0.3,0.4,0.6,0.7,0.8,1.2c0.3,0.5,0.4,1.1,0.5,1.6
				c0.1,1.1-0.2,2.2-0.8,3.1c-0.6,0.9-1.6,1.7-2.8,2.2c-0.1,0-0.2,0.1-0.3,0.1c-1,0.3-2,0.4-2.9,0.3c-2-0.2-3.8-1.4-4.6-3.1
				c-0.1-0.3-0.2-0.6-0.3-0.8c-0.6-2.1,0.4-4.3,2.4-5.6c0.3-0.2,0.7-0.4,1.1-0.5C238.5,65.8,240.7,66,242.3,67L242.3,67z"/>
			<path class="st1" d="M235.1,66.4c-1.2-1.5-1.4-3.5-0.4-4.9c1.5-2.2,5.5-2.7,7.6-0.8c1.8,1.6,1.9,4.4-0.1,6.2
				c-1.6-1-3.8-1.2-5.8-0.5c-0.4,0.1-0.7,0.3-1.1,0.5C235.3,66.9,235.2,66.7,235.1,66.4L235.1,66.4L235.1,66.4z"/>
			<path class="st2" d="M237.8,77.3c-0.3,1.8-1.7,3.4-3.5,3.8c-2.8,0.7-6.1-1.3-6.2-4c-0.1-2,1.6-4,4.1-4.5c0.2,0,0.5-0.1,0.8-0.1
				l0.1,0c0.1,0.3,0.2,0.6,0.3,0.8c0.9,1.7,2.7,2.8,4.6,3.1v0.1C237.9,76.9,237.9,77.1,237.8,77.3L237.8,77.3L237.8,77.3z"/>
			<path class="st4" d="M232.2,72.7c-2.1,0.5-4.2-0.1-5.3-1.4c-1.8-2-0.8-5.4,1.9-6.5c2.1-0.8,4.8-0.1,6.2,1.8
				c0.1,0.2,0.3,0.4,0.4,0.6c-2,1.2-2.9,3.5-2.4,5.6l-0.1,0C232.7,72.7,232.5,72.7,232.2,72.7L232.2,72.7L232.2,72.7z"/>
		</g>
		<g>
			<path class="st5" d="M262.1,35.9c-3.9-0.5-7.5-2.7-9.2-6.1c-0.3-0.5-0.5-1.1-0.6-1.7c-1.2-4.1,0.7-8.5,4.6-11
				c0.6-0.4,1.4-0.8,2.1-1.1c3.9-1.5,8.2-1,11.4,0.9c1,0.6,1.8,1.3,2.5,2.1c0.6,0.7,1.2,1.5,1.6,2.3c0.5,1,0.8,2.1,0.9,3.2
				c0.2,2.2-0.3,4.3-1.5,6.1c-1.2,1.9-3.1,3.4-5.5,4.3c-0.2,0.1-0.4,0.2-0.6,0.2C265.9,35.9,264,36.1,262.1,35.9L262.1,35.9z"/>
			<path class="st5" d="M256.8,16.6c-0.2-0.2-0.4-0.5-0.6-0.7c-2.4-3-2.7-6.8-0.8-9.6c3-4.3,10.8-5.2,15.1-1.5
				c3.5,3.1,3.7,8.6-0.1,12.2c0,0-0.1,0.1-0.1,0.1"/>
			<path class="st5" d="M251.5,28c-0.4,0.1-0.8,0.2-1.1,0.3c-4,0.8-8.1-0.4-10.3-2.9c-3.5-4-1.6-10.7,3.8-12.9
				c4.2-1.6,9.5-0.2,12.3,3.5c0.3,0.4,0.5,0.8,0.8,1.2c0,0,0,0,0,0"/>
			<path class="st5" d="M261.6,36.5c0,0.3,0,0.6-0.1,0.9c-0.5,3.6-3.3,6.6-6.8,7.5c-5.5,1.4-12-2.5-12.3-7.8
				c-0.2-3.9,3.1-7.7,7.9-8.7c0.6-0.1,1.2-0.2,1.8-0.2"/>
			<path class="st5" d="M274.4,31.3c0.4,0.1,0.7,0.3,1.1,0.5c3.6,1.8,5.7,5,5.4,8.2c-0.5,5-7.1,8.9-12.7,7.2
				c-4.3-1.3-7.1-5.4-6.4-9.8c0.1-0.5,0.2-0.9,0.4-1.4"/>
			<path class="st5" d="M273.4,19c3.3-2.9,8-3.7,11.6-2.1c5.1,2.2,6.9,9,3.1,13c-2.9,3-8.2,3.8-12.5,1.8c-0.5-0.2-1-0.5-1.5-0.9"/>
			<path class="st5" d="M262,42c-3.2,6.3-6.4,15.1-4.5,24c1.5,7,5.2,9.3,7.5,14.7c2.9,6.9,3.6,18.6-6.6,39.8"/>
			<path class="st5" d="M280.6,75.3c-2.1-0.3-4-1.4-4.9-3.2c-0.1-0.3-0.3-0.6-0.3-0.9c-0.6-2.2,0.4-4.5,2.5-5.8
				c0.3-0.2,0.7-0.4,1.1-0.6c2.1-0.8,4.4-0.6,6.1,0.5c0.5,0.3,1,0.7,1.4,1.1c0.3,0.4,0.6,0.8,0.9,1.2c0.3,0.6,0.4,1.1,0.5,1.7
				c0.1,1.1-0.2,2.3-0.8,3.3c-0.6,1-1.6,1.8-2.9,2.3c-0.1,0-0.2,0.1-0.3,0.1C282.7,75.3,281.6,75.4,280.6,75.3L280.6,75.3z"/>
			<path class="st5" d="M277.8,65c-0.1-0.1-0.2-0.2-0.3-0.4c-1.3-1.6-1.4-3.6-0.4-5.1c1.6-2.3,5.8-2.8,8-0.8c1.9,1.6,2,4.6-0.1,6.5
				l-0.1,0.1"/>
			<path class="st5" d="M275,71.1c-0.2,0-0.3,0.1-0.5,0.1c-2.2,0.5-4.4-0.1-5.6-1.5c-1.9-2.1-0.9-5.7,2-6.8c2.2-0.9,5-0.1,6.5,1.8
				c0.1,0.2,0.3,0.4,0.4,0.6c0,0,0,0,0,0"/>
			<path class="st5" d="M280.4,75.6c-0.1,1.5-0.9,2.8-2,3.7c-0.5,0.4-1.1,0.6-1.7,0.8c-2.9,0.7-6.4-1.4-6.5-4.1
				c-0.1-2.1,1.7-4.2,4.3-4.7c0.3,0,0.5-0.1,0.8-0.1"/>
			<path class="st5" d="M287.2,72.8c0.2,0.1,0.4,0.2,0.6,0.3c1.9,1,3,2.7,2.9,4.4c-0.3,2.7-3.8,4.7-6.8,3.8
				c-2.4-0.7-2.1-5.9-3.2-5.9c-0.1,0-0.3,0.1-0.5,0.2c-0.5,0.5-1.2,1.8-1.7,3.7c-1.2,4.1-2.2,10.7-1.7,17.6
				c0.6,7.9,2.7,10.7,2.4,18.4c-0.2,4.6-1.2,8.2-2,10.5"/>
			<path class="st5" d="M286.7,66.3c1.7-1.5,4.3-2,6.1-1.1c2.7,1.2,3.7,4.8,1.6,6.9c-1.5,1.6-4.4,2-6.7,0.9
				c-0.3-0.1-0.5-0.3-0.8-0.5"/>
			<path class="st5" d="M238,76.6c-2-0.2-3.8-1.4-4.6-3.1c-0.1-0.3-0.2-0.6-0.3-0.8c-0.6-2.1,0.4-4.3,2.4-5.6
				c0.3-0.2,0.7-0.4,1.1-0.5c2-0.8,4.1-0.5,5.8,0.5c0.5,0.3,0.9,0.6,1.3,1.1c0.3,0.4,0.6,0.7,0.8,1.2c0.3,0.5,0.4,1.1,0.5,1.6
				c0.1,1.1-0.2,2.2-0.8,3.1c-0.6,0.9-1.6,1.7-2.8,2.2c-0.1,0-0.2,0.1-0.3,0.1C240,76.6,239,76.7,238,76.6L238,76.6z"/>
			<path class="st5" d="M235.4,66.8c-0.1-0.1-0.2-0.2-0.3-0.3c-1.2-1.5-1.4-3.5-0.4-4.9c1.5-2.2,5.5-2.7,7.6-0.8
				c1.8,1.6,1.9,4.4-0.1,6.2c0,0,0,0-0.1,0.1"/>
			<path class="st5" d="M232.7,72.6c-0.2,0-0.3,0.1-0.5,0.1c-2.1,0.5-4.2-0.1-5.3-1.4c-1.8-2-0.8-5.4,1.9-6.5
				c2.1-0.8,4.8-0.1,6.2,1.8c0.1,0.2,0.3,0.4,0.4,0.6c0,0,0,0,0,0"/>
			<path class="st5" d="M237.8,76.9c0,0.2,0,0.3-0.1,0.5c-0.3,1.8-1.7,3.4-3.5,3.8c-2.8,0.7-6.1-1.3-6.2-4c-0.1-2,1.6-4,4.1-4.5
				c0.2,0,0.5-0.1,0.8-0.1"/>
			<path class="st5" d="M244.3,74.2c0.2,0.1,0.4,0.2,0.6,0.2c1.8,0.9,2.9,2.6,2.7,4.2c-0.3,2.5-3.6,4.5-6.5,3.7
				c-2.2-0.6-3.6-2.8-3.2-5c0-0.2,0.1-0.5,0.2-0.7"/>
			<path class="st5" d="M243.8,68c1.7-1.5,4.1-1.9,5.9-1.1c2.6,1.1,3.5,4.5,1.6,6.6c-1.4,1.5-4.2,2-6.4,0.9
				c-0.3-0.1-0.5-0.3-0.8-0.4"/>
			<path class="st5" d="M236.5,80.2c0.6,7.7,2.4,13.5,3.9,17.3c2,4.9,4,7.5,4.5,12.3c0.5,5-0.9,9.3-2.1,12.1"/>
		</g>
	</g>
	<g>
		<g>
			<path class="st1" d="M362.4,65.4c2.7,1.2,3.7,4.8,1.6,6.9c-1.5,1.6-4.4,2-6.7,0.9c-0.3-0.1-0.5-0.3-0.8-0.5l0,0
				c0.6-1,0.9-2.1,0.8-3.2c-0.1-0.6-0.2-1.1-0.5-1.7c-0.2-0.4-0.5-0.9-0.9-1.2l0.2-0.1C358,65.1,360.5,64.6,362.4,65.4z"/>
			<path class="st2" d="M357.4,73.3c1.9,0.9,3,2.7,2.9,4.3c-0.3,2.6-3.8,4.7-6.8,3.8c-2.4-0.7-2.1-5.9-3.2-5.9v-0.1
				c1,0.1,2.1,0,3.1-0.3c0.1,0,0.2-0.1,0.3-0.1c1.3-0.5,2.3-1.3,2.9-2.3l0,0C356.8,73,357.1,73.1,357.4,73.3
				C357.4,73.3,357.4,73.3,357.4,73.3z"/>
			<path class="st1" d="M354.6,17.4c5.1,2.2,6.9,8.9,3.1,12.9c-2.9,3-8.2,3.8-12.5,1.8c-0.5-0.2-1-0.5-1.5-0.9l-0.1,0
				c1.2-1.8,1.8-4,1.5-6.1c-0.1-1.1-0.4-2.1-0.9-3.2c-0.4-0.8-1-1.6-1.6-2.3l0.5-0.1C346.3,16.7,351,15.9,354.6,17.4L354.6,17.4z"/>
			<path class="st3" d="M347.5,65.6c0.3-0.2,0.7-0.4,1.1-0.6c2.1-0.8,4.4-0.5,6.1,0.5c0.5,0.3,1,0.7,1.4,1.1
				c0.3,0.4,0.6,0.8,0.9,1.2c0.3,0.6,0.4,1.1,0.5,1.7c0.1,1.1-0.2,2.3-0.8,3.2c-0.6,1-1.6,1.8-2.9,2.3c-0.1,0-0.2,0.1-0.3,0.1
				c-1,0.3-2.1,0.4-3.1,0.3c-2.1-0.3-4-1.4-4.9-3.2c-0.1-0.3-0.3-0.6-0.3-0.9C344.4,69.2,345.4,66.9,347.5,65.6L347.5,65.6z"/>
			<path class="st4" d="M347.1,64.9c-1.3-1.6-1.4-3.6-0.4-5.1c1.6-2.3,5.8-2.8,8-0.8c1.9,1.6,2,4.5-0.1,6.5c-1.7-1-4-1.3-6.1-0.5
				c-0.4,0.2-0.8,0.3-1.1,0.6C347.4,65.4,347.2,65.2,347.1,64.9L347.1,64.9L347.1,64.9z"/>
			<path class="st4" d="M345.1,32.2c3.6,1.8,5.7,5,5.4,8.2c-0.5,5-7.1,8.8-12.7,7.2c-4.3-1.3-7.1-5.4-6.4-9.7
				c0.1-0.5,0.2-0.9,0.4-1.4l0-0.2c1.9,0.2,3.9,0.1,5.8-0.6c0.2-0.1,0.4-0.1,0.6-0.2c2.4-0.9,4.3-2.5,5.5-4.3l0.1,0
				C344.1,31.6,344.6,31.9,345.1,32.2L345.1,32.2L345.1,32.2z"/>
			<path class="st2" d="M350.2,75.5L350.2,75.5c-0.2,0.1-0.3,0.2-0.5,0.3c-0.5,0.5-1.2,1.8-1.7,3.7c-0.5,0.4-1.1,0.6-1.7,0.8
				c-2.9,0.7-6.4-1.3-6.5-4.1c-0.1-2.1,1.7-4.1,4.3-4.6c0.3,0,0.5-0.1,0.8-0.1l0.1,0c0.1,0.3,0.2,0.6,0.3,0.9
				C346.3,74.1,348.1,75.2,350.2,75.5L350.2,75.5z"/>
			<path class="st1" d="M344.1,71.5c-2.2,0.5-4.4-0.1-5.6-1.5c-1.9-2.1-0.9-5.7,2-6.8c2.2-0.9,5-0.1,6.5,1.8
				c0.1,0.2,0.3,0.4,0.4,0.6c-2.1,1.3-3.1,3.6-2.5,5.8l-0.1,0C344.6,71.4,344.4,71.5,344.1,71.5L344.1,71.5L344.1,71.5z"/>
			<path class="st3" d="M326.5,17.7c0.6-0.4,1.4-0.8,2.1-1c3.9-1.5,8.2-1,11.4,0.9c1,0.6,1.8,1.3,2.5,2.1c0.6,0.7,1.2,1.5,1.6,2.3
				c0.5,1,0.8,2.1,0.9,3.2c0.2,2.1-0.3,4.3-1.5,6.1c-1.2,1.8-3.1,3.4-5.5,4.3c-0.2,0.1-0.4,0.2-0.6,0.2c-1.9,0.6-3.9,0.8-5.8,0.6
				c-3.9-0.5-7.5-2.7-9.2-6.1c-0.3-0.5-0.5-1.1-0.6-1.6C320.7,24.5,322.5,20.1,326.5,17.7L326.5,17.7z"/>
			<path class="st2" d="M325.8,16.5c-2.4-3-2.7-6.8-0.8-9.5c3-4.3,10.8-5.2,15.1-1.5c3.5,3.1,3.7,8.5-0.1,12.2
				c-3.3-1.9-7.6-2.4-11.4-0.9c-0.8,0.3-1.5,0.6-2.1,1c-0.2-0.4-0.5-0.8-0.8-1.2L325.8,16.5L325.8,16.5z"/>
			<path class="st1" d="M331.2,37.9c-0.5,3.6-3.3,6.6-6.8,7.5c-5.5,1.4-12-2.5-12.3-7.7c-0.2-3.9,3.1-7.7,7.9-8.7
				c0.6-0.1,1.2-0.2,1.8-0.2l0.1,0c0.2,0.6,0.4,1.1,0.6,1.6c1.7,3.4,5.2,5.6,9.2,6.1l0,0.2c-0.2,0.5-0.3,0.9-0.4,1.4H331.2
				L331.2,37.9z"/>
			<path class="st4" d="M319.9,28.8c-4,0.8-8.1-0.4-10.3-2.9c-3.5-4-1.6-10.7,3.8-12.8c4.2-1.6,9.5-0.2,12.3,3.4
				c0.3,0.4,0.5,0.8,0.8,1.2c-4,2.4-5.8,6.8-4.6,10.9l-0.1,0c-0.6,0-1.2,0.1-1.8,0.2L319.9,28.8L319.9,28.8z"/>
			<path class="st4" d="M319.3,67.2c2.6,1.1,3.5,4.5,1.6,6.6c-1.5,1.5-4.2,1.9-6.4,0.9c-0.3-0.1-0.5-0.3-0.8-0.4l0,0
				c0.6-0.9,0.9-2,0.8-3.1c-0.1-0.5-0.2-1.1-0.5-1.6c-0.2-0.4-0.5-0.8-0.8-1.2l0.2-0.1C315.1,66.8,317.5,66.4,319.3,67.2L319.3,67.2
				z"/>
			<path class="st1" d="M314.4,74.7c1.8,0.9,2.9,2.5,2.7,4.1c-0.3,2.5-3.6,4.5-6.5,3.6c-2.2-0.6-3.6-2.7-3.2-4.9
				c0-0.2,0.1-0.5,0.2-0.7v-0.1c1,0.1,2,0,2.9-0.3c0.1,0,0.2-0.1,0.3-0.1c1.2-0.5,2.2-1.2,2.8-2.2l0,0
				C314,74.4,314.2,74.5,314.4,74.7L314.4,74.7L314.4,74.7z"/>
			<path class="st2" d="M305,67.4c0.3-0.2,0.7-0.4,1.1-0.5c2-0.8,4.1-0.5,5.8,0.5c0.5,0.3,0.9,0.6,1.3,1c0.3,0.4,0.6,0.7,0.8,1.2
				c0.3,0.5,0.4,1.1,0.5,1.6c0.1,1.1-0.2,2.2-0.8,3.1c-0.6,0.9-1.6,1.7-2.8,2.2c-0.1,0-0.2,0.1-0.3,0.1c-1,0.3-2,0.4-2.9,0.3
				c-2-0.2-3.8-1.3-4.6-3.1c-0.1-0.3-0.2-0.5-0.3-0.8C302.1,70.8,303,68.6,305,67.4L305,67.4z"/>
			<path class="st1" d="M304.7,66.7c-1.2-1.5-1.4-3.5-0.4-4.8c1.5-2.2,5.5-2.6,7.6-0.8c1.8,1.6,1.9,4.3-0.1,6.2
				c-1.6-1-3.8-1.2-5.8-0.5c-0.4,0.1-0.7,0.3-1.1,0.5C304.9,67.2,304.8,67,304.7,66.7L304.7,66.7L304.7,66.7z"/>
			<path class="st2" d="M307.4,77.6c-0.3,1.8-1.7,3.3-3.5,3.8c-2.8,0.7-6.1-1.3-6.2-3.9c-0.1-2,1.6-4,4.1-4.4c0.2,0,0.5-0.1,0.8-0.1
				l0.1,0c0.1,0.3,0.2,0.6,0.3,0.8c0.9,1.7,2.7,2.8,4.6,3.1v0.1C307.5,77.1,307.5,77.3,307.4,77.6L307.4,77.6L307.4,77.6z"/>
			<path class="st4" d="M301.8,73c-2.1,0.4-4.2-0.1-5.3-1.4c-1.8-2-0.8-5.4,2-6.5c2.1-0.8,4.8-0.1,6.2,1.8c0.1,0.2,0.3,0.4,0.4,0.6
				c-2,1.2-3,3.4-2.4,5.5l-0.1,0C302.3,72.9,302.1,73,301.8,73L301.8,73L301.8,73z"/>
		</g>
		<g>
			<path class="st5" d="M331.7,36.3c-3.9-0.5-7.5-2.7-9.2-6.1c-0.3-0.5-0.5-1.1-0.6-1.6c-1.2-4.1,0.7-8.5,4.6-10.9
				c0.6-0.4,1.4-0.8,2.1-1c3.9-1.5,8.2-1,11.4,0.9c1,0.6,1.8,1.3,2.5,2.1c0.6,0.7,1.2,1.5,1.6,2.3c0.5,1,0.8,2.1,0.9,3.2
				c0.2,2.1-0.3,4.3-1.5,6.1c-1.2,1.8-3.1,3.4-5.5,4.3c-0.2,0.1-0.4,0.2-0.6,0.2C335.5,36.4,333.6,36.5,331.7,36.3L331.7,36.3z"/>
			<path class="st5" d="M326.4,17.2c-0.2-0.2-0.4-0.4-0.6-0.7c-2.4-3-2.7-6.8-0.8-9.5c3-4.3,10.8-5.2,15.1-1.5
				c3.5,3.1,3.7,8.5-0.1,12.2c0,0-0.1,0.1-0.1,0.1"/>
			<path class="st5" d="M321.1,28.5c-0.4,0.1-0.8,0.2-1.1,0.3c-4,0.8-8.1-0.4-10.3-2.9c-3.5-4-1.6-10.7,3.8-12.8
				c4.2-1.6,9.5-0.2,12.3,3.4c0.3,0.4,0.5,0.8,0.8,1.2c0,0,0,0,0,0"/>
			<path class="st5" d="M331.2,37c0,0.3,0,0.6-0.1,0.9c-0.5,3.6-3.3,6.6-6.8,7.5c-5.5,1.4-12-2.5-12.3-7.7c-0.2-3.9,3.1-7.7,7.9-8.7
				c0.6-0.1,1.2-0.2,1.8-0.2"/>
			<path class="st5" d="M344,31.7c0.4,0.1,0.7,0.3,1.1,0.5c3.6,1.8,5.7,5,5.4,8.2c-0.5,5-7.1,8.8-12.7,7.2c-4.3-1.3-7.1-5.4-6.4-9.7
				c0.1-0.5,0.2-0.9,0.4-1.4"/>
			<path class="st5" d="M343,19.5c3.3-2.9,8-3.6,11.6-2.1c5.1,2.2,6.9,8.9,3.1,12.9c-2.9,3-8.2,3.8-12.5,1.8c-0.5-0.2-1-0.5-1.5-0.9
				"/>
			<path class="st5" d="M331.6,42.4c-3.2,6.2-6.4,15-4.5,23.9c1.5,6.9,5.2,9.3,7.5,14.6c2.9,6.9,3.6,18.5-6.6,39.7"/>
			<path class="st5" d="M350.2,75.5c-2.1-0.3-4-1.4-4.9-3.2c-0.1-0.3-0.3-0.6-0.3-0.9c-0.6-2.2,0.4-4.5,2.5-5.8
				c0.3-0.2,0.7-0.4,1.1-0.6c2.1-0.8,4.4-0.5,6.1,0.5c0.5,0.3,1,0.7,1.4,1.1c0.3,0.4,0.6,0.8,0.9,1.2c0.3,0.6,0.4,1.1,0.5,1.7
				c0.1,1.1-0.2,2.3-0.8,3.2c-0.6,1-1.6,1.8-2.9,2.3c-0.1,0-0.2,0.1-0.3,0.1C352.3,75.5,351.2,75.6,350.2,75.5L350.2,75.5z"/>
			<path class="st5" d="M347.4,65.3c-0.1-0.1-0.2-0.2-0.3-0.4c-1.3-1.6-1.4-3.6-0.4-5.1c1.6-2.3,5.8-2.8,8-0.8
				c1.9,1.6,2,4.5-0.1,6.5l-0.1,0.1"/>
			<path class="st5" d="M344.6,71.3c-0.2,0-0.3,0.1-0.5,0.1c-2.2,0.5-4.4-0.1-5.6-1.5c-1.9-2.1-0.9-5.7,2-6.8c2.2-0.9,5-0.1,6.5,1.8
				c0.1,0.2,0.3,0.4,0.4,0.6c0,0,0,0,0,0"/>
			<path class="st5" d="M350,75.8c-0.1,1.5-0.9,2.8-2,3.7c-0.5,0.4-1.1,0.6-1.7,0.8c-2.9,0.7-6.4-1.3-6.5-4.1
				c-0.1-2.1,1.7-4.1,4.3-4.6c0.3,0,0.5-0.1,0.8-0.1"/>
			<path class="st5" d="M356.8,73.1c0.2,0.1,0.4,0.2,0.6,0.3c1.9,0.9,3,2.7,2.9,4.3c-0.3,2.6-3.8,4.7-6.8,3.8
				c-2.4-0.7-2.1-5.9-3.2-5.9c-0.1,0-0.3,0.1-0.5,0.2c-0.5,0.5-1.2,1.8-1.7,3.7c-1.2,4-2.2,10.7-1.7,17.5c0.6,7.9,2.7,10.7,2.4,18.3
				c-0.2,4.6-1.2,8.2-2,10.5"/>
			<path class="st5" d="M356.3,66.6c1.7-1.5,4.3-1.9,6.1-1.1c2.7,1.2,3.7,4.8,1.6,6.9c-1.5,1.6-4.4,2-6.7,0.9
				c-0.3-0.1-0.5-0.3-0.8-0.5"/>
			<path class="st5" d="M307.6,76.8c-2-0.2-3.8-1.3-4.6-3.1c-0.1-0.3-0.2-0.5-0.3-0.8c-0.6-2.1,0.4-4.3,2.4-5.5
				c0.3-0.2,0.7-0.4,1.1-0.5c2-0.8,4.1-0.5,5.8,0.5c0.5,0.3,0.9,0.6,1.3,1c0.3,0.4,0.6,0.7,0.8,1.2c0.3,0.5,0.4,1.1,0.5,1.6
				c0.1,1.1-0.2,2.2-0.8,3.1c-0.6,0.9-1.6,1.7-2.8,2.2c-0.1,0-0.2,0.1-0.3,0.1C309.6,76.8,308.6,76.9,307.6,76.8L307.6,76.8z"/>
			<path class="st5" d="M305,67.1c-0.1-0.1-0.2-0.2-0.3-0.3c-1.2-1.5-1.4-3.5-0.4-4.8c1.5-2.2,5.5-2.6,7.6-0.8
				c1.8,1.6,1.9,4.3-0.1,6.2c0,0,0,0-0.1,0.1"/>
			<path class="st5" d="M302.3,72.8c-0.2,0-0.3,0.1-0.5,0.1c-2.1,0.4-4.2-0.1-5.3-1.4c-1.8-2-0.8-5.4,2-6.5c2.1-0.8,4.8-0.1,6.2,1.8
				c0.1,0.2,0.3,0.4,0.4,0.6c0,0,0,0,0,0"/>
			<path class="st5" d="M307.4,77.1c0,0.2,0,0.3,0,0.4c-0.3,1.8-1.7,3.3-3.5,3.8c-2.8,0.7-6.1-1.3-6.2-3.9c-0.1-2,1.6-4,4.1-4.4
				c0.2,0,0.5-0.1,0.8-0.1"/>
			<path class="st5" d="M313.9,74.5c0.2,0.1,0.4,0.2,0.5,0.2c1.8,0.9,2.9,2.5,2.7,4.1c-0.3,2.5-3.6,4.5-6.5,3.6
				c-2.2-0.6-3.6-2.7-3.2-4.9c0-0.2,0.1-0.5,0.2-0.7"/>
			<path class="st5" d="M313.4,68.3c1.7-1.4,4.1-1.9,5.9-1.1c2.6,1.1,3.5,4.5,1.6,6.6c-1.5,1.5-4.2,1.9-6.4,0.9
				c-0.3-0.1-0.5-0.3-0.8-0.4"/>
			<path class="st5" d="M306.1,80.4c0.5,7.7,2.4,13.4,3.9,17.2c2,4.9,4,7.5,4.5,12.3c0.5,5-0.9,9.3-2.1,12"/>
		</g>
	</g>
</g>
</svg>
