<?xml version="1.0" encoding="UTF-8"?>
<svg xmlns="http://www.w3.org/2000/svg" viewBox="0 0 366.16 127.93">
  <defs>
    <style>
      .cls-1 {
        fill: #f6eca9;
      }

      .cls-1, .cls-2, .cls-3, .cls-4, .cls-5 {
        stroke-width: 0px;
      }

      .cls-2 {
        fill: #c6cf9a;
      }

      .cls-3 {
        fill: #202759;
      }

      .cls-6 {
        fill: none;
        stroke: #231f20;
        stroke-miterlimit: 10;
        stroke-width: 2px;
      }

      .cls-4 {
        fill: #f5eba8;
      }

      .cls-5 {
        fill: #5a6fb5;
      }
    </style>
  </defs>
  <g id="Layer_2" data-name="Layer 2">
    <rect class="cls-1" x="0" width="366.16" height="127.93"/>
  </g>
  <g id="Layer_1" data-name="Layer 1">
    <g>
      <g>
        <path class="cls-5" d="M67.87,64.98c2.74,1.19,3.68,4.79,1.64,6.94-1.53,1.62-4.37,2.05-6.67.95-.28-.13-.54-.29-.8-.46l-.03-.02c.64-.99.94-2.13.82-3.27-.06-.57-.22-1.15-.5-1.7-.23-.45-.51-.87-.85-1.23l.24-.06c1.74-1.53,4.26-1.96,6.15-1.12h0Z"/>
        <path class="cls-2" d="M62.8,72.91c1.91.95,3.03,2.68,2.85,4.38-.28,2.67-3.75,4.74-6.78,3.85-2.36-.69-2.13-5.91-3.21-5.94v-.1c1.02.13,2.07.04,3.08-.3.11-.04.23-.08.34-.12,1.28-.49,2.28-1.32,2.92-2.31l.03.02c.26.18.52.34.8.46l-.04.05h0Z"/>
        <path class="cls-5" d="M60.05,16.56c5.15,2.25,6.92,9,3.09,13.05-2.87,3.04-8.23,3.86-12.55,1.77-.52-.25-1.02-.54-1.5-.88l-.07-.03c1.21-1.84,1.77-4,1.54-6.16-.11-1.07-.42-2.16-.94-3.2-.42-.85-.96-1.63-1.59-2.32l.46-.12c3.27-2.88,8.01-3.69,11.57-2.12h-.01Z"/>
        <path class="cls-4" d="M60.12,65.07c.5.31.96.67,1.35,1.09.33.36.62.78.85,1.23.28.55.44,1.13.5,1.7.12,1.15-.17,2.3-.82,3.27-.65.99-1.65,1.81-2.92,2.31-.11.04-.22.09-.34.12-1.01.34-2.06.42-3.06.3-2.09-.26-3.97-1.43-4.88-3.24-.14-.3-.26-.58-.34-.88-.63-2.21.37-4.53,2.47-5.84.34-.22.72-.4,1.12-.56,2.06-.8,4.35-.54,6.08.49h0Z"/>
        <path class="cls-3" d="M52.57,64.47c-1.28-1.61-1.42-3.64-.39-5.11,1.6-2.29,5.76-2.78,8.02-.81,1.88,1.64,1.97,4.57-.07,6.52-1.73-1.04-4.02-1.29-6.08-.49-.4.16-.77.34-1.12.56-.12-.23-.26-.43-.41-.64l.06-.04h-.01Z"/>
        <path class="cls-3" d="M50.52,31.49c3.59,1.79,5.69,5.06,5.36,8.23-.53,5.03-7.05,8.92-12.74,7.24-4.31-1.27-7.14-5.44-6.4-9.79.08-.46.2-.93.36-1.39l.03-.18c1.89.23,3.86.06,5.76-.56.21-.07.42-.15.63-.23,2.4-.93,4.28-2.47,5.5-4.34l.07.03c.48.34.99.62,1.5.88l-.06.1h0Z"/>
        <path class="cls-2" d="M55.68,75.1v.1c-.16,0-.32.07-.48.22-.55.49-1.18,1.81-1.75,3.73-.5.36-1.07.64-1.68.79-2.94.74-6.39-1.36-6.54-4.15-.11-2.13,1.71-4.17,4.33-4.67.27-.05.54-.09.82-.11l.08-.02c.08.3.2.59.34.88.91,1.81,2.79,2.99,4.88,3.24Z"/>
        <path class="cls-5" d="M49.54,71.04c-2.18.47-4.4-.14-5.59-1.52-1.85-2.14-.87-5.73,2.04-6.86,2.21-.86,5.03-.11,6.52,1.83.15.2.29.41.41.64-2.1,1.31-3.09,3.64-2.47,5.84l-.08.02c-.28.02-.56.05-.82.11l-.02-.06h.01Z"/>
        <path class="cls-4" d="M45.48,16.74c.95.57,1.8,1.26,2.54,2.07.63.69,1.17,1.47,1.59,2.32.52,1.04.83,2.13.94,3.2.23,2.16-.33,4.32-1.54,6.16-1.21,1.86-3.09,3.41-5.5,4.34-.21.08-.42.16-.63.23-1.9.62-3.87.8-5.76.56-3.92-.48-7.47-2.68-9.17-6.1-.27-.54-.48-1.09-.64-1.66-1.18-4.15.68-8.52,4.64-10.99.65-.4,1.35-.76,2.1-1.05,3.88-1.51,8.18-1.02,11.44.93h0Z"/>
        <path class="cls-2" d="M31.27,15.59c-2.41-3.03-2.68-6.84-.74-9.6,3.02-4.3,10.83-5.23,15.08-1.52,3.53,3.08,3.7,8.59-.13,12.26-3.26-1.96-7.56-2.43-11.44-.93-.75.3-1.46.64-2.1,1.05-.23-.42-.49-.82-.78-1.19l.11-.07h0Z"/>
        <path class="cls-5" d="M36.6,37.17c-.55,3.66-3.28,6.62-6.82,7.52-5.53,1.39-12.02-2.55-12.3-7.81-.21-3.94,3.12-7.73,7.91-8.75.57-.12,1.16-.21,1.77-.25l.14-.03c.16.56.37,1.11.64,1.66,1.7,3.42,5.25,5.62,9.17,6.1l-.03.18c-.16.46-.28.94-.36,1.39l-.13-.02h.01Z"/>
        <path class="cls-3" d="M25.36,28.01c-4.03.81-8.09-.35-10.29-2.91-3.47-4.02-1.64-10.76,3.84-12.89,4.16-1.62,9.46-.21,12.26,3.45.28.37.55.78.78,1.19-3.95,2.46-5.82,6.85-4.64,10.99l-.14.03c-.61.04-1.2.12-1.77.25l-.03-.11h-.01Z"/>
        <path class="cls-3" d="M24.73,66.75c2.61,1.14,3.51,4.56,1.57,6.62-1.46,1.54-4.17,1.96-6.37.91-.26-.13-.52-.28-.76-.44l-.03-.02c.61-.94.9-2.03.78-3.12-.06-.55-.21-1.09-.48-1.63-.21-.43-.49-.83-.81-1.17l.23-.06c1.66-1.46,4.06-1.87,5.87-1.07h0Z"/>
        <path class="cls-5" d="M19.89,74.33c1.82.91,2.89,2.56,2.72,4.18-.27,2.55-3.58,4.52-6.46,3.68-2.19-.64-3.62-2.76-3.25-4.97.04-.24.1-.47.18-.71v-.09c.97.12,1.97.03,2.94-.29.11-.04.21-.08.32-.12,1.22-.47,2.17-1.25,2.79-2.2l.03.02c.24.17.5.32.76.44,0,0-.03.05-.03.05Z"/>
        <path class="cls-2" d="M10.47,66.9c.33-.21.68-.38,1.07-.53,1.97-.76,4.15-.52,5.8.47.48.29.92.64,1.29,1.04.32.35.59.75.81,1.17.27.53.42,1.07.48,1.63.12,1.09-.17,2.19-.78,3.12-.62.95-1.57,1.72-2.79,2.2-.11.04-.21.08-.32.12-.96.32-1.96.4-2.92.29-1.99-.25-3.79-1.36-4.65-3.09-.14-.28-.25-.56-.32-.84-.6-2.11.34-4.33,2.35-5.58h-.02Z"/>
        <path class="cls-5" d="M10.14,66.27c-1.23-1.54-1.37-3.48-.38-4.88,1.53-2.18,5.5-2.65,7.65-.77,1.79,1.57,1.88,4.37-.07,6.22-1.65-1-3.83-1.23-5.8-.47-.38.15-.74.33-1.07.53-.11-.21-.24-.4-.39-.59l.06-.04Z"/>
        <path class="cls-2" d="M12.83,77.21c-.28,1.85-1.66,3.36-3.46,3.81-2.81.71-6.1-1.29-6.24-3.96-.11-2.03,1.63-3.98,4.13-4.46.25-.05.52-.09.78-.1l.07-.02c.08.29.19.56.32.84.86,1.73,2.67,2.85,4.65,3.09v.09c-.09.24-.16.47-.2.71h-.07.02Z"/>
        <path class="cls-3" d="M7.24,72.54c-2.08.45-4.2-.13-5.34-1.45-1.76-2.04-.83-5.46,1.95-6.54,2.12-.82,4.81-.11,6.22,1.76.14.19.27.38.39.59-2.01,1.25-2.95,3.47-2.35,5.58l-.07.02c-.27.02-.53.05-.78.1v-.06h-.02Z"/>
      </g>
      <g>
        <path class="cls-6" d="M37.12,35.6c-3.92-.48-7.47-2.68-9.17-6.1-.27-.54-.48-1.09-.64-1.66-1.18-4.15.68-8.52,4.64-10.99.65-.4,1.35-.76,2.1-1.05,3.88-1.51,8.18-1.02,11.44.93.95.57,1.8,1.26,2.54,2.07.63.69,1.17,1.47,1.59,2.32.52,1.04.83,2.13.94,3.2.23,2.16-.33,4.32-1.54,6.16-1.21,1.86-3.09,3.41-5.5,4.34-.21.08-.42.16-.63.23-1.9.62-3.87.8-5.76.56h0Z"/>
        <path class="cls-6" d="M31.89,16.3c-.22-.23-.42-.46-.62-.71-2.41-3.03-2.68-6.84-.74-9.6,3.02-4.3,10.83-5.23,15.08-1.52,3.53,3.08,3.7,8.59-.13,12.26-.04.04-.08.08-.12.11"/>
        <path class="cls-6" d="M26.51,27.73c-.38.12-.77.21-1.15.29-4.03.81-8.09-.35-10.29-2.91-3.47-4.02-1.64-10.76,3.84-12.89,4.16-1.62,9.46-.21,12.26,3.45.28.37.55.78.78,1.19,0,0,.01.02.02.04"/>
        <path class="cls-6" d="M36.7,36.26c0,.31-.05.6-.09.91-.55,3.66-3.28,6.62-6.82,7.52-5.53,1.39-12.02-2.55-12.3-7.81-.21-3.94,3.12-7.73,7.91-8.75.57-.12,1.16-.21,1.77-.25"/>
        <path class="cls-6" d="M49.44,31.01c.37.15.73.31,1.08.47,3.59,1.79,5.69,5.06,5.36,8.23-.53,5.03-7.05,8.92-12.74,7.24-4.31-1.27-7.14-5.44-6.4-9.79.08-.46.2-.93.36-1.39"/>
        <path class="cls-6" d="M48.47,18.68c3.27-2.88,8.01-3.69,11.57-2.12,5.15,2.25,6.92,9,3.09,13.05-2.87,3.04-8.23,3.86-12.55,1.77-.52-.25-1.02-.54-1.5-.88"/>
        <path class="cls-6" d="M37.02,41.7c-3.18,6.28-6.42,15.15-4.47,24.08,1.52,6.99,5.19,9.33,7.5,14.76,2.93,6.91,3.59,18.68-6.58,39.96"/>
        <path class="cls-6" d="M55.68,75.1c-2.09-.26-3.97-1.43-4.88-3.24-.14-.3-.26-.58-.34-.88-.63-2.21.37-4.53,2.47-5.84.34-.22.72-.4,1.12-.56,2.06-.8,4.35-.54,6.08.49.5.31.96.67,1.35,1.09.33.36.62.78.85,1.23.28.55.44,1.13.5,1.7.12,1.15-.17,2.3-.82,3.27-.65.99-1.65,1.81-2.92,2.31-.11.04-.22.09-.34.12-1.01.34-2.06.42-3.06.3h0Z"/>
        <path class="cls-6" d="M52.9,64.84c-.12-.12-.23-.25-.33-.37-1.28-1.61-1.42-3.64-.39-5.11,1.6-2.29,5.76-2.78,8.02-.81,1.88,1.64,1.97,4.57-.07,6.52-.02.02-.04.04-.06.06"/>
        <path class="cls-6" d="M50.04,70.91c-.16.05-.33.09-.49.13-2.18.47-4.4-.14-5.59-1.52-1.85-2.14-.87-5.73,2.04-6.86,2.21-.86,5.03-.11,6.52,1.83.15.2.29.41.41.64,0,0,0,0,0,.02"/>
        <path class="cls-6" d="M55.45,75.45c-.08,1.51-.85,2.84-2,3.69-.5.36-1.07.64-1.68.79-2.94.74-6.39-1.36-6.54-4.15-.11-2.13,1.71-4.17,4.33-4.67.27-.05.54-.09.82-.11"/>
        <path class="cls-6" d="M62.23,72.66c.2.08.39.16.57.26,1.91.95,3.03,2.68,2.85,4.38-.28,2.67-3.75,4.74-6.78,3.85-2.36-.69-2.13-5.91-3.21-5.94-.15,0-.3.07-.46.22-.55.49-1.18,1.81-1.75,3.73-1.21,4.07-2.18,10.77-1.67,17.66.58,7.95,2.73,10.74,2.35,18.42-.23,4.59-1.22,8.23-2.01,10.56"/>
        <path class="cls-6" d="M61.72,66.1c1.74-1.53,4.26-1.96,6.15-1.12,2.74,1.19,3.68,4.79,1.64,6.94-1.53,1.62-4.37,2.05-6.67.95-.28-.13-.54-.29-.8-.46"/>
        <path class="cls-6" d="M13.09,76.42c-1.99-.25-3.79-1.36-4.65-3.09-.14-.28-.25-.56-.32-.84-.6-2.11.34-4.33,2.35-5.58.33-.21.68-.38,1.07-.53,1.97-.76,4.15-.52,5.8.47.48.29.92.64,1.29,1.04.32.35.59.75.81,1.17.27.53.42,1.07.48,1.63.12,1.09-.17,2.19-.78,3.12-.62.95-1.57,1.72-2.79,2.2-.11.04-.21.08-.32.12-.96.32-1.96.4-2.92.29h-.02Z"/>
        <path class="cls-6" d="M10.44,66.62c-.11-.12-.21-.23-.31-.35-1.23-1.54-1.37-3.48-.38-4.88,1.53-2.18,5.5-2.65,7.65-.77,1.79,1.57,1.88,4.37-.07,6.22-.02.02-.04.04-.06.06"/>
        <path class="cls-6" d="M7.71,72.42c-.16.05-.31.09-.47.12-2.08.45-4.2-.13-5.34-1.45-1.76-2.04-.83-5.46,1.95-6.54,2.12-.82,4.81-.11,6.22,1.76.14.19.27.38.39.59,0,0,0,0,.01.02"/>
        <path class="cls-6" d="M12.88,76.75c0,.16-.02.31-.05.46-.28,1.85-1.66,3.36-3.46,3.81-2.81.71-6.1-1.29-6.24-3.96-.11-2.03,1.63-3.98,4.13-4.46.25-.05.52-.09.78-.1"/>
        <path class="cls-6" d="M19.35,74.08c.19.07.37.16.55.24,1.82.91,2.89,2.56,2.72,4.18-.27,2.55-3.58,4.52-6.46,3.68-2.19-.64-3.62-2.76-3.25-4.97.04-.24.1-.47.18-.71"/>
        <path class="cls-6" d="M18.85,67.83c1.66-1.46,4.06-1.87,5.87-1.07,2.61,1.14,3.51,4.56,1.57,6.62-1.46,1.54-4.17,1.96-6.37.91-.26-.13-.52-.28-.76-.44"/>
        <path class="cls-6" d="M11.53,80.08c.55,7.77,2.37,13.51,3.93,17.34,2.01,4.91,3.97,7.55,4.46,12.38.51,5.04-.9,9.32-2.14,12.12"/>
      </g>
    </g>
    <g>
      <g>
        <path class="cls-5" d="M143.46,65.26c2.74,1.19,3.68,4.77,1.64,6.9-1.52,1.61-4.37,2.04-6.67.94-.28-.13-.54-.28-.8-.46l-.03-.02c.64-.98.94-2.12.82-3.26-.06-.57-.22-1.14-.5-1.7-.23-.45-.51-.86-.85-1.23l.24-.06c1.74-1.52,4.26-1.95,6.15-1.13Z"/>
        <path class="cls-2" d="M138.39,73.17c1.91.95,3.03,2.68,2.85,4.35-.28,2.66-3.75,4.72-6.77,3.83-2.36-.69-2.13-5.88-3.22-5.91v-.1c1.02.12,2.07.03,3.08-.29.11-.04.23-.08.34-.12,1.28-.49,2.28-1.31,2.92-2.29l.03.02c.26.18.52.33.8.46,0,0-.03.05-.03.05Z"/>
        <path class="cls-5" d="M135.63,17.09c5.15,2.24,6.92,8.95,3.09,12.99-2.87,3.02-8.23,3.83-12.55,1.77-.52-.25-1.02-.54-1.5-.87l-.07-.03c1.21-1.83,1.77-3.98,1.54-6.13-.11-1.08-.42-2.15-.94-3.19-.42-.84-.96-1.62-1.59-2.3l.46-.12c3.27-2.86,8-3.66,11.57-2.11h0Z"/>
        <path class="cls-4" d="M128.51,65.42c.34-.22.72-.4,1.12-.56,2.07-.79,4.36-.55,6.09.49.5.3.96.67,1.35,1.1.34.36.62.77.85,1.23.28.56.44,1.13.5,1.7.12,1.15-.17,2.29-.82,3.26-.65.98-1.65,1.8-2.92,2.29-.11.04-.22.09-.34.12-1.01.33-2.06.42-3.06.29-2.09-.26-3.97-1.42-4.88-3.23-.14-.28-.26-.58-.34-.87-.63-2.2.36-4.51,2.47-5.82h-.02Z"/>
        <path class="cls-3" d="M128.16,64.75c-1.28-1.6-1.42-3.62-.39-5.08,1.61-2.28,5.76-2.77,8.02-.8,1.88,1.63,1.97,4.55-.07,6.48-1.73-1.04-4.02-1.28-6.09-.49-.4.16-.77.34-1.12.56-.12-.23-.26-.43-.41-.63l.06-.04Z"/>
        <path class="cls-3" d="M126.11,31.94c3.59,1.78,5.69,5.02,5.36,8.19-.53,5-7.06,8.88-12.74,7.21-4.31-1.26-7.14-5.41-6.4-9.74.08-.46.2-.92.36-1.38l.03-.18c1.89.23,3.87.06,5.76-.56.21-.07.42-.15.63-.23,2.4-.92,4.28-2.46,5.5-4.32l.07.03c.48.33.99.62,1.5.87l-.06.1h0Z"/>
        <path class="cls-2" d="M131.27,75.35v.1c-.16,0-.31.07-.48.22-.55.49-1.18,1.8-1.74,3.71-.5.36-1.07.64-1.68.78-2.94.74-6.39-1.35-6.54-4.13-.11-2.12,1.71-4.15,4.33-4.65.27-.05.54-.09.82-.11l.08-.02c.08.29.2.59.34.87.91,1.8,2.79,2.97,4.88,3.23h0Z"/>
        <path class="cls-5" d="M125.13,71.3c-2.18.48-4.4-.14-5.59-1.51-1.85-2.13-.87-5.7,2.04-6.83,2.21-.85,5.03-.11,6.52,1.82.15.2.29.41.41.63-2.1,1.3-3.09,3.62-2.47,5.82l-.08.02c-.28.02-.56.05-.82.11l-.02-.06h.01Z"/>
        <path class="cls-4" d="M107.53,17.38c.65-.4,1.35-.76,2.1-1.05,3.88-1.5,8.18-1.02,11.44.92.95.57,1.8,1.26,2.54,2.06.63.69,1.17,1.46,1.59,2.3.52,1.04.83,2.12.94,3.19.23,2.15-.33,4.3-1.54,6.13-1.21,1.85-3.09,3.39-5.5,4.32-.21.08-.42.16-.63.23-1.9.62-3.87.79-5.76.56-3.92-.48-7.47-2.67-9.17-6.07-.27-.54-.49-1.09-.64-1.65-1.18-4.13.68-8.48,4.64-10.95h-.01Z"/>
        <path class="cls-2" d="M106.87,16.15c-2.42-3.02-2.7-6.83-.76-9.57,3.02-4.28,10.83-5.21,15.08-1.51,3.53,3.07,3.7,8.55-.13,12.2-3.26-1.95-7.56-2.42-11.44-.92-.75.29-1.46.64-2.1,1.05-.23-.41-.48-.8-.76-1.17l.11-.07h0Z"/>
        <path class="cls-5" d="M112.19,37.59c-.55,3.64-3.28,6.59-6.82,7.47-5.53,1.38-12.02-2.54-12.3-7.77-.21-3.92,3.12-7.69,7.91-8.71.57-.12,1.16-.21,1.77-.25l.14-.03c.16.56.37,1.11.64,1.65,1.7,3.4,5.25,5.59,9.17,6.07l-.03.18c-.16.46-.28.92-.36,1.38l-.13-.02v.02Z"/>
        <path class="cls-3" d="M100.94,28.48c-4.03.8-8.09-.35-10.29-2.89-3.47-4-1.64-10.71,3.84-12.83,4.17-1.62,9.48-.21,12.27,3.45.28.36.53.76.76,1.17-3.95,2.45-5.82,6.82-4.64,10.95l-.14.03c-.61.04-1.2.12-1.77.25l-.03-.11h0Z"/>
        <path class="cls-3" d="M100.31,67.04c2.61,1.14,3.51,4.54,1.57,6.59-1.45,1.53-4.17,1.95-6.37.89-.26-.13-.52-.27-.76-.44l-.03-.02c.61-.93.9-2.02.78-3.11-.06-.54-.21-1.09-.48-1.62-.21-.43-.49-.82-.81-1.17l.23-.06c1.66-1.45,4.06-1.86,5.87-1.07h0Z"/>
        <path class="cls-5" d="M95.48,74.57c1.82.9,2.89,2.55,2.72,4.16-.27,2.54-3.58,4.5-6.46,3.66-2.19-.64-3.62-2.75-3.25-4.94.04-.24.1-.47.18-.71v-.09c.97.12,1.97.03,2.94-.28.11-.03.22-.07.32-.12,1.22-.47,2.17-1.25,2.79-2.19l.03.02c.24.17.5.31.76.44,0,0-.03.05-.03.05Z"/>
        <path class="cls-2" d="M92.92,67.13c.48.28.92.64,1.29,1.05.32.35.59.74.81,1.17.26.53.42,1.08.48,1.62.11,1.09-.17,2.18-.78,3.11-.62.94-1.57,1.72-2.79,2.19-.11.04-.21.08-.32.12-.96.31-1.96.4-2.92.28-1.99-.25-3.79-1.35-4.65-3.08-.14-.27-.25-.55-.32-.83-.6-2.1.35-4.31,2.35-5.55.33-.21.68-.38,1.07-.53,1.97-.76,4.15-.52,5.81.47h-.03Z"/>
        <path class="cls-5" d="M85.72,66.56c-1.23-1.53-1.37-3.46-.39-4.85,1.53-2.17,5.5-2.65,7.65-.76,1.79,1.56,1.88,4.34-.07,6.19-1.65-.99-3.84-1.23-5.81-.47-.38.15-.74.32-1.07.53-.11-.21-.24-.4-.38-.59l.06-.04h0Z"/>
        <path class="cls-2" d="M88.42,77.43c-.28,1.84-1.66,3.34-3.46,3.8-2.81.7-6.1-1.28-6.24-3.94-.11-2.02,1.64-3.96,4.13-4.44.25-.05.52-.08.78-.1l.07-.02c.08.28.19.56.32.83.86,1.73,2.67,2.83,4.65,3.08v.09c-.09.24-.16.47-.2.71h-.07.02Z"/>
        <path class="cls-3" d="M82.83,72.8c-2.08.45-4.2-.13-5.34-1.44-1.76-2.03-.83-5.43,1.95-6.51,2.12-.81,4.81-.11,6.23,1.76.14.19.27.38.38.59-2,1.25-2.95,3.45-2.35,5.55l-.07.02c-.27.02-.53.05-.78.1v-.06h-.02Z"/>
      </g>
      <g>
        <path class="cls-6" d="M112.71,36.04c-3.92-.48-7.47-2.67-9.17-6.07-.27-.54-.49-1.09-.64-1.65-1.18-4.13.68-8.48,4.64-10.95.65-.4,1.35-.76,2.1-1.05,3.88-1.5,8.18-1.02,11.44.92.95.57,1.8,1.26,2.54,2.06.63.69,1.17,1.46,1.59,2.3.52,1.04.83,2.12.94,3.19.23,2.15-.33,4.3-1.54,6.13-1.21,1.85-3.09,3.39-5.5,4.32-.21.08-.42.16-.63.23-1.9.62-3.87.79-5.76.56h-.01Z"/>
        <path class="cls-6" d="M107.48,16.83c-.21-.23-.41-.45-.6-.69-2.42-3.02-2.7-6.83-.76-9.57,3.02-4.28,10.83-5.21,15.08-1.51,3.53,3.07,3.7,8.55-.13,12.2-.04.04-.08.08-.12.11"/>
        <path class="cls-6" d="M102.1,28.2c-.38.12-.77.21-1.15.28-4.03.8-8.09-.35-10.29-2.89-3.47-4-1.64-10.71,3.84-12.83,4.17-1.62,9.48-.21,12.27,3.45.28.36.53.76.76,1.17,0,0,.01.02.02.04"/>
        <path class="cls-6" d="M112.28,36.69c-.01.3-.05.61-.09.9-.55,3.64-3.28,6.59-6.82,7.47-5.53,1.38-12.02-2.54-12.3-7.77-.21-3.92,3.12-7.69,7.91-8.71.57-.12,1.16-.21,1.77-.25"/>
        <path class="cls-6" d="M125.03,31.47c.37.15.73.3,1.08.47,3.59,1.78,5.69,5.02,5.36,8.19-.53,5-7.06,8.88-12.74,7.21-4.31-1.26-7.14-5.41-6.4-9.74.08-.46.2-.92.36-1.38"/>
        <path class="cls-6" d="M124.06,19.2c3.27-2.86,8-3.66,11.57-2.11,5.15,2.24,6.92,8.95,3.09,12.99-2.87,3.02-8.23,3.83-12.55,1.77-.52-.25-1.02-.54-1.5-.87"/>
        <path class="cls-6" d="M112.61,42.11c-3.18,6.25-6.41,15.07-4.47,23.96,1.52,6.95,5.19,9.29,7.5,14.69,2.93,6.88,3.59,18.59-6.58,39.77"/>
        <path class="cls-6" d="M131.27,75.35c-2.09-.26-3.97-1.42-4.88-3.23-.14-.28-.26-.58-.34-.87-.63-2.2.36-4.51,2.47-5.82.34-.22.72-.4,1.12-.56,2.07-.79,4.36-.55,6.09.49.5.3.96.67,1.35,1.1.34.36.62.77.85,1.23.28.56.44,1.13.5,1.7.12,1.15-.17,2.29-.82,3.26-.65.98-1.65,1.8-2.92,2.29-.11.04-.22.09-.34.12-1.01.33-2.06.42-3.06.29h-.02Z"/>
        <path class="cls-6" d="M128.48,65.14c-.12-.12-.23-.25-.33-.37-1.28-1.6-1.42-3.62-.39-5.08,1.61-2.28,5.76-2.77,8.02-.8,1.88,1.63,1.97,4.55-.07,6.48l-.06.06"/>
        <path class="cls-6" d="M125.62,71.18c-.16.05-.33.09-.49.13-2.18.48-4.4-.14-5.59-1.51-1.85-2.13-.87-5.7,2.04-6.83,2.21-.85,5.03-.11,6.52,1.82.15.2.29.41.41.63,0,0,0,0,0,.02"/>
        <path class="cls-6" d="M131.04,75.69c-.08,1.5-.85,2.83-1.99,3.67-.5.36-1.07.64-1.68.78-2.94.74-6.39-1.35-6.54-4.13-.11-2.12,1.71-4.15,4.33-4.65.27-.05.54-.09.82-.11"/>
        <path class="cls-6" d="M137.82,72.91c.2.08.39.16.57.26,1.91.95,3.03,2.68,2.85,4.35-.28,2.66-3.75,4.72-6.77,3.83-2.36-.69-2.13-5.88-3.22-5.91-.15,0-.3.07-.46.22-.55.49-1.18,1.8-1.74,3.71-1.21,4.05-2.18,10.72-1.67,17.58.58,7.91,2.73,10.69,2.35,18.33-.23,4.57-1.22,8.19-2.01,10.51"/>
        <path class="cls-6" d="M137.3,66.39c1.74-1.52,4.26-1.95,6.15-1.13,2.74,1.19,3.68,4.77,1.64,6.9-1.52,1.61-4.37,2.04-6.67.94-.28-.13-.54-.28-.8-.46"/>
        <path class="cls-6" d="M88.68,76.65c-1.99-.25-3.79-1.35-4.65-3.08-.14-.27-.25-.55-.32-.83-.6-2.1.35-4.31,2.35-5.55.33-.21.68-.38,1.07-.53,1.97-.76,4.15-.52,5.81.47.48.28.92.64,1.29,1.05.32.35.59.74.81,1.17.26.53.42,1.08.48,1.62.11,1.09-.17,2.18-.78,3.11-.62.94-1.57,1.72-2.79,2.19-.11.04-.21.08-.32.12-.96.31-1.96.4-2.92.28h-.03Z"/>
        <path class="cls-6" d="M86.03,66.91c-.11-.12-.21-.23-.3-.34-1.23-1.53-1.37-3.46-.39-4.85,1.53-2.17,5.5-2.65,7.65-.76,1.79,1.56,1.88,4.34-.07,6.19l-.06.06"/>
        <path class="cls-6" d="M83.3,72.68c-.16.05-.31.09-.47.12-2.08.45-4.2-.13-5.34-1.44-1.76-2.03-.83-5.43,1.95-6.51,2.12-.81,4.81-.11,6.23,1.76.14.19.27.38.38.59,0,0,0,0,.01.02"/>
        <path class="cls-6" d="M88.46,76.98c0,.16-.02.3-.05.45-.28,1.84-1.66,3.34-3.46,3.8-2.81.7-6.1-1.28-6.24-3.94-.11-2.02,1.64-3.96,4.13-4.44.25-.05.52-.08.78-.1"/>
        <path class="cls-6" d="M94.93,74.34c.19.07.37.16.55.24,1.82.9,2.89,2.55,2.72,4.16-.27,2.54-3.58,4.5-6.46,3.66-2.19-.64-3.62-2.75-3.25-4.94.04-.24.1-.47.18-.71"/>
        <path class="cls-6" d="M94.44,68.11c1.66-1.45,4.06-1.86,5.87-1.07,2.61,1.14,3.51,4.54,1.57,6.59-1.45,1.53-4.17,1.95-6.37.89-.26-.13-.52-.27-.76-.44"/>
        <path class="cls-6" d="M87.12,80.29c.55,7.73,2.36,13.45,3.92,17.25,2.01,4.88,3.97,7.52,4.46,12.32.51,5.01-.9,9.28-2.14,12.06"/>
      </g>
    </g>
    <g>
      <g>
        <path class="cls-5" d="M219.04,65.53c2.74,1.18,3.68,4.74,1.64,6.87-1.52,1.6-4.37,2.03-6.67.94-.28-.13-.54-.28-.8-.46l-.03-.02c.64-.98.94-2.11.82-3.24-.06-.57-.22-1.13-.5-1.69-.23-.45-.51-.86-.85-1.22l.24-.06c1.74-1.51,4.26-1.94,6.15-1.12Z"/>
        <path class="cls-2" d="M213.98,73.39c1.91.95,3.03,2.66,2.85,4.33-.28,2.64-3.75,4.69-6.77,3.82-2.36-.68-2.13-5.86-3.22-5.88v-.1c1.02.12,2.07.03,3.08-.29.11-.04.23-.08.34-.12,1.28-.49,2.28-1.31,2.92-2.28l.03.02c.26.18.52.33.8.46,0,0-.03.05-.03.05Z"/>
        <path class="cls-5" d="M211.22,17.59c5.15,2.23,6.92,8.91,3.09,12.92-2.87,3.01-8.23,3.82-12.55,1.76-.52-.24-1.02-.54-1.5-.87l-.07-.03c1.21-1.82,1.77-3.96,1.54-6.1-.11-1.07-.42-2.14-.94-3.17-.42-.84-.96-1.61-1.59-2.29l.46-.12c3.27-2.85,8-3.64,11.57-2.1h0Z"/>
        <path class="cls-4" d="M204.1,65.69c.34-.21.72-.4,1.12-.56,2.07-.79,4.36-.55,6.09.49.5.3.96.66,1.35,1.09.34.36.62.77.85,1.22.28.56.44,1.12.5,1.69.12,1.14-.17,2.27-.82,3.24-.65.98-1.65,1.8-2.92,2.28-.11.04-.22.09-.34.12-1.01.33-2.06.42-3.06.29-2.09-.25-3.97-1.42-4.88-3.21-.14-.28-.26-.58-.34-.87-.63-2.19.36-4.49,2.47-5.79h-.02Z"/>
        <path class="cls-3" d="M203.74,65.03c-1.28-1.59-1.42-3.6-.39-5.06,1.61-2.26,5.76-2.75,8.02-.8,1.88,1.62,1.97,4.53-.07,6.45-1.73-1.03-4.02-1.28-6.09-.49-.4.16-.77.34-1.12.56-.12-.22-.26-.43-.41-.62l.06-.04Z"/>
        <path class="cls-3" d="M201.69,32.37c3.59,1.78,5.69,5,5.36,8.15-.53,4.98-7.06,8.83-12.74,7.17-4.31-1.25-7.14-5.39-6.4-9.69.08-.46.2-.92.36-1.38l.03-.18c1.89.22,3.87.06,5.76-.56.21-.07.42-.15.63-.22,2.4-.92,4.28-2.45,5.5-4.29l.07.03c.48.33.99.61,1.5.87l-.06.1h-.01Z"/>
        <path class="cls-2" d="M206.85,75.57v.1c-.16,0-.31.07-.48.21-.55.49-1.18,1.8-1.74,3.69-.5.36-1.07.63-1.68.78-2.94.73-6.39-1.35-6.54-4.11-.11-2.11,1.71-4.13,4.33-4.63.27-.05.54-.09.82-.11l.08-.02c.08.29.2.59.34.87.91,1.8,2.79,2.96,4.88,3.21h-.01Z"/>
        <path class="cls-5" d="M200.72,71.54c-2.18.48-4.4-.14-5.59-1.5-1.85-2.12-.87-5.67,2.04-6.79,2.21-.85,5.03-.11,6.52,1.82.15.2.29.41.41.62-2.1,1.3-3.09,3.6-2.47,5.79l-.08.02c-.28.02-.56.05-.82.11l-.02-.06h.01Z"/>
        <path class="cls-4" d="M196.65,17.76c.95.57,1.8,1.25,2.54,2.05.63.68,1.17,1.45,1.59,2.29.52,1.03.83,2.11.94,3.17.23,2.14-.33,4.27-1.54,6.1-1.21,1.84-3.09,3.38-5.5,4.29-.21.08-.42.16-.63.22-1.9.61-3.87.79-5.76.56-3.92-.48-7.47-2.65-9.17-6.04-.27-.54-.49-1.08-.64-1.64-1.18-4.11.68-8.44,4.64-10.89.65-.4,1.35-.75,2.1-1.04,3.88-1.49,8.18-1.01,11.44.92h-.01Z"/>
        <path class="cls-2" d="M182.46,16.66c-2.42-3.01-2.7-6.79-.76-9.53,3.02-4.26,10.83-5.18,15.08-1.5,3.53,3.05,3.7,8.51-.13,12.14-3.26-1.94-7.56-2.41-11.44-.92-.75.29-1.46.63-2.1,1.04-.23-.41-.48-.8-.76-1.16l.11-.07h0Z"/>
        <path class="cls-5" d="M187.77,37.99c-.55,3.62-3.28,6.56-6.82,7.44-5.53,1.38-12.02-2.53-12.3-7.73-.21-3.9,3.12-7.65,7.91-8.67.57-.12,1.16-.2,1.77-.24l.14-.03c.16.56.37,1.1.64,1.64,1.7,3.39,5.25,5.56,9.17,6.04l-.03.18c-.16.46-.28.92-.36,1.38l-.13-.02v.02Z"/>
        <path class="cls-3" d="M176.53,28.94c-4.03.8-8.09-.35-10.29-2.88-3.47-3.98-1.64-10.66,3.84-12.77,4.17-1.61,9.48-.2,12.27,3.44.28.36.53.75.76,1.16-3.95,2.44-5.82,6.78-4.64,10.89l-.14.03c-.61.04-1.2.12-1.77.24l-.03-.11h0Z"/>
        <path class="cls-3" d="M175.9,67.3c2.61,1.13,3.51,4.52,1.57,6.56-1.45,1.52-4.17,1.94-6.37.89-.26-.13-.52-.27-.76-.44l-.03-.02c.61-.93.9-2.01.78-3.09-.06-.54-.21-1.08-.48-1.61-.21-.43-.49-.82-.81-1.16l.23-.06c1.66-1.44,4.06-1.85,5.87-1.06h0Z"/>
        <path class="cls-5" d="M171.06,74.8c1.82.9,2.89,2.54,2.72,4.14-.27,2.53-3.58,4.48-6.46,3.64-2.19-.63-3.62-2.73-3.25-4.92.04-.23.1-.47.18-.7v-.09c.97.12,1.97.03,2.94-.28.11-.03.22-.07.32-.12,1.22-.47,2.17-1.24,2.79-2.18l.03.02c.24.17.5.31.76.44l-.03.05h0Z"/>
        <path class="cls-2" d="M168.51,67.39c.48.28.92.63,1.29,1.04.32.35.59.73.81,1.16.26.53.42,1.07.48,1.61.11,1.08-.17,2.17-.78,3.09-.62.94-1.57,1.71-2.79,2.18-.11.04-.21.08-.32.12-.96.31-1.96.4-2.92.28-1.99-.24-3.79-1.35-4.65-3.06-.14-.27-.25-.55-.32-.83-.6-2.09.35-4.28,2.35-5.52.33-.2.68-.38,1.07-.53,1.97-.76,4.15-.52,5.81.47h-.03Z"/>
        <path class="cls-5" d="M161.31,66.82c-1.23-1.52-1.37-3.45-.39-4.83,1.53-2.16,5.5-2.64,7.65-.76,1.79,1.55,1.88,4.32-.07,6.16-1.65-.99-3.84-1.22-5.81-.47-.38.15-.74.32-1.07.53-.11-.2-.24-.4-.38-.59l.06-.04h.01Z"/>
        <path class="cls-2" d="M164,77.64c-.28,1.83-1.66,3.33-3.46,3.78-2.81.69-6.1-1.28-6.24-3.92-.11-2.01,1.64-3.94,4.13-4.42.25-.05.52-.08.78-.1l.07-.02c.08.28.19.56.32.83.86,1.72,2.67,2.82,4.65,3.06v.09c-.09.23-.16.47-.2.7h-.07.02Z"/>
        <path class="cls-3" d="M158.42,73.03c-2.08.45-4.2-.13-5.34-1.43-1.76-2.02-.83-5.41,1.95-6.48,2.12-.81,4.81-.11,6.23,1.75.14.19.27.38.38.59-2,1.24-2.95,3.44-2.35,5.52l-.07.02c-.27.02-.53.05-.78.1v-.06h-.02Z"/>
      </g>
      <g>
        <path class="cls-6" d="M188.29,36.45c-3.92-.48-7.47-2.65-9.17-6.04-.27-.54-.49-1.08-.64-1.64-1.18-4.11.68-8.44,4.64-10.89.65-.4,1.35-.75,2.1-1.04,3.88-1.49,8.18-1.01,11.44.92.95.57,1.8,1.25,2.54,2.05.63.68,1.17,1.45,1.59,2.29.52,1.03.83,2.11.94,3.17.23,2.14-.33,4.27-1.54,6.1-1.21,1.84-3.09,3.38-5.5,4.29-.21.08-.42.16-.63.22-1.9.61-3.87.79-5.76.56h-.01Z"/>
        <path class="cls-6" d="M183.06,17.34c-.21-.22-.41-.45-.6-.68-2.42-3.01-2.7-6.79-.76-9.53,3.02-4.26,10.83-5.18,15.08-1.5,3.53,3.05,3.7,8.51-.13,12.14-.04.04-.08.08-.12.11"/>
        <path class="cls-6" d="M177.68,28.65c-.38.12-.77.2-1.15.28-4.03.8-8.09-.35-10.29-2.88-3.47-3.98-1.64-10.66,3.84-12.77,4.17-1.61,9.48-.2,12.27,3.44.28.36.53.75.76,1.16,0,0,0,.02.02.04"/>
        <path class="cls-6" d="M187.87,37.1c0,.3-.05.61-.09.9-.55,3.62-3.28,6.56-6.82,7.44-5.53,1.38-12.02-2.53-12.3-7.73-.21-3.9,3.12-7.65,7.91-8.67.57-.12,1.16-.2,1.77-.24"/>
        <path class="cls-6" d="M200.61,31.9c.37.15.73.3,1.08.47,3.59,1.78,5.69,5,5.36,8.15-.53,4.98-7.06,8.83-12.74,7.17-4.31-1.25-7.14-5.39-6.4-9.69.08-.46.2-.92.36-1.38"/>
        <path class="cls-6" d="M199.65,19.69c3.27-2.85,8-3.64,11.57-2.1,5.15,2.23,6.92,8.91,3.09,12.92-2.87,3.01-8.23,3.82-12.55,1.76-.52-.24-1.02-.54-1.5-.87"/>
        <path class="cls-6" d="M188.19,42.49c-3.18,6.22-6.41,15-4.47,23.84,1.52,6.92,5.19,9.24,7.5,14.62,2.93,6.84,3.59,18.49-6.58,39.57"/>
        <path class="cls-6" d="M206.85,75.57c-2.09-.25-3.97-1.42-4.88-3.21-.14-.28-.26-.58-.34-.87-.63-2.19.36-4.49,2.47-5.79.34-.21.72-.4,1.12-.56,2.07-.79,4.36-.55,6.09.49.5.3.96.66,1.35,1.09.34.36.62.77.85,1.22.28.56.44,1.12.5,1.69.12,1.14-.17,2.27-.82,3.24-.65.98-1.65,1.8-2.92,2.28-.11.04-.22.09-.34.12-1.01.33-2.06.42-3.06.29h-.02Z"/>
        <path class="cls-6" d="M204.07,65.4c-.12-.12-.23-.24-.33-.37-1.28-1.59-1.42-3.6-.39-5.06,1.61-2.26,5.76-2.75,8.02-.8,1.88,1.62,1.97,4.53-.07,6.45l-.06.06"/>
        <path class="cls-6" d="M201.21,71.42c-.16.05-.33.09-.49.13-2.18.48-4.4-.14-5.59-1.5-1.85-2.12-.87-5.67,2.04-6.79,2.21-.85,5.03-.11,6.52,1.82.15.2.29.41.41.62,0,0,0,0,0,.02"/>
        <path class="cls-6" d="M206.62,75.91c-.08,1.49-.85,2.82-1.99,3.65-.5.36-1.07.63-1.68.78-2.94.73-6.39-1.35-6.54-4.11-.11-2.11,1.71-4.13,4.33-4.63.27-.05.54-.09.82-.11"/>
        <path class="cls-6" d="M213.4,73.15c.2.08.39.16.57.25,1.91.95,3.03,2.66,2.85,4.33-.28,2.64-3.75,4.69-6.77,3.82-2.36-.68-2.13-5.86-3.22-5.88-.15,0-.3.07-.46.21-.55.49-1.18,1.8-1.74,3.69-1.21,4.03-2.18,10.67-1.67,17.49.58,7.88,2.73,10.64,2.35,18.24-.23,4.55-1.22,8.15-2.01,10.46"/>
        <path class="cls-6" d="M212.89,66.66c1.74-1.51,4.26-1.94,6.15-1.12,2.74,1.18,3.68,4.74,1.64,6.87-1.52,1.6-4.37,2.03-6.67.94-.28-.13-.54-.28-.8-.46"/>
        <path class="cls-6" d="M164.27,76.86c-1.99-.24-3.79-1.35-4.65-3.06-.14-.27-.25-.55-.32-.83-.6-2.09.35-4.28,2.35-5.52.33-.2.68-.38,1.07-.53,1.97-.76,4.15-.52,5.81.47.48.28.92.63,1.29,1.04.32.35.59.73.81,1.16.26.53.42,1.07.48,1.61.11,1.08-.17,2.17-.78,3.09-.62.94-1.57,1.71-2.79,2.18-.11.04-.21.08-.32.12-.96.31-1.96.4-2.92.28h-.03Z"/>
        <path class="cls-6" d="M161.61,67.16c-.11-.12-.21-.22-.3-.34-1.23-1.52-1.37-3.45-.39-4.83,1.53-2.16,5.5-2.64,7.65-.76,1.79,1.55,1.88,4.32-.07,6.16-.02.02-.04.04-.06.06"/>
        <path class="cls-6" d="M158.88,72.91c-.16.05-.31.09-.47.12-2.08.45-4.2-.13-5.34-1.43-1.76-2.02-.83-5.41,1.95-6.48,2.12-.81,4.81-.11,6.23,1.75.14.19.27.38.38.59,0,0,0,0,0,.02"/>
        <path class="cls-6" d="M164.05,77.2c0,.16-.02.3-.05.45-.28,1.83-1.66,3.33-3.46,3.78-2.81.69-6.1-1.28-6.24-3.92-.11-2.01,1.64-3.94,4.13-4.42.25-.05.52-.08.78-.1"/>
        <path class="cls-6" d="M170.52,74.56c.19.07.37.16.55.23,1.82.9,2.89,2.54,2.72,4.14-.27,2.53-3.58,4.48-6.46,3.64-2.19-.63-3.62-2.73-3.25-4.92.04-.23.1-.47.18-.7"/>
        <path class="cls-6" d="M170.03,68.36c1.66-1.44,4.06-1.85,5.87-1.06,2.61,1.13,3.51,4.52,1.57,6.56-1.45,1.52-4.17,1.94-6.37.89-.26-.13-.52-.27-.76-.44"/>
        <path class="cls-6" d="M162.71,80.48c.55,7.69,2.36,13.38,3.92,17.17,2.01,4.86,3.97,7.49,4.46,12.26.51,4.99-.9,9.23-2.14,12"/>
      </g>
    </g>
    <g>
      <g>
        <path class="cls-5" d="M292.83,65.15c2.74,1.19,3.68,4.78,1.64,6.92-1.52,1.61-4.37,2.04-6.67.94-.28-.13-.54-.28-.8-.46l-.03-.02c.64-.98.94-2.12.82-3.26-.06-.57-.22-1.14-.5-1.7-.23-.45-.51-.86-.85-1.23l.24-.06c1.74-1.52,4.26-1.96,6.15-1.13Z"/>
        <path class="cls-2" d="M287.76,73.07c1.91.95,3.03,2.68,2.85,4.36-.28,2.66-3.75,4.73-6.77,3.84-2.36-.69-2.13-5.9-3.22-5.93v-.1c1.02.12,2.07.03,3.08-.29.11-.04.23-.08.34-.12,1.28-.49,2.28-1.32,2.92-2.3l.03.02c.26.18.52.33.8.46,0,0-.03.05-.03.05Z"/>
        <path class="cls-5" d="M285,16.89c5.15,2.24,6.92,8.97,3.09,13.01-2.87,3.03-8.23,3.84-12.55,1.77-.52-.25-1.02-.54-1.5-.87l-.07-.03c1.21-1.84,1.77-3.99,1.54-6.14-.11-1.08-.42-2.15-.94-3.19-.42-.85-.96-1.62-1.59-2.31l.46-.12c3.27-2.87,8-3.67,11.57-2.11h-.01Z"/>
        <path class="cls-4" d="M285.08,65.25c.5.3.96.67,1.35,1.1.34.36.62.78.85,1.23.28.56.44,1.13.5,1.7.12,1.15-.17,2.29-.82,3.26-.65.98-1.65,1.81-2.92,2.3-.11.04-.22.09-.34.12-1.01.33-2.06.42-3.06.29-2.09-.26-3.97-1.42-4.88-3.23-.14-.28-.26-.58-.34-.87-.63-2.2.36-4.52,2.47-5.83.34-.22.72-.4,1.12-.56,2.07-.8,4.36-.55,6.09.49h-.02Z"/>
        <path class="cls-3" d="M277.52,64.64c-1.28-1.6-1.42-3.63-.39-5.09,1.61-2.28,5.76-2.77,8.02-.81,1.88,1.63,1.97,4.56-.07,6.49-1.73-1.04-4.02-1.29-6.09-.49-.4.16-.77.34-1.12.56-.12-.23-.26-.43-.41-.63l.06-.04h0Z"/>
        <path class="cls-3" d="M275.47,31.76c3.59,1.79,5.69,5.03,5.36,8.2-.53,5.01-7.06,8.89-12.74,7.22-4.31-1.26-7.14-5.42-6.4-9.76.08-.46.2-.92.36-1.39l.03-.18c1.89.23,3.87.06,5.76-.56.21-.07.42-.15.63-.23,2.4-.92,4.28-2.47,5.5-4.32l.07.03c.48.33.99.62,1.5.87l-.06.1h-.01Z"/>
        <path class="cls-2" d="M280.63,75.25v.1c-.16,0-.31.07-.48.22-.55.49-1.18,1.81-1.74,3.71-.5.36-1.07.64-1.68.79-2.94.74-6.39-1.36-6.54-4.14-.11-2.12,1.71-4.16,4.33-4.66.27-.05.54-.09.82-.11l.08-.02c.08.29.2.59.34.87.91,1.81,2.79,2.98,4.88,3.23h0Z"/>
        <path class="cls-5" d="M274.5,71.2c-2.18.48-4.4-.14-5.59-1.51-1.85-2.13-.87-5.71,2.04-6.84,2.21-.85,5.03-.11,6.52,1.83.15.2.29.41.41.63-2.1,1.31-3.09,3.63-2.47,5.83l-.08.02c-.28.02-.56.05-.82.11l-.02-.06h0Z"/>
        <path class="cls-4" d="M270.44,17.06c.95.57,1.8,1.26,2.54,2.06.63.69,1.17,1.46,1.59,2.31.52,1.04.83,2.12.94,3.19.23,2.15-.33,4.3-1.54,6.14-1.21,1.86-3.09,3.4-5.5,4.32-.21.08-.42.16-.63.23-1.9.62-3.87.8-5.76.56-3.92-.48-7.47-2.67-9.17-6.08-.27-.54-.49-1.09-.64-1.65-1.18-4.14.68-8.5,4.64-10.97.65-.4,1.35-.76,2.1-1.05,3.88-1.5,8.18-1.02,11.44.92h-.01Z"/>
        <path class="cls-2" d="M256.24,15.94c-2.42-3.03-2.7-6.84-.76-9.59,3.02-4.28,10.83-5.22,15.08-1.51,3.53,3.08,3.7,8.57-.13,12.22-3.26-1.96-7.56-2.43-11.44-.92-.75.29-1.46.64-2.1,1.05-.23-.41-.48-.81-.76-1.17l.11-.07h0Z"/>
        <path class="cls-5" d="M261.56,37.42c-.55,3.65-3.28,6.6-6.82,7.49-5.53,1.39-12.02-2.54-12.3-7.78-.21-3.93,3.12-7.7,7.91-8.73.57-.12,1.16-.21,1.77-.25l.14-.03c.16.56.37,1.11.64,1.65,1.7,3.41,5.25,5.6,9.17,6.08l-.03.18c-.16.46-.28.92-.36,1.39l-.13-.02v.02Z"/>
        <path class="cls-3" d="M250.31,28.3c-4.03.81-8.09-.35-10.29-2.9-3.47-4.01-1.64-10.73,3.84-12.85,4.17-1.62,9.48-.21,12.27,3.46.28.36.53.76.76,1.17-3.95,2.46-5.82,6.83-4.64,10.97l-.14.03c-.61.04-1.2.12-1.77.25l-.03-.11h0Z"/>
        <path class="cls-3" d="M249.68,66.93c2.61,1.14,3.51,4.55,1.57,6.6-1.45,1.53-4.17,1.96-6.37.89-.26-.13-.52-.28-.76-.44l-.03-.02c.61-.93.9-2.02.78-3.11-.06-.54-.21-1.09-.48-1.62-.21-.43-.49-.83-.81-1.17l.23-.06c1.66-1.45,4.06-1.87,5.87-1.07h0Z"/>
        <path class="cls-5" d="M244.84,74.47c1.82.9,2.89,2.55,2.72,4.17-.27,2.54-3.58,4.51-6.46,3.67-2.19-.64-3.62-2.75-3.25-4.95.04-.24.1-.47.18-.71v-.09c.97.12,1.97.03,2.94-.28.11-.03.22-.07.32-.12,1.22-.47,2.17-1.25,2.79-2.19l.03.02c.24.17.5.31.76.44l-.03.05h0Z"/>
        <path class="cls-2" d="M242.29,67.02c.48.28.92.64,1.29,1.05.32.35.59.74.81,1.17.26.53.42,1.08.48,1.62.11,1.09-.17,2.18-.78,3.11-.62.94-1.57,1.72-2.79,2.19-.11.04-.21.08-.32.12-.96.31-1.96.4-2.92.28-1.99-.25-3.79-1.36-4.65-3.09-.14-.28-.25-.55-.32-.84-.6-2.1.35-4.31,2.35-5.56.33-.21.68-.38,1.07-.53,1.97-.77,4.15-.52,5.81.47h-.03Z"/>
        <path class="cls-5" d="M235.09,66.45c-1.23-1.53-1.37-3.47-.39-4.86,1.53-2.17,5.5-2.65,7.65-.77,1.79,1.56,1.88,4.35-.07,6.2-1.65-.99-3.84-1.23-5.81-.47-.38.15-.74.32-1.07.53-.11-.21-.24-.4-.38-.59l.06-.04h.01Z"/>
        <path class="cls-2" d="M237.79,77.34c-.28,1.85-1.66,3.35-3.46,3.8-2.81.7-6.1-1.29-6.24-3.95-.11-2.02,1.64-3.97,4.13-4.45.25-.05.52-.08.78-.1l.07-.02c.08.28.19.56.32.84.86,1.73,2.67,2.84,4.65,3.09v.09c-.09.24-.16.47-.2.71h-.07.02Z"/>
        <path class="cls-3" d="M232.2,72.7c-2.08.45-4.2-.13-5.34-1.44-1.76-2.03-.83-5.44,1.95-6.52,2.12-.82,4.81-.11,6.23,1.76.14.19.27.38.38.59-2,1.25-2.95,3.46-2.35,5.56l-.07.02c-.27.02-.53.05-.78.1v-.06h-.02Z"/>
      </g>
      <g>
        <path class="cls-6" d="M262.07,35.87c-3.92-.48-7.47-2.67-9.17-6.08-.27-.54-.49-1.09-.64-1.65-1.18-4.14.68-8.5,4.64-10.97.65-.4,1.35-.76,2.1-1.05,3.88-1.5,8.18-1.02,11.44.92.95.57,1.8,1.26,2.54,2.06.63.69,1.17,1.46,1.59,2.31.52,1.04.83,2.12.94,3.19.23,2.15-.33,4.3-1.54,6.14-1.21,1.86-3.09,3.4-5.5,4.32-.21.08-.42.16-.63.23-1.9.62-3.87.8-5.76.56h-.01Z"/>
        <path class="cls-6" d="M256.85,16.63c-.21-.23-.41-.45-.6-.69-2.42-3.03-2.7-6.84-.76-9.59,3.02-4.28,10.83-5.22,15.08-1.51,3.53,3.08,3.7,8.57-.13,12.22-.04.04-.08.08-.12.11"/>
        <path class="cls-6" d="M251.47,28.02c-.38.12-.77.21-1.15.28-4.03.81-8.09-.35-10.29-2.9-3.47-4.01-1.64-10.73,3.84-12.85,4.17-1.62,9.48-.21,12.27,3.46.28.36.53.76.76,1.17,0,0,.01.02.02.04"/>
        <path class="cls-6" d="M261.65,36.53c-.01.3-.05.61-.09.9-.55,3.65-3.28,6.6-6.82,7.49-5.53,1.39-12.02-2.54-12.3-7.78-.21-3.93,3.12-7.7,7.91-8.73.57-.12,1.16-.21,1.77-.25"/>
        <path class="cls-6" d="M274.39,31.29c.37.15.73.3,1.08.47,3.59,1.79,5.69,5.03,5.36,8.2-.53,5.01-7.06,8.89-12.74,7.22-4.31-1.26-7.14-5.42-6.4-9.76.08-.46.2-.92.36-1.39"/>
        <path class="cls-6" d="M273.43,19c3.27-2.87,8-3.67,11.57-2.11,5.15,2.24,6.92,8.97,3.09,13.01-2.87,3.03-8.23,3.84-12.55,1.77-.52-.25-1.02-.54-1.5-.87"/>
        <path class="cls-6" d="M261.97,41.95c-3.18,6.26-6.41,15.1-4.47,24,1.52,6.97,5.19,9.31,7.5,14.72,2.93,6.89,3.59,18.62-6.58,39.84"/>
        <path class="cls-6" d="M280.63,75.25c-2.09-.26-3.97-1.42-4.88-3.23-.14-.28-.26-.58-.34-.87-.63-2.2.36-4.52,2.47-5.83.34-.22.72-.4,1.12-.56,2.07-.8,4.36-.55,6.09.49.5.3.96.67,1.35,1.1.34.36.62.78.85,1.23.28.56.44,1.13.5,1.7.12,1.15-.17,2.29-.82,3.26-.65.98-1.65,1.81-2.92,2.3-.11.04-.22.09-.34.12-1.01.33-2.06.42-3.06.29h-.02Z"/>
        <path class="cls-6" d="M277.85,65.02c-.12-.12-.23-.25-.33-.37-1.28-1.6-1.42-3.63-.39-5.09,1.61-2.28,5.76-2.77,8.02-.81,1.88,1.63,1.97,4.56-.07,6.49l-.06.06"/>
        <path class="cls-6" d="M274.99,71.08c-.16.05-.33.09-.49.13-2.18.48-4.4-.14-5.59-1.51-1.85-2.13-.87-5.71,2.04-6.84,2.21-.85,5.03-.11,6.52,1.83.15.2.29.41.41.63,0,0,0,0,.01.02"/>
        <path class="cls-6" d="M280.41,75.6c-.08,1.5-.85,2.84-1.99,3.67-.5.36-1.07.64-1.68.79-2.94.74-6.39-1.36-6.54-4.14-.11-2.12,1.71-4.16,4.33-4.66.27-.05.54-.09.82-.11"/>
        <path class="cls-6" d="M287.19,72.81c.2.08.39.16.57.26,1.91.95,3.03,2.68,2.85,4.36-.28,2.66-3.75,4.73-6.77,3.84-2.36-.69-2.13-5.9-3.22-5.93-.15,0-.3.07-.46.22-.55.49-1.18,1.81-1.74,3.71-1.21,4.06-2.18,10.74-1.67,17.61.58,7.93,2.73,10.71,2.35,18.36-.23,4.58-1.22,8.2-2.01,10.53"/>
        <path class="cls-6" d="M286.67,66.28c1.74-1.52,4.26-1.96,6.15-1.13,2.74,1.19,3.68,4.78,1.64,6.92-1.52,1.61-4.37,2.04-6.67.94-.28-.13-.54-.28-.8-.46"/>
        <path class="cls-6" d="M238.05,76.56c-1.99-.25-3.79-1.36-4.65-3.09-.14-.28-.25-.55-.32-.84-.6-2.1.35-4.31,2.35-5.56.33-.21.68-.38,1.07-.53,1.97-.77,4.15-.52,5.81.47.48.28.92.64,1.29,1.05.32.35.59.74.81,1.17.26.53.42,1.08.48,1.62.11,1.09-.17,2.18-.78,3.11-.62.94-1.57,1.72-2.79,2.19-.11.04-.21.08-.32.12-.96.31-1.96.4-2.92.28h-.03Z"/>
        <path class="cls-6" d="M235.39,66.8c-.11-.12-.21-.23-.3-.34-1.23-1.53-1.37-3.47-.39-4.86,1.53-2.17,5.5-2.65,7.65-.77,1.79,1.56,1.88,4.35-.07,6.2-.02.02-.04.04-.06.06"/>
        <path class="cls-6" d="M232.67,72.58c-.16.05-.31.09-.47.12-2.08.45-4.2-.13-5.34-1.44-1.76-2.03-.83-5.44,1.95-6.52,2.12-.82,4.81-.11,6.23,1.76.14.19.27.38.38.59,0,0,0,0,0,.02"/>
        <path class="cls-6" d="M237.83,76.89c0,.16-.02.3-.05.45-.28,1.85-1.66,3.35-3.46,3.8-2.81.7-6.1-1.29-6.24-3.95-.11-2.02,1.64-3.97,4.13-4.45.25-.05.52-.08.78-.1"/>
        <path class="cls-6" d="M244.3,74.24c.19.07.37.16.55.24,1.82.9,2.89,2.55,2.72,4.17-.27,2.54-3.58,4.51-6.46,3.67-2.19-.64-3.62-2.75-3.25-4.95.04-.24.1-.47.18-.71"/>
        <path class="cls-6" d="M243.81,68c1.66-1.45,4.06-1.87,5.87-1.07,2.61,1.14,3.51,4.55,1.57,6.6-1.45,1.53-4.17,1.96-6.37.89-.26-.13-.52-.28-.76-.44"/>
        <path class="cls-6" d="M236.49,80.21c.55,7.74,2.36,13.47,3.92,17.28,2.01,4.89,3.97,7.54,4.46,12.34.51,5.02-.9,9.3-2.14,12.09"/>
      </g>
    </g>
    <g>
      <g>
        <path class="cls-5" d="M362.43,65.44c2.74,1.18,3.68,4.75,1.64,6.88-1.52,1.6-4.37,2.03-6.67.94-.28-.13-.54-.28-.8-.46l-.03-.02c.64-.98.94-2.11.82-3.25-.06-.57-.22-1.13-.5-1.69-.23-.45-.51-.86-.85-1.22l.24-.06c1.74-1.52,4.26-1.95,6.15-1.12Z"/>
        <path class="cls-2" d="M357.36,73.32c1.91.95,3.03,2.67,2.85,4.34-.28,2.65-3.75,4.7-6.77,3.82-2.36-.68-2.13-5.87-3.22-5.9v-.1c1.02.12,2.07.03,3.08-.29.11-.04.23-.08.34-.12,1.28-.49,2.28-1.31,2.92-2.29l.03.02c.26.18.52.33.8.46,0,0-.03.05-.03.05Z"/>
        <path class="cls-5" d="M354.6,17.4c5.15,2.23,6.92,8.93,3.09,12.95-2.87,3.01-8.23,3.82-12.55,1.76-.52-.24-1.02-.54-1.5-.87l-.07-.03c1.21-1.83,1.77-3.97,1.54-6.11-.11-1.08-.42-2.14-.94-3.18-.42-.84-.96-1.61-1.59-2.3l.46-.12c3.27-2.86,8-3.65,11.57-2.1h-.01Z"/>
        <path class="cls-4" d="M347.48,65.6c.34-.22.72-.4,1.12-.56,2.07-.79,4.36-.55,6.09.49.5.3.96.66,1.35,1.1.34.36.62.77.85,1.22.28.56.44,1.12.5,1.69.12,1.14-.17,2.28-.82,3.25-.65.98-1.65,1.8-2.92,2.29-.11.04-.22.09-.34.12-1.01.33-2.06.42-3.06.29-2.09-.25-3.97-1.42-4.88-3.22-.14-.28-.26-.58-.34-.87-.63-2.19.36-4.5,2.47-5.8h-.02Z"/>
        <path class="cls-3" d="M347.13,64.94c-1.28-1.59-1.42-3.61-.39-5.07,1.61-2.27,5.76-2.76,8.02-.8,1.88,1.62,1.97,4.54-.07,6.46-1.73-1.04-4.02-1.28-6.09-.49-.4.16-.77.34-1.12.56-.12-.22-.26-.43-.41-.63l.06-.04h0Z"/>
        <path class="cls-3" d="M345.07,32.22c3.59,1.78,5.69,5.01,5.36,8.16-.53,4.99-7.06,8.85-12.74,7.19-4.31-1.25-7.14-5.4-6.4-9.71.08-.46.2-.92.36-1.38l.03-.18c1.89.22,3.87.06,5.76-.56.21-.07.42-.15.63-.22,2.4-.92,4.28-2.45,5.5-4.3l.07.03c.48.33.99.62,1.5.87l-.06.1h-.01Z"/>
        <path class="cls-2" d="M350.23,75.49v.1c-.16,0-.31.07-.48.22-.55.49-1.18,1.8-1.74,3.7-.5.36-1.07.64-1.68.78-2.94.73-6.39-1.35-6.54-4.12-.11-2.11,1.71-4.14,4.33-4.63.27-.05.54-.09.82-.11l.08-.02c.08.29.2.59.34.87.91,1.8,2.79,2.96,4.88,3.22h0Z"/>
        <path class="cls-5" d="M344.1,71.46c-2.18.48-4.4-.14-5.59-1.51-1.85-2.12-.87-5.68,2.04-6.81,2.21-.85,5.03-.11,6.52,1.82.15.2.29.41.41.63-2.1,1.3-3.09,3.61-2.47,5.8l-.08.02c-.28.02-.56.05-.82.11l-.02-.06h0Z"/>
        <path class="cls-4" d="M326.5,17.7c.65-.4,1.35-.75,2.1-1.05,3.88-1.5,8.18-1.02,11.44.92.95.57,1.8,1.25,2.54,2.05.63.68,1.17,1.46,1.59,2.3.52,1.04.83,2.11.94,3.18.23,2.14-.33,4.28-1.54,6.11-1.21,1.85-3.09,3.38-5.5,4.3-.21.08-.42.16-.63.22-1.9.62-3.87.79-5.76.56-3.92-.48-7.47-2.66-9.17-6.05-.27-.54-.49-1.09-.64-1.64-1.18-4.12.68-8.46,4.64-10.91h0Z"/>
        <path class="cls-2" d="M325.84,16.48c-2.42-3.01-2.7-6.81-.76-9.54,3.02-4.26,10.83-5.19,15.08-1.51,3.53,3.06,3.7,8.53-.13,12.16-3.26-1.95-7.56-2.42-11.44-.92-.75.29-1.46.64-2.1,1.05-.23-.41-.48-.8-.76-1.16l.11-.07h0Z"/>
        <path class="cls-5" d="M331.16,37.85c-.55,3.63-3.28,6.57-6.82,7.45-5.53,1.38-12.02-2.53-12.3-7.74-.21-3.91,3.12-7.67,7.91-8.68.57-.12,1.16-.21,1.77-.24l.14-.03c.16.56.37,1.1.64,1.64,1.7,3.39,5.25,5.57,9.17,6.05l-.03.18c-.16.46-.28.92-.36,1.38l-.13-.02v.02Z"/>
        <path class="cls-3" d="M319.91,28.78c-4.03.8-8.09-.35-10.29-2.88-3.47-3.99-1.64-10.68,3.84-12.79,4.17-1.61,9.48-.21,12.27,3.44.28.36.53.75.76,1.16-3.95,2.44-5.82,6.8-4.64,10.91l-.14.03c-.61.04-1.2.12-1.77.24l-.03-.11h0Z"/>
        <path class="cls-3" d="M319.28,67.21c2.61,1.13,3.51,4.53,1.57,6.57-1.45,1.53-4.17,1.95-6.37.89-.26-.13-.52-.27-.76-.44l-.03-.02c.61-.93.9-2.01.78-3.1-.06-.54-.21-1.09-.48-1.61-.21-.43-.49-.82-.81-1.16l.23-.06c1.66-1.45,4.06-1.86,5.87-1.07h0Z"/>
        <path class="cls-5" d="M314.45,74.72c1.82.9,2.89,2.54,2.72,4.15-.27,2.53-3.58,4.49-6.46,3.65-2.19-.64-3.62-2.74-3.25-4.93.04-.23.1-.47.18-.7v-.09c.97.12,1.97.03,2.94-.28.11-.03.22-.07.32-.12,1.22-.47,2.17-1.24,2.79-2.18l.03.02c.24.17.5.31.76.44l-.03.05h0Z"/>
        <path class="cls-2" d="M305.02,67.36c.33-.21.68-.38,1.07-.53,1.97-.76,4.15-.52,5.81.47.48.28.92.64,1.29,1.05.32.35.59.73.81,1.16.26.53.42,1.08.48,1.61.11,1.09-.17,2.17-.78,3.1-.62.94-1.57,1.71-2.79,2.18-.11.04-.21.08-.32.12-.96.31-1.96.4-2.92.28-1.99-.24-3.79-1.35-4.65-3.07-.14-.27-.25-.55-.32-.83-.6-2.09.35-4.29,2.35-5.53h-.03Z"/>
        <path class="cls-5" d="M304.69,66.74c-1.23-1.53-1.37-3.45-.39-4.84,1.53-2.16,5.5-2.64,7.65-.76,1.79,1.55,1.88,4.33-.07,6.17-1.65-.99-3.84-1.22-5.81-.47-.38.15-.74.32-1.07.53-.11-.21-.24-.4-.38-.59l.06-.04h.01Z"/>
        <path class="cls-2" d="M307.39,77.58c-.28,1.84-1.66,3.33-3.46,3.78-2.81.69-6.1-1.28-6.24-3.93-.11-2.01,1.64-3.95,4.13-4.43.25-.05.52-.08.78-.1l.07-.02c.08.28.19.56.32.83.86,1.72,2.67,2.83,4.65,3.07v.09c-.09.23-.16.47-.2.7h-.07.02Z"/>
        <path class="cls-3" d="M301.8,72.95c-2.08.45-4.2-.13-5.34-1.44-1.76-2.02-.83-5.42,1.95-6.49,2.12-.81,4.81-.11,6.23,1.75.14.19.27.38.38.59-2,1.24-2.95,3.44-2.35,5.53l-.07.02c-.27.02-.53.05-.78.1v-.06h-.02Z"/>
      </g>
      <g>
        <path class="cls-6" d="M331.67,36.31c-3.92-.48-7.47-2.66-9.17-6.05-.27-.54-.49-1.09-.64-1.64-1.18-4.12.68-8.46,4.64-10.91.65-.4,1.35-.75,2.1-1.05,3.88-1.5,8.18-1.02,11.44.92.95.57,1.8,1.25,2.54,2.05.63.68,1.17,1.46,1.59,2.3.52,1.04.83,2.11.94,3.18.23,2.14-.33,4.28-1.54,6.11-1.21,1.85-3.09,3.38-5.5,4.3-.21.08-.42.16-.63.22-1.9.62-3.87.79-5.76.56h0Z"/>
        <path class="cls-6" d="M326.45,17.16c-.21-.22-.41-.45-.6-.68-2.42-3.01-2.7-6.81-.76-9.54,3.02-4.26,10.83-5.19,15.08-1.51,3.53,3.06,3.7,8.53-.13,12.16-.04.04-.08.08-.12.11"/>
        <path class="cls-6" d="M321.07,28.49c-.38.12-.77.21-1.15.28-4.03.8-8.09-.35-10.29-2.88-3.47-3.99-1.64-10.68,3.84-12.79,4.17-1.61,9.48-.21,12.27,3.44.28.36.53.75.76,1.16,0,0,.01.02.02.04"/>
        <path class="cls-6" d="M331.25,36.95c-.01.3-.05.61-.09.9-.55,3.63-3.28,6.57-6.82,7.45-5.53,1.38-12.02-2.53-12.3-7.74-.21-3.91,3.12-7.67,7.91-8.68.57-.12,1.16-.21,1.77-.24"/>
        <path class="cls-6" d="M344,31.75c.37.15.73.3,1.08.47,3.59,1.78,5.69,5.01,5.36,8.16-.53,4.99-7.06,8.85-12.74,7.19-4.31-1.25-7.14-5.4-6.4-9.71.08-.46.2-.92.36-1.38"/>
        <path class="cls-6" d="M343.03,19.52c3.27-2.86,8-3.65,11.57-2.1,5.15,2.23,6.92,8.93,3.09,12.95-2.87,3.01-8.23,3.82-12.55,1.76-.52-.24-1.02-.54-1.5-.87"/>
        <path class="cls-6" d="M331.57,42.36c-3.18,6.23-6.41,15.03-4.47,23.89,1.52,6.93,5.19,9.26,7.5,14.65,2.93,6.85,3.59,18.53-6.58,39.65"/>
        <path class="cls-6" d="M350.23,75.49c-2.09-.25-3.97-1.42-4.88-3.22-.14-.28-.26-.58-.34-.87-.63-2.19.36-4.5,2.47-5.8.34-.22.72-.4,1.12-.56,2.07-.79,4.36-.55,6.09.49.5.3.96.66,1.35,1.1.34.36.62.77.85,1.22.28.56.44,1.12.5,1.69.12,1.14-.17,2.28-.82,3.25-.65.98-1.65,1.8-2.92,2.29-.11.04-.22.09-.34.12-1.01.33-2.06.42-3.06.29h-.02Z"/>
        <path class="cls-6" d="M347.45,65.31c-.12-.12-.23-.24-.33-.37-1.28-1.59-1.42-3.61-.39-5.07,1.61-2.27,5.76-2.76,8.02-.8,1.88,1.62,1.97,4.54-.07,6.46l-.06.06"/>
        <path class="cls-6" d="M344.59,71.33c-.16.05-.33.09-.49.13-2.18.48-4.4-.14-5.59-1.51-1.85-2.12-.87-5.68,2.04-6.81,2.21-.85,5.03-.11,6.52,1.82.15.2.29.41.41.63,0,0,0,0,.01.02"/>
        <path class="cls-6" d="M350.01,75.84c-.08,1.5-.85,2.83-1.99,3.66-.5.36-1.07.64-1.68.78-2.94.73-6.39-1.35-6.54-4.12-.11-2.11,1.71-4.14,4.33-4.63.27-.05.54-.09.82-.11"/>
        <path class="cls-6" d="M356.79,73.07c.2.08.39.16.57.25,1.91.95,3.03,2.67,2.85,4.34-.28,2.65-3.75,4.7-6.77,3.82-2.36-.68-2.13-5.87-3.22-5.9-.15,0-.3.07-.46.22-.55.49-1.18,1.8-1.74,3.7-1.21,4.04-2.18,10.69-1.67,17.52.58,7.89,2.73,10.66,2.35,18.28-.23,4.56-1.22,8.16-2.01,10.48"/>
        <path class="cls-6" d="M356.27,66.57c1.74-1.52,4.26-1.95,6.15-1.12,2.74,1.18,3.68,4.75,1.64,6.88-1.52,1.6-4.37,2.03-6.67.94-.28-.13-.54-.28-.8-.46"/>
        <path class="cls-6" d="M307.65,76.8c-1.99-.24-3.79-1.35-4.65-3.07-.14-.27-.25-.55-.32-.83-.6-2.09.35-4.29,2.35-5.53.33-.21.68-.38,1.07-.53,1.97-.76,4.15-.52,5.81.47.48.28.92.64,1.29,1.05.32.35.59.73.81,1.16.26.53.42,1.08.48,1.61.11,1.09-.17,2.17-.78,3.1-.62.94-1.57,1.71-2.79,2.18-.11.04-.21.08-.32.12-.96.31-1.96.4-2.92.28h-.03Z"/>
        <path class="cls-6" d="M305,67.08c-.11-.12-.21-.22-.3-.34-1.23-1.53-1.37-3.45-.39-4.84,1.53-2.16,5.5-2.64,7.65-.76,1.79,1.55,1.88,4.33-.07,6.17-.02.02-.04.04-.06.06"/>
        <path class="cls-6" d="M302.27,72.83c-.16.05-.31.09-.47.12-2.08.45-4.2-.13-5.34-1.44-1.76-2.02-.83-5.42,1.95-6.49,2.12-.81,4.81-.11,6.23,1.75.14.19.27.38.38.59,0,0,0,0,.01.02"/>
        <path class="cls-6" d="M307.43,77.13c0,.16-.02.3-.05.45-.28,1.84-1.66,3.33-3.46,3.78-2.81.69-6.1-1.28-6.24-3.93-.11-2.01,1.64-3.95,4.13-4.43.25-.05.52-.08.78-.1"/>
        <path class="cls-6" d="M313.9,74.49c.19.07.37.16.55.23,1.82.9,2.89,2.54,2.72,4.15-.27,2.53-3.58,4.49-6.46,3.65-2.19-.64-3.62-2.74-3.25-4.93.04-.23.1-.47.18-.7"/>
        <path class="cls-6" d="M313.41,68.28c1.66-1.45,4.06-1.86,5.87-1.07,2.61,1.13,3.51,4.53,1.57,6.57-1.45,1.53-4.17,1.95-6.37.89-.26-.13-.52-.27-.76-.44"/>
        <path class="cls-6" d="M306.09,80.42c.55,7.71,2.36,13.41,3.92,17.2,2.01,4.87,3.97,7.5,4.46,12.28.51,5-.9,9.25-2.14,12.03"/>
      </g>
    </g>
  </g>
</svg>