<?xml version="1.0" encoding="UTF-8"?>
<svg id="Layer_1" data-name="Layer 1" xmlns="http://www.w3.org/2000/svg" viewBox="0 0 366.16 127.93">
  <defs>
    <style>
      .cls-1 {
        fill: #c6cf9a;
      }

      .cls-1, .cls-2, .cls-3, .cls-4 {
        stroke-width: 0px;
      }

      .cls-2 {
        fill: #202759;
      }

      .cls-5 {
        fill: none;
        stroke: #231f20;
        stroke-miterlimit: 10;
        stroke-width: 2px;
      }

      .cls-3 {
        fill: #f5eba8;
      }

      .cls-4 {
        fill: #5a6fb5;
      }
    </style>
  </defs>
  <g>
    <g>
      <path class="cls-4" d="M67.86,64.74c2.74,1.21,3.68,4.86,1.64,7.04-1.53,1.64-4.37,2.08-6.67.96-.28-.13-.54-.29-.8-.47l-.03-.02c.64-1,.94-2.16.82-3.32-.06-.58-.22-1.17-.5-1.73-.23-.46-.51-.88-.85-1.25l.24-.06c1.74-1.55,4.26-1.99,6.15-1.14Z"/>
      <path class="cls-1" d="M62.79,72.79c1.91.96,3.03,2.72,2.85,4.44-.28,2.71-3.75,4.81-6.78,3.91-2.36-.7-2.13-6-3.21-6.03v-.1c1.02.13,2.07.04,3.08-.3.11-.04.23-.08.34-.12,1.28-.5,2.28-1.34,2.92-2.34l.03.02c.26.18.52.34.8.47l-.04.05Z"/>
      <path class="cls-4" d="M60.04,15.61c5.15,2.28,6.92,9.13,3.09,13.24-2.87,3.08-8.23,3.92-12.55,1.8-.52-.25-1.02-.55-1.5-.89l-.07-.03c1.21-1.87,1.77-4.06,1.54-6.25-.11-1.09-.42-2.19-.94-3.25-.42-.86-.96-1.65-1.59-2.35l.46-.12c3.27-2.92,8.01-3.74,11.57-2.15Z"/>
      <path class="cls-3" d="M60.11,64.83c.5.31.96.68,1.35,1.11.33.37.62.79.85,1.25.28.56.44,1.15.5,1.73.12,1.17-.17,2.33-.82,3.32-.65,1-1.65,1.84-2.92,2.34-.11.04-.22.09-.34.12-1.01.34-2.06.43-3.06.3-2.09-.26-3.97-1.45-4.88-3.29-.14-.3-.26-.59-.34-.89-.63-2.24.37-4.6,2.47-5.93.34-.22.72-.41,1.12-.57,2.06-.81,4.35-.55,6.08.5Z"/>
      <path class="cls-2" d="M52.56,64.22c-1.28-1.63-1.42-3.69-.39-5.18,1.6-2.32,5.76-2.82,8.02-.82,1.88,1.66,1.97,4.64-.07,6.62-1.73-1.06-4.02-1.31-6.08-.5-.4.16-.77.35-1.12.57-.12-.23-.26-.44-.41-.65l.06-.04Z"/>
      <path class="cls-2" d="M50.51,30.76c3.59,1.82,5.69,5.13,5.36,8.35-.53,5.1-7.05,9.05-12.74,7.35-4.31-1.29-7.14-5.52-6.4-9.93.08-.47.2-.94.36-1.41l.03-.18c1.89.23,3.86.06,5.76-.57.21-.07.42-.15.63-.23,2.4-.94,4.28-2.51,5.5-4.4l.07.03c.48.34.99.63,1.5.89l-.06.1Z"/>
      <path class="cls-1" d="M55.67,75.01v.1c-.16,0-.32.07-.48.22-.55.5-1.18,1.84-1.75,3.78-.5.37-1.07.65-1.68.8-2.94.75-6.39-1.38-6.54-4.21-.11-2.16,1.71-4.23,4.33-4.74.27-.05.54-.09.82-.11l.08-.02c.08.3.2.6.34.89.91,1.84,2.79,3.03,4.88,3.29Z"/>
      <path class="cls-4" d="M49.53,70.89c-2.18.48-4.4-.14-5.59-1.54-1.85-2.17-.87-5.81,2.04-6.96,2.21-.87,5.03-.11,6.52,1.86.15.2.29.42.41.65-2.1,1.33-3.09,3.69-2.47,5.93l-.08.02c-.28.02-.56.05-.82.11l-.02-.06Z"/>
      <path class="cls-3" d="M45.47,15.79c.95.58,1.8,1.28,2.54,2.1.63.7,1.17,1.49,1.59,2.35.52,1.06.83,2.16.94,3.25.23,2.19-.33,4.38-1.54,6.25-1.21,1.89-3.09,3.46-5.5,4.4-.21.08-.42.16-.63.23-1.9.63-3.87.81-5.76.57-3.92-.49-7.47-2.72-9.17-6.19-.27-.55-.48-1.11-.64-1.68-1.18-4.21.68-8.65,4.64-11.15.65-.41,1.35-.77,2.1-1.07,3.88-1.53,8.18-1.04,11.44.94Z"/>
      <path class="cls-1" d="M31.26,14.63c-2.41-3.07-2.68-6.94-.74-9.74,3.02-4.36,10.83-5.31,15.08-1.54,3.53,3.13,3.7,8.72-.13,12.44-3.26-1.99-7.56-2.47-11.44-.94-.75.3-1.46.65-2.1,1.07-.23-.43-.49-.83-.78-1.21l.11-.07Z"/>
      <path class="cls-4" d="M36.59,36.52c-.55,3.71-3.28,6.72-6.82,7.63-5.53,1.41-12.02-2.59-12.3-7.92-.21-4,3.12-7.84,7.91-8.88.57-.12,1.16-.21,1.77-.25l.14-.03c.16.57.37,1.13.64,1.68,1.7,3.47,5.25,5.7,9.17,6.19l-.03.18c-.16.47-.28.95-.36,1.41l-.13-.02Z"/>
      <path class="cls-2" d="M25.35,27.23c-4.03.82-8.09-.36-10.29-2.95-3.47-4.08-1.64-10.92,3.84-13.08,4.16-1.64,9.46-.21,12.26,3.5.28.38.55.79.78,1.21-3.95,2.5-5.82,6.95-4.64,11.15l-.14.03c-.61.04-1.2.12-1.77.25l-.03-.11Z"/>
      <path class="cls-2" d="M24.72,66.54c2.61,1.16,3.51,4.63,1.57,6.72-1.46,1.56-4.17,1.99-6.37.92-.26-.13-.52-.28-.76-.45l-.03-.02c.61-.95.9-2.06.78-3.17-.06-.56-.21-1.11-.48-1.65-.21-.44-.49-.84-.81-1.19l.23-.06c1.66-1.48,4.06-1.9,5.87-1.09Z"/>
      <path class="cls-4" d="M19.88,74.23c1.82.92,2.89,2.6,2.72,4.24-.27,2.59-3.58,4.59-6.46,3.73-2.19-.65-3.62-2.8-3.25-5.04.04-.24.1-.48.18-.72v-.09c.97.12,1.97.03,2.94-.29.11-.04.21-.08.32-.12,1.22-.48,2.17-1.27,2.79-2.23l.03.02c.24.17.5.32.76.45l-.03.05Z"/>
      <path class="cls-1" d="M10.46,66.69c.33-.21.68-.39,1.07-.54,1.97-.77,4.15-.53,5.8.48.48.29.92.65,1.29,1.06.32.36.59.76.81,1.19.27.54.42,1.09.48,1.65.12,1.11-.17,2.22-.78,3.17-.62.96-1.57,1.75-2.79,2.23-.11.04-.21.08-.32.12-.96.32-1.96.41-2.92.29-1.99-.25-3.79-1.38-4.65-3.14-.14-.28-.25-.57-.32-.85-.6-2.14.34-4.39,2.35-5.66Z"/>
      <path class="cls-4" d="M10.13,66.05c-1.23-1.56-1.37-3.53-.38-4.95,1.53-2.21,5.5-2.69,7.65-.78,1.79,1.59,1.88,4.43-.07,6.31-1.65-1.01-3.83-1.25-5.8-.48-.38.15-.74.33-1.07.54-.11-.21-.24-.41-.39-.6l.06-.04Z"/>
      <path class="cls-1" d="M12.82,77.15c-.28,1.88-1.66,3.41-3.46,3.87-2.81.72-6.1-1.31-6.24-4.02-.11-2.06,1.63-4.04,4.13-4.53.25-.05.52-.09.78-.1l.07-.02c.08.29.19.57.32.85.86,1.76,2.67,2.89,4.65,3.14v.09c-.09.24-.16.48-.2.72h-.07Z"/>
      <path class="cls-2" d="M7.23,72.41c-2.08.46-4.2-.13-5.34-1.47-1.76-2.07-.83-5.54,1.95-6.64,2.12-.83,4.81-.11,6.22,1.79.14.19.27.39.39.6-2.01,1.27-2.95,3.52-2.35,5.66l-.07.02c-.27.02-.53.05-.78.1v-.06Z"/>
    </g>
    <g>
      <path class="cls-5" d="M37.11,34.93c-3.92-.49-7.47-2.72-9.17-6.19-.27-.55-.48-1.11-.64-1.68-1.18-4.21.68-8.65,4.64-11.15.65-.41,1.35-.77,2.1-1.07,3.88-1.53,8.18-1.04,11.44.94.95.58,1.8,1.28,2.54,2.1.63.7,1.17,1.49,1.59,2.35.52,1.06.83,2.16.94,3.25.23,2.19-.33,4.38-1.54,6.25-1.21,1.89-3.09,3.46-5.5,4.4-.21.08-.42.16-.63.23-1.9.63-3.87.81-5.76.57Z"/>
      <path class="cls-5" d="M31.88,15.35c-.22-.23-.42-.47-.62-.72-2.41-3.07-2.68-6.94-.74-9.74,3.02-4.36,10.83-5.31,15.08-1.54,3.53,3.13,3.7,8.72-.13,12.44-.04.04-.08.08-.12.11"/>
      <path class="cls-5" d="M26.5,26.94c-.38.12-.77.21-1.15.29-4.03.82-8.09-.36-10.29-2.95-3.47-4.08-1.64-10.92,3.84-13.08,4.16-1.64,9.46-.21,12.26,3.5.28.38.55.79.78,1.21,0,.01.01.02.02.04"/>
      <path class="cls-5" d="M36.69,35.6c-.01.31-.05.61-.09.92-.55,3.71-3.28,6.72-6.82,7.63-5.53,1.41-12.02-2.59-12.3-7.92-.21-4,3.12-7.84,7.91-8.88.57-.12,1.16-.21,1.77-.25"/>
      <path class="cls-5" d="M49.43,30.27c.37.15.73.31,1.08.48,3.59,1.82,5.69,5.13,5.36,8.35-.53,5.1-7.05,9.05-12.74,7.35-4.31-1.29-7.14-5.52-6.4-9.93.08-.47.2-.94.36-1.41"/>
      <path class="cls-5" d="M48.46,17.76c3.27-2.92,8.01-3.74,11.57-2.15,5.15,2.28,6.92,9.13,3.09,13.24-2.87,3.08-8.23,3.92-12.55,1.8-.52-.25-1.02-.55-1.5-.89"/>
      <path class="cls-5" d="M37.01,41.12c-3.18,6.37-6.42,15.37-4.47,24.43,1.52,7.09,5.19,9.47,7.5,14.98,2.93,7.01,3.59,18.95-6.58,40.55"/>
      <path class="cls-5" d="M55.67,75.01c-2.09-.26-3.97-1.45-4.88-3.29-.14-.3-.26-.59-.34-.89-.63-2.24.37-4.6,2.47-5.93.34-.22.72-.41,1.12-.57,2.06-.81,4.35-.55,6.08.5.5.31.96.68,1.35,1.11.33.37.62.79.85,1.25.28.56.44,1.15.5,1.73.12,1.17-.17,2.33-.82,3.32-.65,1-1.65,1.84-2.92,2.34-.11.04-.22.09-.34.12-1.01.34-2.06.43-3.06.3Z"/>
      <path class="cls-5" d="M52.89,64.6c-.12-.12-.23-.25-.33-.38-1.28-1.63-1.42-3.69-.39-5.18,1.6-2.32,5.76-2.82,8.02-.82,1.88,1.66,1.97,4.64-.07,6.62-.02.02-.04.04-.06.06"/>
      <path class="cls-5" d="M50.03,70.76c-.16.05-.33.09-.49.13-2.18.48-4.4-.14-5.59-1.54-1.85-2.17-.87-5.81,2.04-6.96,2.21-.87,5.03-.11,6.52,1.86.15.2.29.42.41.65,0,0,0,.01.01.02"/>
      <path class="cls-5" d="M55.44,75.37c-.08,1.53-.85,2.88-2,3.74-.5.37-1.07.65-1.68.8-2.94.75-6.39-1.38-6.54-4.21-.11-2.16,1.71-4.23,4.33-4.74.27-.05.54-.09.82-.11"/>
      <path class="cls-5" d="M62.22,72.53c.2.08.39.16.57.26,1.91.96,3.03,2.72,2.85,4.44-.28,2.71-3.75,4.81-6.78,3.91-2.36-.7-2.13-6-3.21-6.03-.15,0-.3.07-.46.22-.55.5-1.18,1.84-1.75,3.78-1.21,4.13-2.18,10.93-1.67,17.92.58,8.07,2.73,10.9,2.35,18.69-.23,4.66-1.22,8.35-2.01,10.72"/>
      <path class="cls-5" d="M61.71,65.88c1.74-1.55,4.26-1.99,6.15-1.14,2.74,1.21,3.68,4.86,1.64,7.04-1.53,1.64-4.37,2.08-6.67.96-.28-.13-.54-.29-.8-.47"/>
      <path class="cls-5" d="M13.08,76.35c-1.99-.25-3.79-1.38-4.65-3.14-.14-.28-.25-.57-.32-.85-.6-2.14.34-4.39,2.35-5.66.33-.21.68-.39,1.07-.54,1.97-.77,4.15-.53,5.8.48.48.29.92.65,1.29,1.06.32.36.59.76.81,1.19.27.54.42,1.09.48,1.65.12,1.11-.17,2.22-.78,3.17-.62.96-1.57,1.75-2.79,2.23-.11.04-.21.08-.32.12-.96.32-1.96.41-2.92.29Z"/>
      <path class="cls-5" d="M10.43,66.41c-.11-.12-.21-.23-.31-.36-1.23-1.56-1.37-3.53-.38-4.95,1.53-2.21,5.5-2.69,7.65-.78,1.79,1.59,1.88,4.43-.07,6.31-.02.02-.04.04-.06.06"/>
      <path class="cls-5" d="M7.7,72.29c-.16.05-.31.09-.47.12-2.08.46-4.2-.13-5.34-1.47-1.76-2.07-.83-5.54,1.95-6.64,2.12-.83,4.81-.11,6.22,1.79.14.19.27.39.39.6,0,0,0,.01.01.02"/>
      <path class="cls-5" d="M12.87,76.68c0,.16-.02.31-.05.47-.28,1.88-1.66,3.41-3.46,3.87-2.81.72-6.1-1.31-6.24-4.02-.11-2.06,1.63-4.04,4.13-4.53.25-.05.52-.09.78-.1"/>
      <path class="cls-5" d="M19.34,73.98c.19.07.37.16.55.24,1.82.92,2.89,2.6,2.72,4.24-.27,2.59-3.58,4.59-6.46,3.73-2.19-.65-3.62-2.8-3.25-5.04.04-.24.1-.48.18-.72"/>
      <path class="cls-5" d="M18.84,67.63c1.66-1.48,4.06-1.9,5.87-1.09,2.61,1.16,3.51,4.63,1.57,6.72-1.46,1.56-4.17,1.99-6.37.92-.26-.13-.52-.28-.76-.45"/>
      <path class="cls-5" d="M11.52,80.06c.55,7.88,2.37,13.71,3.93,17.59,2.01,4.98,3.97,7.66,4.46,12.56.51,5.11-.9,9.46-2.14,12.3"/>
    </g>
  </g>
  <g>
    <g>
      <path class="cls-4" d="M143.45,65.33c2.74,1.21,3.68,4.86,1.64,7.04-1.52,1.64-4.37,2.08-6.67.96-.28-.13-.54-.29-.8-.47l-.03-.02c.64-1,.94-2.16.82-3.32-.06-.58-.22-1.16-.5-1.73-.23-.46-.51-.88-.85-1.25l.24-.06c1.74-1.55,4.26-1.99,6.15-1.15Z"/>
      <path class="cls-1" d="M138.38,73.39c1.91.97,3.03,2.73,2.85,4.44-.28,2.71-3.75,4.81-6.77,3.91-2.36-.7-2.13-6-3.22-6.03v-.1c1.02.12,2.07.03,3.08-.3.11-.04.23-.08.34-.12,1.28-.5,2.28-1.34,2.92-2.34l.03.02c.26.18.52.34.8.47l-.03.05Z"/>
      <path class="cls-4" d="M135.62,16.21c5.15,2.28,6.92,9.13,3.09,13.24-2.87,3.08-8.23,3.91-12.55,1.8-.52-.25-1.02-.55-1.5-.89l-.07-.03c1.21-1.87,1.77-4.06,1.54-6.25-.11-1.1-.42-2.19-.94-3.25-.42-.86-.96-1.65-1.59-2.35l.46-.12c3.27-2.92,8-3.73,11.57-2.15Z"/>
      <path class="cls-3" d="M128.5,65.49c.34-.22.72-.41,1.12-.57,2.07-.81,4.36-.56,6.09.5.5.31.96.68,1.35,1.12.34.37.62.79.85,1.25.28.57.44,1.15.5,1.73.12,1.17-.17,2.33-.82,3.32-.65,1-1.65,1.84-2.92,2.34-.11.04-.22.09-.34.12-1.01.34-2.06.43-3.06.3-2.09-.26-3.97-1.45-4.88-3.29-.14-.29-.26-.59-.34-.89-.63-2.24.36-4.6,2.47-5.93Z"/>
      <path class="cls-2" d="M128.15,64.81c-1.28-1.63-1.42-3.69-.39-5.18,1.61-2.32,5.76-2.82,8.02-.82,1.88,1.66,1.97,4.64-.07,6.61-1.73-1.06-4.02-1.31-6.09-.5-.4.16-.77.35-1.12.57-.12-.23-.26-.44-.41-.64l.06-.04Z"/>
      <path class="cls-2" d="M126.1,31.35c3.59,1.82,5.69,5.12,5.36,8.35-.53,5.1-7.06,9.05-12.74,7.35-4.31-1.28-7.14-5.52-6.4-9.93.08-.47.2-.94.36-1.41l.03-.18c1.89.23,3.87.06,5.76-.57.21-.07.42-.15.63-.23,2.4-.94,4.28-2.51,5.5-4.4l.07.03c.48.34.99.63,1.5.89l-.06.1Z"/>
      <path class="cls-1" d="M131.26,75.61v.1c-.16,0-.31.07-.48.22-.55.5-1.18,1.84-1.74,3.78-.5.37-1.07.65-1.68.8-2.94.75-6.39-1.38-6.54-4.21-.11-2.16,1.71-4.23,4.33-4.74.27-.05.54-.09.82-.11l.08-.02c.08.3.2.6.34.89.91,1.84,2.79,3.03,4.88,3.29Z"/>
      <path class="cls-4" d="M125.12,71.49c-2.18.49-4.4-.14-5.59-1.54-1.85-2.17-.87-5.81,2.04-6.96,2.21-.87,5.03-.11,6.52,1.86.15.2.29.42.41.64-2.1,1.33-3.09,3.69-2.47,5.93l-.08.02c-.28.02-.56.05-.82.11l-.02-.06Z"/>
      <path class="cls-3" d="M107.52,16.51c.65-.41,1.35-.77,2.1-1.07,3.88-1.53,8.18-1.04,11.44.94.95.58,1.8,1.28,2.54,2.1.63.7,1.17,1.49,1.59,2.35.52,1.06.83,2.16.94,3.25.23,2.19-.33,4.38-1.54,6.25-1.21,1.89-3.09,3.46-5.5,4.4-.21.08-.42.16-.63.23-1.9.63-3.87.81-5.76.57-3.92-.49-7.47-2.72-9.17-6.19-.27-.55-.49-1.11-.64-1.68-1.18-4.21.68-8.65,4.64-11.16Z"/>
      <path class="cls-1" d="M106.86,15.25c-2.42-3.08-2.7-6.96-.76-9.76,3.02-4.36,10.83-5.31,15.08-1.54,3.53,3.13,3.7,8.72-.13,12.44-3.26-1.99-7.56-2.47-11.44-.94-.75.3-1.46.65-2.1,1.07-.23-.42-.48-.82-.76-1.19l.11-.07Z"/>
      <path class="cls-4" d="M112.18,37.11c-.55,3.71-3.28,6.72-6.82,7.62-5.53,1.41-12.02-2.59-12.3-7.92-.21-4,3.12-7.84,7.91-8.88.57-.12,1.16-.21,1.77-.25l.14-.03c.16.57.37,1.13.64,1.68,1.7,3.47,5.25,5.7,9.17,6.19l-.03.18c-.16.47-.28.94-.36,1.41l-.13-.02Z"/>
      <path class="cls-2" d="M100.93,27.83c-4.03.82-8.09-.36-10.29-2.95-3.47-4.08-1.64-10.92,3.84-13.08,4.17-1.65,9.48-.21,12.27,3.52.28.37.53.77.76,1.19-3.95,2.5-5.82,6.95-4.64,11.16l-.14.03c-.61.04-1.2.12-1.77.25l-.03-.11Z"/>
      <path class="cls-2" d="M100.3,67.14c2.61,1.16,3.51,4.63,1.57,6.72-1.45,1.56-4.17,1.99-6.37.91-.26-.13-.52-.28-.76-.45l-.03-.02c.61-.95.9-2.06.78-3.17-.06-.55-.21-1.11-.48-1.65-.21-.44-.49-.84-.81-1.19l.23-.06c1.66-1.48,4.06-1.9,5.87-1.09Z"/>
      <path class="cls-4" d="M95.47,74.82c1.82.92,2.89,2.6,2.72,4.24-.27,2.59-3.58,4.59-6.46,3.73-2.19-.65-3.62-2.8-3.25-5.04.04-.24.1-.48.18-.72v-.09c.97.12,1.97.03,2.94-.29.11-.03.22-.07.32-.12,1.22-.48,2.17-1.27,2.79-2.23l.03.02c.24.17.5.32.76.45l-.03.05Z"/>
      <path class="cls-1" d="M92.91,67.23c.48.29.92.65,1.29,1.07.32.36.59.75.81,1.19.26.54.42,1.1.48,1.65.11,1.11-.17,2.22-.78,3.17-.62.96-1.57,1.75-2.79,2.23-.11.04-.21.08-.32.12-.96.32-1.96.41-2.92.29-1.99-.25-3.79-1.38-4.65-3.14-.14-.28-.25-.56-.32-.85-.6-2.14.35-4.39,2.35-5.66.33-.21.68-.39,1.07-.54,1.97-.78,4.15-.53,5.81.48Z"/>
      <path class="cls-4" d="M85.71,66.65c-1.23-1.56-1.37-3.53-.39-4.95,1.53-2.21,5.5-2.7,7.65-.78,1.79,1.59,1.88,4.43-.07,6.31-1.65-1.01-3.84-1.25-5.81-.48-.38.15-.74.33-1.07.54-.11-.21-.24-.41-.38-.6l.06-.04Z"/>
      <path class="cls-1" d="M88.41,77.74c-.28,1.88-1.66,3.41-3.46,3.87-2.81.71-6.1-1.31-6.24-4.02-.11-2.06,1.64-4.04,4.13-4.53.25-.05.52-.08.78-.1l.07-.02c.08.29.19.57.32.85.86,1.76,2.67,2.89,4.65,3.14v.09c-.09.24-.16.48-.2.72h-.07Z"/>
      <path class="cls-2" d="M82.82,73.01c-2.08.46-4.2-.13-5.34-1.47-1.76-2.07-.83-5.54,1.95-6.64,2.12-.83,4.81-.11,6.23,1.79.14.19.27.39.38.6-2,1.27-2.95,3.52-2.35,5.66l-.07.02c-.27.02-.53.05-.78.1v-.06Z"/>
    </g>
    <g>
      <path class="cls-5" d="M112.7,35.53c-3.92-.49-7.47-2.72-9.17-6.19-.27-.55-.49-1.11-.64-1.68-1.18-4.21.68-8.65,4.64-11.16.65-.41,1.35-.77,2.1-1.07,3.88-1.53,8.18-1.04,11.44.94.95.58,1.8,1.28,2.54,2.1.63.7,1.17,1.49,1.59,2.35.52,1.06.83,2.16.94,3.25.23,2.19-.33,4.38-1.54,6.25-1.21,1.89-3.09,3.46-5.5,4.4-.21.08-.42.16-.63.23-1.9.63-3.87.81-5.76.57Z"/>
      <path class="cls-5" d="M107.47,15.95c-.21-.23-.41-.46-.6-.7-2.42-3.08-2.7-6.96-.76-9.76,3.02-4.36,10.83-5.31,15.08-1.54,3.53,3.13,3.7,8.72-.13,12.44-.04.04-.08.08-.12.11"/>
      <path class="cls-5" d="M102.09,27.54c-.38.12-.77.21-1.15.29-4.03.82-8.09-.36-10.29-2.95-3.47-4.08-1.64-10.92,3.84-13.08,4.17-1.65,9.48-.21,12.27,3.52.28.37.53.77.76,1.19,0,.01.01.02.02.04"/>
      <path class="cls-5" d="M112.27,36.2c-.01.31-.05.62-.09.92-.55,3.71-3.28,6.72-6.82,7.62-5.53,1.41-12.02-2.59-12.3-7.92-.21-4,3.12-7.84,7.91-8.88.57-.12,1.16-.21,1.77-.25"/>
      <path class="cls-5" d="M125.02,30.87c.37.15.73.31,1.08.48,3.59,1.82,5.69,5.12,5.36,8.35-.53,5.1-7.06,9.05-12.74,7.35-4.31-1.28-7.14-5.52-6.4-9.93.08-.47.2-.94.36-1.41"/>
      <path class="cls-5" d="M124.05,18.36c3.27-2.92,8-3.73,11.57-2.15,5.15,2.28,6.92,9.13,3.09,13.24-2.87,3.08-8.23,3.91-12.55,1.8-.52-.25-1.02-.55-1.5-.89"/>
      <path class="cls-5" d="M112.6,41.72c-3.18,6.37-6.41,15.37-4.47,24.43,1.52,7.09,5.19,9.47,7.5,14.98,2.93,7.01,3.59,18.95-6.58,40.55"/>
      <path class="cls-5" d="M131.26,75.61c-2.09-.26-3.97-1.45-4.88-3.29-.14-.29-.26-.59-.34-.89-.63-2.24.36-4.6,2.47-5.93.34-.22.72-.41,1.12-.57,2.07-.81,4.36-.56,6.09.5.5.31.96.68,1.35,1.12.34.37.62.79.85,1.25.28.57.44,1.15.5,1.73.12,1.17-.17,2.33-.82,3.32-.65,1-1.65,1.84-2.92,2.34-.11.04-.22.09-.34.12-1.01.34-2.06.43-3.06.3Z"/>
      <path class="cls-5" d="M128.47,65.2c-.12-.12-.23-.25-.33-.38-1.28-1.63-1.42-3.69-.39-5.18,1.61-2.32,5.76-2.82,8.02-.82,1.88,1.66,1.97,4.64-.07,6.61l-.06.06"/>
      <path class="cls-5" d="M125.61,71.36c-.16.05-.33.09-.49.13-2.18.49-4.4-.14-5.59-1.54-1.85-2.17-.87-5.81,2.04-6.96,2.21-.87,5.03-.11,6.52,1.86.15.2.29.42.41.64,0,0,0,.01.01.02"/>
      <path class="cls-5" d="M131.03,75.96c-.08,1.53-.85,2.89-1.99,3.74-.5.37-1.07.65-1.68.8-2.94.75-6.39-1.38-6.54-4.21-.11-2.16,1.71-4.23,4.33-4.74.27-.05.54-.09.82-.11"/>
      <path class="cls-5" d="M137.81,73.13c.2.08.39.16.57.26,1.91.97,3.03,2.73,2.85,4.44-.28,2.71-3.75,4.81-6.77,3.91-2.36-.7-2.13-6-3.22-6.03-.15,0-.3.07-.46.22-.55.5-1.18,1.84-1.74,3.78-1.21,4.13-2.18,10.93-1.67,17.92.58,8.07,2.73,10.9,2.35,18.69-.23,4.66-1.22,8.35-2.01,10.72"/>
      <path class="cls-5" d="M137.29,66.48c1.74-1.55,4.26-1.99,6.15-1.15,2.74,1.21,3.68,4.86,1.64,7.04-1.52,1.64-4.37,2.08-6.67.96-.28-.13-.54-.29-.8-.47"/>
      <path class="cls-5" d="M88.67,76.94c-1.99-.25-3.79-1.38-4.65-3.14-.14-.28-.25-.56-.32-.85-.6-2.14.35-4.39,2.35-5.66.33-.21.68-.39,1.07-.54,1.97-.78,4.15-.53,5.81.48.48.29.92.65,1.29,1.07.32.36.59.75.81,1.19.26.54.42,1.1.48,1.65.11,1.11-.17,2.22-.78,3.17-.62.96-1.57,1.75-2.79,2.23-.11.04-.21.08-.32.12-.96.32-1.96.41-2.92.29Z"/>
      <path class="cls-5" d="M86.02,67.01c-.11-.12-.21-.23-.3-.35-1.23-1.56-1.37-3.53-.39-4.95,1.53-2.21,5.5-2.7,7.65-.78,1.79,1.59,1.88,4.43-.07,6.31-.02.02-.04.04-.06.06"/>
      <path class="cls-5" d="M83.29,72.89c-.16.05-.31.09-.47.12-2.08.46-4.2-.13-5.34-1.47-1.76-2.07-.83-5.54,1.95-6.64,2.12-.83,4.81-.11,6.23,1.79.14.19.27.39.38.6,0,0,0,.01.01.02"/>
      <path class="cls-5" d="M88.45,77.28c0,.16-.02.31-.05.46-.28,1.88-1.66,3.41-3.46,3.87-2.81.71-6.1-1.31-6.24-4.02-.11-2.06,1.64-4.04,4.13-4.53.25-.05.52-.08.78-.1"/>
      <path class="cls-5" d="M94.92,74.58c.19.07.37.16.55.24,1.82.92,2.89,2.6,2.72,4.24-.27,2.59-3.58,4.59-6.46,3.73-2.19-.65-3.62-2.8-3.25-5.04.04-.24.1-.48.18-.72"/>
      <path class="cls-5" d="M94.43,68.23c1.66-1.48,4.06-1.9,5.87-1.09,2.61,1.16,3.51,4.63,1.57,6.72-1.45,1.56-4.17,1.99-6.37.91-.26-.13-.52-.28-.76-.45"/>
      <path class="cls-5" d="M87.11,80.65c.55,7.88,2.36,13.71,3.92,17.59,2.01,4.98,3.97,7.67,4.46,12.56.51,5.11-.9,9.46-2.14,12.3"/>
    </g>
  </g>
  <g>
    <g>
      <path class="cls-4" d="M219.03,65.91c2.74,1.21,3.68,4.86,1.64,7.04-1.52,1.64-4.37,2.08-6.67.96-.28-.13-.54-.29-.8-.47l-.03-.02c.64-1,.94-2.16.82-3.32-.06-.58-.22-1.16-.5-1.73-.23-.46-.51-.88-.85-1.25l.24-.06c1.74-1.55,4.26-1.99,6.15-1.15Z"/>
      <path class="cls-1" d="M213.97,73.96c1.91.97,3.03,2.73,2.85,4.44-.28,2.71-3.75,4.81-6.77,3.91-2.36-.7-2.13-6-3.22-6.03v-.1c1.02.12,2.07.03,3.08-.3.11-.04.23-.08.34-.12,1.28-.5,2.28-1.34,2.92-2.34l.03.02c.26.18.52.34.8.47l-.03.05Z"/>
      <path class="cls-4" d="M211.21,16.78c5.15,2.28,6.92,9.13,3.09,13.24-2.87,3.08-8.23,3.91-12.55,1.8-.52-.25-1.02-.55-1.5-.89l-.07-.03c1.21-1.87,1.77-4.06,1.54-6.25-.11-1.1-.42-2.19-.94-3.25-.42-.86-.96-1.65-1.59-2.35l.46-.12c3.27-2.92,8-3.73,11.57-2.15Z"/>
      <path class="cls-3" d="M204.09,66.07c.34-.22.72-.41,1.12-.57,2.07-.81,4.36-.56,6.09.5.5.31.96.68,1.35,1.12.34.37.62.79.85,1.25.28.57.44,1.15.5,1.73.12,1.17-.17,2.33-.82,3.32-.65,1-1.65,1.84-2.92,2.34-.11.04-.22.09-.34.12-1.01.34-2.06.43-3.06.3-2.09-.26-3.97-1.45-4.88-3.29-.14-.29-.26-.59-.34-.89-.63-2.24.36-4.6,2.47-5.93Z"/>
      <path class="cls-2" d="M203.73,65.39c-1.28-1.63-1.42-3.69-.39-5.18,1.61-2.32,5.76-2.82,8.02-.82,1.88,1.66,1.97,4.64-.07,6.61-1.73-1.06-4.02-1.31-6.09-.5-.4.16-.77.35-1.12.57-.12-.23-.26-.44-.41-.64l.06-.04Z"/>
      <path class="cls-2" d="M201.68,31.93c3.59,1.82,5.69,5.12,5.36,8.35-.53,5.1-7.06,9.05-12.74,7.35-4.31-1.28-7.14-5.52-6.4-9.93.08-.47.2-.94.36-1.41l.03-.18c1.89.23,3.87.06,5.76-.57.21-.07.42-.15.63-.23,2.4-.94,4.28-2.51,5.5-4.4l.07.03c.48.34.99.63,1.5.89l-.06.1Z"/>
      <path class="cls-1" d="M206.84,76.19v.1c-.16,0-.31.07-.48.22-.55.5-1.18,1.84-1.74,3.78-.5.37-1.07.65-1.68.8-2.94.75-6.39-1.38-6.54-4.21-.11-2.16,1.71-4.23,4.33-4.74.27-.05.54-.09.82-.11l.08-.02c.08.3.2.6.34.89.91,1.84,2.79,3.03,4.88,3.29Z"/>
      <path class="cls-4" d="M200.71,72.06c-2.18.49-4.4-.14-5.59-1.54-1.85-2.17-.87-5.81,2.04-6.96,2.21-.87,5.03-.11,6.52,1.86.15.2.29.42.41.64-2.1,1.33-3.09,3.69-2.47,5.93l-.08.02c-.28.02-.56.05-.82.11l-.02-.06Z"/>
      <path class="cls-3" d="M196.64,16.96c.95.58,1.8,1.28,2.54,2.1.63.7,1.17,1.49,1.59,2.35.52,1.06.83,2.16.94,3.25.23,2.19-.33,4.38-1.54,6.25-1.21,1.89-3.09,3.46-5.5,4.4-.21.08-.42.16-.63.23-1.9.63-3.87.81-5.76.57-3.92-.49-7.47-2.72-9.17-6.19-.27-.55-.49-1.11-.64-1.68-1.18-4.21.68-8.65,4.64-11.16.65-.41,1.35-.77,2.1-1.07,3.88-1.53,8.18-1.04,11.44.94Z"/>
      <path class="cls-1" d="M182.45,15.83c-2.42-3.08-2.7-6.96-.76-9.76,3.02-4.36,10.83-5.31,15.08-1.54,3.53,3.13,3.7,8.72-.13,12.44-3.26-1.99-7.56-2.47-11.44-.94-.75.3-1.46.65-2.1,1.07-.23-.42-.48-.82-.76-1.19l.11-.07Z"/>
      <path class="cls-4" d="M187.76,37.69c-.55,3.71-3.28,6.72-6.82,7.62-5.53,1.41-12.02-2.59-12.3-7.92-.21-4,3.12-7.84,7.91-8.88.57-.12,1.16-.21,1.77-.25l.14-.03c.16.57.37,1.13.64,1.68,1.7,3.47,5.25,5.7,9.17,6.19l-.03.18c-.16.47-.28.94-.36,1.41l-.13-.02Z"/>
      <path class="cls-2" d="M176.52,28.41c-4.03.82-8.09-.36-10.29-2.95-3.47-4.08-1.64-10.92,3.84-13.08,4.17-1.65,9.48-.21,12.27,3.52.28.37.53.77.76,1.19-3.95,2.5-5.82,6.95-4.64,11.16l-.14.03c-.61.04-1.2.12-1.77.25l-.03-.11Z"/>
      <path class="cls-2" d="M175.89,67.72c2.61,1.16,3.51,4.63,1.57,6.72-1.45,1.56-4.17,1.99-6.37.91-.26-.13-.52-.28-.76-.45l-.03-.02c.61-.95.9-2.06.78-3.17-.06-.55-.21-1.11-.48-1.65-.21-.44-.49-.84-.81-1.19l.23-.06c1.66-1.48,4.06-1.9,5.87-1.09Z"/>
      <path class="cls-4" d="M171.05,75.4c1.82.92,2.89,2.6,2.72,4.24-.27,2.59-3.58,4.59-6.46,3.73-2.19-.65-3.62-2.8-3.25-5.04.04-.24.1-.48.18-.72v-.09c.97.12,1.97.03,2.94-.29.11-.03.22-.07.32-.12,1.22-.48,2.17-1.27,2.79-2.23l.03.02c.24.17.5.32.76.45l-.03.05Z"/>
      <path class="cls-1" d="M168.5,67.81c.48.29.92.65,1.29,1.07.32.36.59.75.81,1.19.26.54.42,1.1.48,1.65.11,1.11-.17,2.22-.78,3.17-.62.96-1.57,1.75-2.79,2.23-.11.04-.21.08-.32.12-.96.32-1.96.41-2.92.29-1.99-.25-3.79-1.38-4.65-3.14-.14-.28-.25-.56-.32-.85-.6-2.14.35-4.39,2.35-5.66.33-.21.68-.39,1.07-.54,1.97-.78,4.15-.53,5.81.48Z"/>
      <path class="cls-4" d="M161.3,67.23c-1.23-1.56-1.37-3.53-.39-4.95,1.53-2.21,5.5-2.7,7.65-.78,1.79,1.59,1.88,4.43-.07,6.31-1.65-1.01-3.84-1.25-5.81-.48-.38.15-.74.33-1.07.54-.11-.21-.24-.41-.38-.6l.06-.04Z"/>
      <path class="cls-1" d="M163.99,78.32c-.28,1.88-1.66,3.41-3.46,3.87-2.81.71-6.1-1.31-6.24-4.02-.11-2.06,1.64-4.04,4.13-4.53.25-.05.52-.08.78-.1l.07-.02c.08.29.19.57.32.85.86,1.76,2.67,2.89,4.65,3.14v.09c-.09.24-.16.48-.2.72h-.07Z"/>
      <path class="cls-2" d="M158.41,73.59c-2.08.46-4.2-.13-5.34-1.47-1.76-2.07-.83-5.54,1.95-6.64,2.12-.83,4.81-.11,6.23,1.79.14.19.27.39.38.6-2,1.27-2.95,3.52-2.35,5.66l-.07.02c-.27.02-.53.05-.78.1v-.06Z"/>
    </g>
    <g>
      <path class="cls-5" d="M188.28,36.11c-3.92-.49-7.47-2.72-9.17-6.19-.27-.55-.49-1.11-.64-1.68-1.18-4.21.68-8.65,4.64-11.16.65-.41,1.35-.77,2.1-1.07,3.88-1.53,8.18-1.04,11.44.94.95.58,1.8,1.28,2.54,2.1.63.7,1.17,1.49,1.59,2.35.52,1.06.83,2.16.94,3.25.23,2.19-.33,4.38-1.54,6.25-1.21,1.89-3.09,3.46-5.5,4.4-.21.08-.42.16-.63.23-1.9.63-3.87.81-5.76.57Z"/>
      <path class="cls-5" d="M183.05,16.53c-.21-.23-.41-.46-.6-.7-2.42-3.08-2.7-6.96-.76-9.76,3.02-4.36,10.83-5.31,15.08-1.54,3.53,3.13,3.7,8.72-.13,12.44-.04.04-.08.08-.12.11"/>
      <path class="cls-5" d="M177.67,28.12c-.38.12-.77.21-1.15.29-4.03.82-8.09-.36-10.29-2.95-3.47-4.08-1.64-10.92,3.84-13.08,4.17-1.65,9.48-.21,12.27,3.52.28.37.53.77.76,1.19,0,.01.01.02.02.04"/>
      <path class="cls-5" d="M187.86,36.77c-.01.31-.05.62-.09.92-.55,3.71-3.28,6.72-6.82,7.62-5.53,1.41-12.02-2.59-12.3-7.92-.21-4,3.12-7.84,7.91-8.88.57-.12,1.16-.21,1.77-.25"/>
      <path class="cls-5" d="M200.6,31.45c.37.15.73.31,1.08.48,3.59,1.82,5.69,5.12,5.36,8.35-.53,5.1-7.06,9.05-12.74,7.35-4.31-1.28-7.14-5.52-6.4-9.93.08-.47.2-.94.36-1.41"/>
      <path class="cls-5" d="M199.64,18.94c3.27-2.92,8-3.73,11.57-2.15,5.15,2.28,6.92,9.13,3.09,13.24-2.87,3.08-8.23,3.91-12.55,1.8-.52-.25-1.02-.55-1.5-.89"/>
      <path class="cls-5" d="M188.18,42.3c-3.18,6.37-6.41,15.37-4.47,24.43,1.52,7.09,5.19,9.47,7.5,14.98,2.93,7.01,3.59,18.95-6.58,40.55"/>
      <path class="cls-5" d="M206.84,76.19c-2.09-.26-3.97-1.45-4.88-3.29-.14-.29-.26-.59-.34-.89-.63-2.24.36-4.6,2.47-5.93.34-.22.72-.41,1.12-.57,2.07-.81,4.36-.56,6.09.5.5.31.96.68,1.35,1.12.34.37.62.79.85,1.25.28.57.44,1.15.5,1.73.12,1.17-.17,2.33-.82,3.32-.65,1-1.65,1.84-2.92,2.34-.11.04-.22.09-.34.12-1.01.34-2.06.43-3.06.3Z"/>
      <path class="cls-5" d="M204.06,65.77c-.12-.12-.23-.25-.33-.38-1.28-1.63-1.42-3.69-.39-5.18,1.61-2.32,5.76-2.82,8.02-.82,1.88,1.66,1.97,4.64-.07,6.61l-.06.06"/>
      <path class="cls-5" d="M201.2,71.94c-.16.05-.33.09-.49.13-2.18.49-4.4-.14-5.59-1.54-1.85-2.17-.87-5.81,2.04-6.96,2.21-.87,5.03-.11,6.52,1.86.15.2.29.42.41.64,0,0,0,.01.01.02"/>
      <path class="cls-5" d="M206.61,76.54c-.08,1.53-.85,2.89-1.99,3.74-.5.37-1.07.65-1.68.8-2.94.75-6.39-1.38-6.54-4.21-.11-2.16,1.71-4.23,4.33-4.74.27-.05.54-.09.82-.11"/>
      <path class="cls-5" d="M213.39,73.71c.2.08.39.16.57.26,1.91.97,3.03,2.73,2.85,4.44-.28,2.71-3.75,4.81-6.77,3.91-2.36-.7-2.13-6-3.22-6.03-.15,0-.3.07-.46.22-.55.5-1.18,1.84-1.74,3.78-1.21,4.13-2.18,10.93-1.67,17.92.58,8.07,2.73,10.9,2.35,18.69-.23,4.66-1.22,8.35-2.01,10.72"/>
      <path class="cls-5" d="M212.88,67.06c1.74-1.55,4.26-1.99,6.15-1.15,2.74,1.21,3.68,4.86,1.64,7.04-1.52,1.64-4.37,2.08-6.67.96-.28-.13-.54-.29-.8-.47"/>
      <path class="cls-5" d="M164.26,77.52c-1.99-.25-3.79-1.38-4.65-3.14-.14-.28-.25-.56-.32-.85-.6-2.14.35-4.39,2.35-5.66.33-.21.68-.39,1.07-.54,1.97-.78,4.15-.53,5.81.48.48.29.92.65,1.29,1.07.32.36.59.75.81,1.19.26.54.42,1.1.48,1.65.11,1.11-.17,2.22-.78,3.17-.62.96-1.57,1.75-2.79,2.23-.11.04-.21.08-.32.12-.96.32-1.96.41-2.92.29Z"/>
      <path class="cls-5" d="M161.6,67.58c-.11-.12-.21-.23-.3-.35-1.23-1.56-1.37-3.53-.39-4.95,1.53-2.21,5.5-2.7,7.65-.78,1.79,1.59,1.88,4.43-.07,6.31-.02.02-.04.04-.06.06"/>
      <path class="cls-5" d="M158.87,73.47c-.16.05-.31.09-.47.12-2.08.46-4.2-.13-5.34-1.47-1.76-2.07-.83-5.54,1.95-6.64,2.12-.83,4.81-.11,6.23,1.79.14.19.27.39.38.6,0,0,0,.01.01.02"/>
      <path class="cls-5" d="M164.04,77.86c0,.16-.02.31-.05.46-.28,1.88-1.66,3.41-3.46,3.87-2.81.71-6.1-1.31-6.24-4.02-.11-2.06,1.64-4.04,4.13-4.53.25-.05.52-.08.78-.1"/>
      <path class="cls-5" d="M170.51,75.16c.19.07.37.16.55.24,1.82.92,2.89,2.6,2.72,4.24-.27,2.59-3.58,4.59-6.46,3.73-2.19-.65-3.62-2.8-3.25-5.04.04-.24.1-.48.18-.72"/>
      <path class="cls-5" d="M170.02,68.81c1.66-1.48,4.06-1.9,5.87-1.09,2.61,1.16,3.51,4.63,1.57,6.72-1.45,1.56-4.17,1.99-6.37.91-.26-.13-.52-.28-.76-.45"/>
      <path class="cls-5" d="M162.7,81.23c.55,7.88,2.36,13.71,3.92,17.59,2.01,4.98,3.97,7.67,4.46,12.56.51,5.11-.9,9.46-2.14,12.3"/>
    </g>
  </g>
  <g>
    <g>
      <path class="cls-4" d="M292.82,65.1c2.74,1.21,3.68,4.86,1.64,7.04-1.52,1.64-4.37,2.08-6.67.96-.28-.13-.54-.29-.8-.47l-.03-.02c.64-1,.94-2.16.82-3.32-.06-.58-.22-1.16-.5-1.73-.23-.46-.51-.88-.85-1.25l.24-.06c1.74-1.55,4.26-1.99,6.15-1.15Z"/>
      <path class="cls-1" d="M287.75,73.16c1.91.97,3.03,2.73,2.85,4.44-.28,2.71-3.75,4.81-6.77,3.91-2.36-.7-2.13-6-3.22-6.03v-.1c1.02.12,2.07.03,3.08-.3.11-.04.23-.08.34-.12,1.28-.5,2.28-1.34,2.92-2.34l.03.02c.26.18.52.34.8.47l-.03.05Z"/>
      <path class="cls-4" d="M284.99,15.98c5.15,2.28,6.92,9.13,3.09,13.24-2.87,3.08-8.23,3.91-12.55,1.8-.52-.25-1.02-.55-1.5-.89l-.07-.03c1.21-1.87,1.77-4.06,1.54-6.25-.11-1.1-.42-2.19-.94-3.25-.42-.86-.96-1.65-1.59-2.35l.46-.12c3.27-2.92,8-3.73,11.57-2.15Z"/>
      <path class="cls-3" d="M285.07,65.2c.5.31.96.68,1.35,1.12.34.37.62.79.85,1.25.28.57.44,1.15.5,1.73.12,1.17-.17,2.33-.82,3.32-.65,1-1.65,1.84-2.92,2.34-.11.04-.22.09-.34.12-1.01.34-2.06.43-3.06.3-2.09-.26-3.97-1.45-4.88-3.29-.14-.29-.26-.59-.34-.89-.63-2.24.36-4.6,2.47-5.93.34-.22.72-.41,1.12-.57,2.07-.81,4.36-.56,6.09.5Z"/>
      <path class="cls-2" d="M277.51,64.58c-1.28-1.63-1.42-3.69-.39-5.18,1.61-2.32,5.76-2.82,8.02-.82,1.88,1.66,1.97,4.64-.07,6.61-1.73-1.06-4.02-1.31-6.09-.5-.4.16-.77.35-1.12.57-.12-.23-.26-.44-.41-.64l.06-.04Z"/>
      <path class="cls-2" d="M275.46,31.12c3.59,1.82,5.69,5.12,5.36,8.35-.53,5.1-7.06,9.05-12.74,7.35-4.31-1.28-7.14-5.52-6.4-9.93.08-.47.2-.94.36-1.41l.03-.18c1.89.23,3.87.06,5.76-.57.21-.07.42-.15.63-.23,2.4-.94,4.28-2.51,5.5-4.4l.07.03c.48.34.99.63,1.5.89l-.06.1Z"/>
      <path class="cls-1" d="M280.62,75.38v.1c-.16,0-.31.07-.48.22-.55.5-1.18,1.84-1.74,3.78-.5.37-1.07.65-1.68.8-2.94.75-6.39-1.38-6.54-4.21-.11-2.16,1.71-4.23,4.33-4.74.27-.05.54-.09.82-.11l.08-.02c.08.3.2.6.34.89.91,1.84,2.79,3.03,4.88,3.29Z"/>
      <path class="cls-4" d="M274.49,71.26c-2.18.49-4.4-.14-5.59-1.54-1.85-2.17-.87-5.81,2.04-6.96,2.21-.87,5.03-.11,6.52,1.86.15.2.29.42.41.64-2.1,1.33-3.09,3.69-2.47,5.93l-.08.02c-.28.02-.56.05-.82.11l-.02-.06Z"/>
      <path class="cls-3" d="M270.43,16.16c.95.58,1.8,1.28,2.54,2.1.63.7,1.17,1.49,1.59,2.35.52,1.06.83,2.16.94,3.25.23,2.19-.33,4.38-1.54,6.25-1.21,1.89-3.09,3.46-5.5,4.4-.21.08-.42.16-.63.23-1.9.63-3.87.81-5.76.57-3.92-.49-7.47-2.72-9.17-6.19-.27-.55-.49-1.11-.64-1.68-1.18-4.21.68-8.65,4.64-11.16.65-.41,1.35-.77,2.1-1.07,3.88-1.53,8.18-1.04,11.44.94Z"/>
      <path class="cls-1" d="M256.23,15.02c-2.42-3.08-2.7-6.96-.76-9.76,3.02-4.36,10.83-5.31,15.08-1.54,3.53,3.13,3.7,8.72-.13,12.44-3.26-1.99-7.56-2.47-11.44-.94-.75.3-1.46.65-2.1,1.07-.23-.42-.48-.82-.76-1.19l.11-.07Z"/>
      <path class="cls-4" d="M261.55,36.88c-.55,3.71-3.28,6.72-6.82,7.62-5.53,1.41-12.02-2.59-12.3-7.92-.21-4,3.12-7.84,7.91-8.88.57-.12,1.16-.21,1.77-.25l.14-.03c.16.57.37,1.13.64,1.68,1.7,3.47,5.25,5.7,9.17,6.19l-.03.18c-.16.47-.28.94-.36,1.41l-.13-.02Z"/>
      <path class="cls-2" d="M250.3,27.6c-4.03.82-8.09-.36-10.29-2.95-3.47-4.08-1.64-10.92,3.84-13.08,4.17-1.65,9.48-.21,12.27,3.52.28.37.53.77.76,1.19-3.95,2.5-5.82,6.95-4.64,11.16l-.14.03c-.61.04-1.2.12-1.77.25l-.03-.11Z"/>
      <path class="cls-2" d="M249.67,66.91c2.61,1.16,3.51,4.63,1.57,6.72-1.45,1.56-4.17,1.99-6.37.91-.26-.13-.52-.28-.76-.45l-.03-.02c.61-.95.9-2.06.78-3.17-.06-.55-.21-1.11-.48-1.65-.21-.44-.49-.84-.81-1.19l.23-.06c1.66-1.48,4.06-1.9,5.87-1.09Z"/>
      <path class="cls-4" d="M244.83,74.59c1.82.92,2.89,2.6,2.72,4.24-.27,2.59-3.58,4.59-6.46,3.73-2.19-.65-3.62-2.8-3.25-5.04.04-.24.1-.48.18-.72v-.09c.97.12,1.97.03,2.94-.29.11-.03.22-.07.32-.12,1.22-.48,2.17-1.27,2.79-2.23l.03.02c.24.17.5.32.76.45l-.03.05Z"/>
      <path class="cls-1" d="M242.28,67c.48.29.92.65,1.29,1.07.32.36.59.75.81,1.19.26.54.42,1.1.48,1.65.11,1.11-.17,2.22-.78,3.17-.62.96-1.57,1.75-2.79,2.23-.11.04-.21.08-.32.12-.96.32-1.96.41-2.92.29-1.99-.25-3.79-1.38-4.65-3.14-.14-.28-.25-.56-.32-.85-.6-2.14.35-4.39,2.35-5.66.33-.21.68-.39,1.07-.54,1.97-.78,4.15-.53,5.81.48Z"/>
      <path class="cls-4" d="M235.08,66.42c-1.23-1.56-1.37-3.53-.39-4.95,1.53-2.21,5.5-2.7,7.65-.78,1.79,1.59,1.88,4.43-.07,6.31-1.65-1.01-3.84-1.25-5.81-.48-.38.15-.74.33-1.07.54-.11-.21-.24-.41-.38-.6l.06-.04Z"/>
      <path class="cls-1" d="M237.78,77.51c-.28,1.88-1.66,3.41-3.46,3.87-2.81.71-6.1-1.31-6.24-4.02-.11-2.06,1.64-4.04,4.13-4.53.25-.05.52-.08.78-.1l.07-.02c.08.29.19.57.32.85.86,1.76,2.67,2.89,4.65,3.14v.09c-.09.24-.16.48-.2.72h-.07Z"/>
      <path class="cls-2" d="M232.19,72.78c-2.08.46-4.2-.13-5.34-1.47-1.76-2.07-.83-5.54,1.95-6.64,2.12-.83,4.81-.11,6.23,1.79.14.19.27.39.38.6-2,1.27-2.95,3.52-2.35,5.66l-.07.02c-.27.02-.53.05-.78.1v-.06Z"/>
    </g>
    <g>
      <path class="cls-5" d="M262.06,35.3c-3.92-.49-7.47-2.72-9.17-6.19-.27-.55-.49-1.11-.64-1.68-1.18-4.21.68-8.65,4.64-11.16.65-.41,1.35-.77,2.1-1.07,3.88-1.53,8.18-1.04,11.44.94.95.58,1.8,1.28,2.54,2.1.63.7,1.17,1.49,1.59,2.35.52,1.06.83,2.16.94,3.25.23,2.19-.33,4.38-1.54,6.25-1.21,1.89-3.09,3.46-5.5,4.4-.21.08-.42.16-.63.23-1.9.63-3.87.81-5.76.57Z"/>
      <path class="cls-5" d="M256.84,15.72c-.21-.23-.41-.46-.6-.7-2.42-3.08-2.7-6.96-.76-9.76,3.02-4.36,10.83-5.31,15.08-1.54,3.53,3.13,3.7,8.72-.13,12.44-.04.04-.08.08-.12.11"/>
      <path class="cls-5" d="M251.46,27.31c-.38.12-.77.21-1.15.29-4.03.82-8.09-.36-10.29-2.95-3.47-4.08-1.64-10.92,3.84-13.08,4.17-1.65,9.48-.21,12.27,3.52.28.37.53.77.76,1.19,0,.01.01.02.02.04"/>
      <path class="cls-5" d="M261.64,35.97c-.01.31-.05.62-.09.92-.55,3.71-3.28,6.72-6.82,7.62-5.53,1.41-12.02-2.59-12.3-7.92-.21-4,3.12-7.84,7.91-8.88.57-.12,1.16-.21,1.77-.25"/>
      <path class="cls-5" d="M274.38,30.64c.37.15.73.31,1.08.48,3.59,1.82,5.69,5.12,5.36,8.35-.53,5.1-7.06,9.05-12.74,7.35-4.31-1.28-7.14-5.52-6.4-9.93.08-.47.2-.94.36-1.41"/>
      <path class="cls-5" d="M273.42,18.13c3.27-2.92,8-3.73,11.57-2.15,5.15,2.28,6.92,9.13,3.09,13.24-2.87,3.08-8.23,3.91-12.55,1.8-.52-.25-1.02-.55-1.5-.89"/>
      <path class="cls-5" d="M261.96,41.49c-3.18,6.37-6.41,15.37-4.47,24.43,1.52,7.09,5.19,9.47,7.5,14.98,2.93,7.01,3.59,18.95-6.58,40.55"/>
      <path class="cls-5" d="M280.62,75.38c-2.09-.26-3.97-1.45-4.88-3.29-.14-.29-.26-.59-.34-.89-.63-2.24.36-4.6,2.47-5.93.34-.22.72-.41,1.12-.57,2.07-.81,4.36-.56,6.09.5.5.31.96.68,1.35,1.12.34.37.62.79.85,1.25.28.57.44,1.15.5,1.73.12,1.17-.17,2.33-.82,3.32-.65,1-1.65,1.84-2.92,2.34-.11.04-.22.09-.34.12-1.01.34-2.06.43-3.06.3Z"/>
      <path class="cls-5" d="M277.84,64.97c-.12-.12-.23-.25-.33-.38-1.28-1.63-1.42-3.69-.39-5.18,1.61-2.32,5.76-2.82,8.02-.82,1.88,1.66,1.97,4.64-.07,6.61l-.06.06"/>
      <path class="cls-5" d="M274.98,71.13c-.16.05-.33.09-.49.13-2.18.49-4.4-.14-5.59-1.54-1.85-2.17-.87-5.81,2.04-6.96,2.21-.87,5.03-.11,6.52,1.86.15.2.29.42.41.64,0,0,0,.01.01.02"/>
      <path class="cls-5" d="M280.4,75.73c-.08,1.53-.85,2.89-1.99,3.74-.5.37-1.07.65-1.68.8-2.94.75-6.39-1.38-6.54-4.21-.11-2.16,1.71-4.23,4.33-4.74.27-.05.54-.09.82-.11"/>
      <path class="cls-5" d="M287.18,72.9c.2.08.39.16.57.26,1.91.97,3.03,2.73,2.85,4.44-.28,2.71-3.75,4.81-6.77,3.91-2.36-.7-2.13-6-3.22-6.03-.15,0-.3.07-.46.22-.55.5-1.18,1.84-1.74,3.78-1.21,4.13-2.18,10.93-1.67,17.92.58,8.07,2.73,10.9,2.35,18.69-.23,4.66-1.22,8.35-2.01,10.72"/>
      <path class="cls-5" d="M286.66,66.25c1.74-1.55,4.26-1.99,6.15-1.15,2.74,1.21,3.68,4.86,1.64,7.04-1.52,1.64-4.37,2.08-6.67.96-.28-.13-.54-.29-.8-.47"/>
      <path class="cls-5" d="M238.04,76.71c-1.99-.25-3.79-1.38-4.65-3.14-.14-.28-.25-.56-.32-.85-.6-2.14.35-4.39,2.35-5.66.33-.21.68-.39,1.07-.54,1.97-.78,4.15-.53,5.81.48.48.29.92.65,1.29,1.07.32.36.59.75.81,1.19.26.54.42,1.1.48,1.65.11,1.11-.17,2.22-.78,3.17-.62.96-1.57,1.75-2.79,2.23-.11.04-.21.08-.32.12-.96.32-1.96.41-2.92.29Z"/>
      <path class="cls-5" d="M235.38,66.78c-.11-.12-.21-.23-.3-.35-1.23-1.56-1.37-3.53-.39-4.95,1.53-2.21,5.5-2.7,7.65-.78,1.79,1.59,1.88,4.43-.07,6.31-.02.02-.04.04-.06.06"/>
      <path class="cls-5" d="M232.66,72.66c-.16.05-.31.09-.47.12-2.08.46-4.2-.13-5.34-1.47-1.76-2.07-.83-5.54,1.95-6.64,2.12-.83,4.81-.11,6.23,1.79.14.19.27.39.38.6,0,0,0,.01.01.02"/>
      <path class="cls-5" d="M237.82,77.05c0,.16-.02.31-.05.46-.28,1.88-1.66,3.41-3.46,3.87-2.81.71-6.1-1.31-6.24-4.02-.11-2.06,1.64-4.04,4.13-4.53.25-.05.52-.08.78-.1"/>
      <path class="cls-5" d="M244.29,74.35c.19.07.37.16.55.24,1.82.92,2.89,2.6,2.72,4.24-.27,2.59-3.58,4.59-6.46,3.73-2.19-.65-3.62-2.8-3.25-5.04.04-.24.1-.48.18-.72"/>
      <path class="cls-5" d="M243.8,68c1.66-1.48,4.06-1.9,5.87-1.09,2.61,1.16,3.51,4.63,1.57,6.72-1.45,1.56-4.17,1.99-6.37.91-.26-.13-.52-.28-.76-.45"/>
      <path class="cls-5" d="M236.48,80.43c.55,7.88,2.36,13.71,3.92,17.59,2.01,4.98,3.97,7.67,4.46,12.56.51,5.11-.9,9.46-2.14,12.3"/>
    </g>
  </g>
  <g>
    <g>
      <path class="cls-4" d="M362.42,65.7c2.74,1.21,3.68,4.86,1.64,7.04-1.52,1.64-4.37,2.08-6.67.96-.28-.13-.54-.29-.8-.47l-.03-.02c.64-1,.94-2.16.82-3.32-.06-.58-.22-1.16-.5-1.73-.23-.46-.51-.88-.85-1.25l.24-.06c1.74-1.55,4.26-1.99,6.15-1.15Z"/>
      <path class="cls-1" d="M357.35,73.75c1.91.97,3.03,2.73,2.85,4.44-.28,2.71-3.75,4.81-6.77,3.91-2.36-.7-2.13-6-3.22-6.03v-.1c1.02.12,2.07.03,3.08-.3.11-.04.23-.08.34-.12,1.28-.5,2.28-1.34,2.92-2.34l.03.02c.26.18.52.34.8.47l-.03.05Z"/>
      <path class="cls-4" d="M354.59,16.57c5.15,2.28,6.92,9.13,3.09,13.24-2.87,3.08-8.23,3.91-12.55,1.8-.52-.25-1.02-.55-1.5-.89l-.07-.03c1.21-1.87,1.77-4.06,1.54-6.25-.11-1.1-.42-2.19-.94-3.25-.42-.86-.96-1.65-1.59-2.35l.46-.12c3.27-2.92,8-3.73,11.57-2.15Z"/>
      <path class="cls-3" d="M347.47,65.86c.34-.22.72-.41,1.12-.57,2.07-.81,4.36-.56,6.09.5.5.31.96.68,1.35,1.12.34.37.62.79.85,1.25.28.57.44,1.15.5,1.73.12,1.17-.17,2.33-.82,3.32-.65,1-1.65,1.84-2.92,2.34-.11.04-.22.09-.34.12-1.01.34-2.06.43-3.06.3-2.09-.26-3.97-1.45-4.88-3.29-.14-.29-.26-.59-.34-.89-.63-2.24.36-4.6,2.47-5.93Z"/>
      <path class="cls-2" d="M347.12,65.18c-1.28-1.63-1.42-3.69-.39-5.18,1.61-2.32,5.76-2.82,8.02-.82,1.88,1.66,1.97,4.64-.07,6.61-1.73-1.06-4.02-1.31-6.09-.5-.4.16-.77.35-1.12.57-.12-.23-.26-.44-.41-.64l.06-.04Z"/>
      <path class="cls-2" d="M345.06,31.72c3.59,1.82,5.69,5.12,5.36,8.35-.53,5.1-7.06,9.05-12.74,7.35-4.31-1.28-7.14-5.52-6.4-9.93.08-.47.2-.94.36-1.41l.03-.18c1.89.23,3.87.06,5.76-.57.21-.07.42-.15.63-.23,2.4-.94,4.28-2.51,5.5-4.4l.07.03c.48.34.99.63,1.5.89l-.06.1Z"/>
      <path class="cls-1" d="M350.22,75.97v.1c-.16,0-.31.07-.48.22-.55.5-1.18,1.84-1.74,3.78-.5.37-1.07.65-1.68.8-2.94.75-6.39-1.38-6.54-4.21-.11-2.16,1.71-4.23,4.33-4.74.27-.05.54-.09.82-.11l.08-.02c.08.3.2.6.34.89.91,1.84,2.79,3.03,4.88,3.29Z"/>
      <path class="cls-4" d="M344.09,71.85c-2.18.49-4.4-.14-5.59-1.54-1.85-2.17-.87-5.81,2.04-6.96,2.21-.87,5.03-.11,6.52,1.86.15.2.29.42.41.64-2.1,1.33-3.09,3.69-2.47,5.93l-.08.02c-.28.02-.56.05-.82.11l-.02-.06Z"/>
      <path class="cls-3" d="M326.49,16.87c.65-.41,1.35-.77,2.1-1.07,3.88-1.53,8.18-1.04,11.44.94.95.58,1.8,1.28,2.54,2.1.63.7,1.17,1.49,1.59,2.35.52,1.06.83,2.16.94,3.25.23,2.19-.33,4.38-1.54,6.25-1.21,1.89-3.09,3.46-5.5,4.4-.21.08-.42.16-.63.23-1.9.63-3.87.81-5.76.57-3.92-.49-7.47-2.72-9.17-6.19-.27-.55-.49-1.11-.64-1.68-1.18-4.21.68-8.65,4.64-11.16Z"/>
      <path class="cls-1" d="M325.83,15.62c-2.42-3.08-2.7-6.96-.76-9.76,3.02-4.36,10.83-5.31,15.08-1.54,3.53,3.13,3.7,8.72-.13,12.44-3.26-1.99-7.56-2.47-11.44-.94-.75.3-1.46.65-2.1,1.07-.23-.42-.48-.82-.76-1.19l.11-.07Z"/>
      <path class="cls-4" d="M331.15,37.48c-.55,3.71-3.28,6.72-6.82,7.62-5.53,1.41-12.02-2.59-12.3-7.92-.21-4,3.12-7.84,7.91-8.88.57-.12,1.16-.21,1.77-.25l.14-.03c.16.57.37,1.13.64,1.68,1.7,3.47,5.25,5.7,9.17,6.19l-.03.18c-.16.47-.28.94-.36,1.41l-.13-.02Z"/>
      <path class="cls-2" d="M319.9,28.2c-4.03.82-8.09-.36-10.29-2.95-3.47-4.08-1.64-10.92,3.84-13.08,4.17-1.65,9.48-.21,12.27,3.52.28.37.53.77.76,1.19-3.95,2.5-5.82,6.95-4.64,11.16l-.14.03c-.61.04-1.2.12-1.77.25l-.03-.11Z"/>
      <path class="cls-2" d="M319.27,67.51c2.61,1.16,3.51,4.63,1.57,6.72-1.45,1.56-4.17,1.99-6.37.91-.26-.13-.52-.28-.76-.45l-.03-.02c.61-.95.9-2.06.78-3.17-.06-.55-.21-1.11-.48-1.65-.21-.44-.49-.84-.81-1.19l.23-.06c1.66-1.48,4.06-1.9,5.87-1.09Z"/>
      <path class="cls-4" d="M314.44,75.19c1.82.92,2.89,2.6,2.72,4.24-.27,2.59-3.58,4.59-6.46,3.73-2.19-.65-3.62-2.8-3.25-5.04.04-.24.1-.48.18-.72v-.09c.97.12,1.97.03,2.94-.29.11-.03.22-.07.32-.12,1.22-.48,2.17-1.27,2.79-2.23l.03.02c.24.17.5.32.76.45l-.03.05Z"/>
      <path class="cls-1" d="M305.01,67.66c.33-.21.68-.39,1.07-.54,1.97-.78,4.15-.53,5.81.48.48.29.92.65,1.29,1.07.32.36.59.75.81,1.19.26.54.42,1.1.48,1.65.11,1.11-.17,2.22-.78,3.17-.62.96-1.57,1.75-2.79,2.23-.11.04-.21.08-.32.12-.96.32-1.96.41-2.92.29-1.99-.25-3.79-1.38-4.65-3.14-.14-.28-.25-.56-.32-.85-.6-2.14.35-4.39,2.35-5.66Z"/>
      <path class="cls-4" d="M304.68,67.02c-1.23-1.56-1.37-3.53-.39-4.95,1.53-2.21,5.5-2.7,7.65-.78,1.79,1.59,1.88,4.43-.07,6.31-1.65-1.01-3.84-1.25-5.81-.48-.38.15-.74.33-1.07.54-.11-.21-.24-.41-.38-.6l.06-.04Z"/>
      <path class="cls-1" d="M307.38,78.11c-.28,1.88-1.66,3.41-3.46,3.87-2.81.71-6.1-1.31-6.24-4.02-.11-2.06,1.64-4.04,4.13-4.53.25-.05.52-.08.78-.1l.07-.02c.08.29.19.57.32.85.86,1.76,2.67,2.89,4.65,3.14v.09c-.09.24-.16.48-.2.72h-.07Z"/>
      <path class="cls-2" d="M301.79,73.38c-2.08.46-4.2-.13-5.34-1.47-1.76-2.07-.83-5.54,1.95-6.64,2.12-.83,4.81-.11,6.23,1.79.14.19.27.39.38.6-2,1.27-2.95,3.52-2.35,5.66l-.07.02c-.27.02-.53.05-.78.1v-.06Z"/>
    </g>
    <g>
      <path class="cls-5" d="M331.66,35.9c-3.92-.49-7.47-2.72-9.17-6.19-.27-.55-.49-1.11-.64-1.68-1.18-4.21.68-8.65,4.64-11.16.65-.41,1.35-.77,2.1-1.07,3.88-1.53,8.18-1.04,11.44.94.95.58,1.8,1.28,2.54,2.1.63.7,1.17,1.49,1.59,2.35.52,1.06.83,2.16.94,3.25.23,2.19-.33,4.38-1.54,6.25-1.21,1.89-3.09,3.46-5.5,4.4-.21.08-.42.16-.63.23-1.9.63-3.87.81-5.76.57Z"/>
      <path class="cls-5" d="M326.44,16.32c-.21-.23-.41-.46-.6-.7-2.42-3.08-2.7-6.96-.76-9.76,3.02-4.36,10.83-5.31,15.08-1.54,3.53,3.13,3.7,8.72-.13,12.44-.04.04-.08.08-.12.11"/>
      <path class="cls-5" d="M321.06,27.91c-.38.12-.77.21-1.15.29-4.03.82-8.09-.36-10.29-2.95-3.47-4.08-1.64-10.92,3.84-13.08,4.17-1.65,9.48-.21,12.27,3.52.28.37.53.77.76,1.19,0,.01.01.02.02.04"/>
      <path class="cls-5" d="M331.24,36.56c-.01.31-.05.62-.09.92-.55,3.71-3.28,6.72-6.82,7.62-5.53,1.41-12.02-2.59-12.3-7.92-.21-4,3.12-7.84,7.91-8.88.57-.12,1.16-.21,1.77-.25"/>
      <path class="cls-5" d="M343.99,31.24c.37.15.73.31,1.08.48,3.59,1.82,5.69,5.12,5.36,8.35-.53,5.1-7.06,9.05-12.74,7.35-4.31-1.28-7.14-5.52-6.4-9.93.08-.47.2-.94.36-1.41"/>
      <path class="cls-5" d="M343.02,18.73c3.27-2.92,8-3.73,11.57-2.15,5.15,2.28,6.92,9.13,3.09,13.24-2.87,3.08-8.23,3.91-12.55,1.8-.52-.25-1.02-.55-1.5-.89"/>
      <path class="cls-5" d="M331.56,42.09c-3.18,6.37-6.41,15.37-4.47,24.43,1.52,7.09,5.19,9.47,7.5,14.98,2.93,7.01,3.59,18.95-6.58,40.55"/>
      <path class="cls-5" d="M350.22,75.97c-2.09-.26-3.97-1.45-4.88-3.29-.14-.29-.26-.59-.34-.89-.63-2.24.36-4.6,2.47-5.93.34-.22.72-.41,1.12-.57,2.07-.81,4.36-.56,6.09.5.5.31.96.68,1.35,1.12.34.37.62.79.85,1.25.28.57.44,1.15.5,1.73.12,1.17-.17,2.33-.82,3.32-.65,1-1.65,1.84-2.92,2.34-.11.04-.22.09-.34.12-1.01.34-2.06.43-3.06.3Z"/>
      <path class="cls-5" d="M347.44,65.56c-.12-.12-.23-.25-.33-.38-1.28-1.63-1.42-3.69-.39-5.18,1.61-2.32,5.76-2.82,8.02-.82,1.88,1.66,1.97,4.64-.07,6.61l-.06.06"/>
      <path class="cls-5" d="M344.58,71.72c-.16.05-.33.09-.49.13-2.18.49-4.4-.14-5.59-1.54-1.85-2.17-.87-5.81,2.04-6.96,2.21-.87,5.03-.11,6.52,1.86.15.2.29.42.41.64,0,0,0,.01.01.02"/>
      <path class="cls-5" d="M350,76.33c-.08,1.53-.85,2.89-1.99,3.74-.5.37-1.07.65-1.68.8-2.94.75-6.39-1.38-6.54-4.21-.11-2.16,1.71-4.23,4.33-4.74.27-.05.54-.09.82-.11"/>
      <path class="cls-5" d="M356.78,73.5c.2.08.39.16.57.26,1.91.97,3.03,2.73,2.85,4.44-.28,2.71-3.75,4.81-6.77,3.91-2.36-.7-2.13-6-3.22-6.03-.15,0-.3.07-.46.22-.55.5-1.18,1.84-1.74,3.78-1.21,4.13-2.18,10.93-1.67,17.92.58,8.07,2.73,10.9,2.35,18.69-.23,4.66-1.22,8.35-2.01,10.72"/>
      <path class="cls-5" d="M356.26,66.85c1.74-1.55,4.26-1.99,6.15-1.15,2.74,1.21,3.68,4.86,1.64,7.04-1.52,1.64-4.37,2.08-6.67.96-.28-.13-.54-.29-.8-.47"/>
      <path class="cls-5" d="M307.64,77.31c-1.99-.25-3.79-1.38-4.65-3.14-.14-.28-.25-.56-.32-.85-.6-2.14.35-4.39,2.35-5.66.33-.21.68-.39,1.07-.54,1.97-.78,4.15-.53,5.81.48.48.29.92.65,1.29,1.07.32.36.59.75.81,1.19.26.54.42,1.1.48,1.65.11,1.11-.17,2.22-.78,3.17-.62.96-1.57,1.75-2.79,2.23-.11.04-.21.08-.32.12-.96.32-1.96.41-2.92.29Z"/>
      <path class="cls-5" d="M304.99,67.37c-.11-.12-.21-.23-.3-.35-1.23-1.56-1.37-3.53-.39-4.95,1.53-2.21,5.5-2.7,7.65-.78,1.79,1.59,1.88,4.43-.07,6.31-.02.02-.04.04-.06.06"/>
      <path class="cls-5" d="M302.26,73.25c-.16.05-.31.09-.47.12-2.08.46-4.2-.13-5.34-1.47-1.76-2.07-.83-5.54,1.95-6.64,2.12-.83,4.81-.11,6.23,1.79.14.19.27.39.38.6,0,0,0,.01.01.02"/>
      <path class="cls-5" d="M307.42,77.65c0,.16-.02.31-.05.46-.28,1.88-1.66,3.41-3.46,3.87-2.81.71-6.1-1.31-6.24-4.02-.11-2.06,1.64-4.04,4.13-4.53.25-.05.52-.08.78-.1"/>
      <path class="cls-5" d="M313.89,74.95c.19.07.37.16.55.24,1.82.92,2.89,2.6,2.72,4.24-.27,2.59-3.58,4.59-6.46,3.73-2.19-.65-3.62-2.8-3.25-5.04.04-.24.1-.48.18-.72"/>
      <path class="cls-5" d="M313.4,68.6c1.66-1.48,4.06-1.9,5.87-1.09,2.61,1.16,3.51,4.63,1.57,6.72-1.45,1.56-4.17,1.99-6.37.91-.26-.13-.52-.28-.76-.45"/>
      <path class="cls-5" d="M306.08,81.02c.55,7.88,2.36,13.71,3.92,17.59,2.01,4.98,3.97,7.67,4.46,12.56.51,5.11-.9,9.46-2.14,12.3"/>
    </g>
  </g>
</svg>